<svg width="589" height="753" viewBox="0 0 589 753" fill="none" xmlns="http://www.w3.org/2000/svg">
<circle cx="502" cy="662" r="3" transform="rotate(-90 502 662)" fill="#F3F0EA"/>
<circle cx="502" cy="552" r="3" transform="rotate(-90 502 552)" fill="#F3F0EA"/>
<circle cx="502" cy="750" r="3" transform="rotate(-90 502 750)" fill="#F3F0EA"/>
<circle cx="502" cy="640" r="3" transform="rotate(-90 502 640)" fill="#F3F0EA"/>
<circle cx="502" cy="530" r="3" transform="rotate(-90 502 530)" fill="#F3F0EA"/>
<circle cx="502" cy="728" r="3" transform="rotate(-90 502 728)" fill="#F3F0EA"/>
<circle cx="502" cy="618" r="3" transform="rotate(-90 502 618)" fill="#F3F0EA"/>
<circle cx="502" cy="508" r="3" transform="rotate(-90 502 508)" fill="#F3F0EA"/>
<circle cx="502" cy="706" r="3" transform="rotate(-90 502 706)" fill="#F3F0EA"/>
<circle cx="502" cy="596" r="3" transform="rotate(-90 502 596)" fill="#F3F0EA"/>
<circle cx="502" cy="486" r="3" transform="rotate(-90 502 486)" fill="#F3F0EA"/>
<circle cx="502" cy="684" r="3" transform="rotate(-90 502 684)" fill="#F3F0EA"/>
<circle cx="502" cy="574" r="3" transform="rotate(-90 502 574)" fill="#F3F0EA"/>
<circle cx="502" cy="464" r="3" transform="rotate(-90 502 464)" fill="#F3F0EA"/>
<circle cx="546" cy="662" r="3" transform="rotate(-90 546 662)" fill="#F3F0EA"/>
<circle cx="546" cy="552" r="3" transform="rotate(-90 546 552)" fill="#F3F0EA"/>
<circle cx="546" cy="750" r="3" transform="rotate(-90 546 750)" fill="#F3F0EA"/>
<circle cx="546" cy="640" r="3" transform="rotate(-90 546 640)" fill="#F3F0EA"/>
<circle cx="546" cy="530" r="3" transform="rotate(-90 546 530)" fill="#F3F0EA"/>
<circle cx="546" cy="728" r="3" transform="rotate(-90 546 728)" fill="#F3F0EA"/>
<circle cx="546" cy="618" r="3" transform="rotate(-90 546 618)" fill="#F3F0EA"/>
<circle cx="546" cy="508" r="3" transform="rotate(-90 546 508)" fill="#F3F0EA"/>
<circle cx="546" cy="706" r="3" transform="rotate(-90 546 706)" fill="#F3F0EA"/>
<circle cx="546" cy="596" r="3" transform="rotate(-90 546 596)" fill="#F3F0EA"/>
<circle cx="546" cy="486" r="3" transform="rotate(-90 546 486)" fill="#F3F0EA"/>
<circle cx="546" cy="684" r="3" transform="rotate(-90 546 684)" fill="#F3F0EA"/>
<circle cx="546" cy="574" r="3" transform="rotate(-90 546 574)" fill="#F3F0EA"/>
<circle cx="546" cy="464" r="3" transform="rotate(-90 546 464)" fill="#F3F0EA"/>
<circle cx="524" cy="662" r="3" transform="rotate(-90 524 662)" fill="#F3F0EA"/>
<circle cx="524" cy="552" r="3" transform="rotate(-90 524 552)" fill="#F3F0EA"/>
<circle cx="524" cy="750" r="3" transform="rotate(-90 524 750)" fill="#F3F0EA"/>
<circle cx="524" cy="640" r="3" transform="rotate(-90 524 640)" fill="#F3F0EA"/>
<circle cx="524" cy="530" r="3" transform="rotate(-90 524 530)" fill="#F3F0EA"/>
<circle cx="524" cy="728" r="3" transform="rotate(-90 524 728)" fill="#F3F0EA"/>
<circle cx="524" cy="618" r="3" transform="rotate(-90 524 618)" fill="#F3F0EA"/>
<circle cx="524" cy="508" r="3" transform="rotate(-90 524 508)" fill="#F3F0EA"/>
<circle cx="524" cy="706" r="3" transform="rotate(-90 524 706)" fill="#F3F0EA"/>
<circle cx="524" cy="596" r="3" transform="rotate(-90 524 596)" fill="#F3F0EA"/>
<circle cx="524" cy="486" r="3" transform="rotate(-90 524 486)" fill="#F3F0EA"/>
<circle cx="524" cy="684" r="3" transform="rotate(-90 524 684)" fill="#F3F0EA"/>
<circle cx="524" cy="574" r="3" transform="rotate(-90 524 574)" fill="#F3F0EA"/>
<circle cx="524" cy="464" r="3" transform="rotate(-90 524 464)" fill="#F3F0EA"/>
<circle cx="568" cy="662" r="3" transform="rotate(-90 568 662)" fill="#F3F0EA"/>
<circle cx="568" cy="552" r="3" transform="rotate(-90 568 552)" fill="#F3F0EA"/>
<circle cx="568" cy="750" r="3" transform="rotate(-90 568 750)" fill="#F3F0EA"/>
<circle cx="568" cy="640" r="3" transform="rotate(-90 568 640)" fill="#F3F0EA"/>
<circle cx="568" cy="530" r="3" transform="rotate(-90 568 530)" fill="#F3F0EA"/>
<circle cx="568" cy="728" r="3" transform="rotate(-90 568 728)" fill="#F3F0EA"/>
<circle cx="568" cy="618" r="3" transform="rotate(-90 568 618)" fill="#F3F0EA"/>
<circle cx="568" cy="508" r="3" transform="rotate(-90 568 508)" fill="#F3F0EA"/>
<circle cx="568" cy="706" r="3" transform="rotate(-90 568 706)" fill="#F3F0EA"/>
<circle cx="568" cy="596" r="3" transform="rotate(-90 568 596)" fill="#F3F0EA"/>
<circle cx="568" cy="486" r="3" transform="rotate(-90 568 486)" fill="#F3F0EA"/>
<circle cx="568" cy="684" r="3" transform="rotate(-90 568 684)" fill="#F3F0EA"/>
<circle cx="568" cy="574" r="3" transform="rotate(-90 568 574)" fill="#F3F0EA"/>
<circle cx="568" cy="464" r="3" transform="rotate(-90 568 464)" fill="#F3F0EA"/>
<circle cx="91" cy="290" r="3" transform="rotate(-90 91 290)" fill="#F3F0EA"/>
<circle cx="91" cy="180" r="3" transform="rotate(-90 91 180)" fill="#F3F0EA"/>
<circle cx="91" cy="378" r="3" transform="rotate(-90 91 378)" fill="#F3F0EA"/>
<circle cx="91" cy="268" r="3" transform="rotate(-90 91 268)" fill="#F3F0EA"/>
<circle cx="91" cy="158" r="3" transform="rotate(-90 91 158)" fill="#F3F0EA"/>
<circle cx="91" cy="356" r="3" transform="rotate(-90 91 356)" fill="#F3F0EA"/>
<circle cx="91" cy="246" r="3" transform="rotate(-90 91 246)" fill="#F3F0EA"/>
<circle cx="91" cy="136" r="3" transform="rotate(-90 91 136)" fill="#F3F0EA"/>
<circle cx="91" cy="334" r="3" transform="rotate(-90 91 334)" fill="#F3F0EA"/>
<circle cx="91" cy="224" r="3" transform="rotate(-90 91 224)" fill="#F3F0EA"/>
<circle cx="91" cy="114" r="3" transform="rotate(-90 91 114)" fill="#F3F0EA"/>
<circle cx="91" cy="312" r="3" transform="rotate(-90 91 312)" fill="#F3F0EA"/>
<circle cx="91" cy="202" r="3" transform="rotate(-90 91 202)" fill="#F3F0EA"/>
<circle cx="91" cy="92" r="3" transform="rotate(-90 91 92)" fill="#F3F0EA"/>
<circle cx="135" cy="290" r="3" transform="rotate(-90 135 290)" fill="#F3F0EA"/>
<circle cx="135" cy="180" r="3" transform="rotate(-90 135 180)" fill="#F3F0EA"/>
<circle cx="135" cy="378" r="3" transform="rotate(-90 135 378)" fill="#F3F0EA"/>
<circle cx="135" cy="268" r="3" transform="rotate(-90 135 268)" fill="#F3F0EA"/>
<circle cx="135" cy="158" r="3" transform="rotate(-90 135 158)" fill="#F3F0EA"/>
<circle cx="135" cy="356" r="3" transform="rotate(-90 135 356)" fill="#F3F0EA"/>
<circle cx="135" cy="246" r="3" transform="rotate(-90 135 246)" fill="#F3F0EA"/>
<circle cx="135" cy="136" r="3" transform="rotate(-90 135 136)" fill="#F3F0EA"/>
<circle cx="135" cy="334" r="3" transform="rotate(-90 135 334)" fill="#F3F0EA"/>
<circle cx="135" cy="224" r="3" transform="rotate(-90 135 224)" fill="#F3F0EA"/>
<circle cx="135" cy="114" r="3" transform="rotate(-90 135 114)" fill="#F3F0EA"/>
<circle cx="135" cy="312" r="3" transform="rotate(-90 135 312)" fill="#F3F0EA"/>
<circle cx="135" cy="202" r="3" transform="rotate(-90 135 202)" fill="#F3F0EA"/>
<circle cx="135" cy="92" r="3" transform="rotate(-90 135 92)" fill="#F3F0EA"/>
<circle cx="113" cy="290" r="3" transform="rotate(-90 113 290)" fill="#F3F0EA"/>
<circle cx="113" cy="180" r="3" transform="rotate(-90 113 180)" fill="#F3F0EA"/>
<circle cx="113" cy="378" r="3" transform="rotate(-90 113 378)" fill="#F3F0EA"/>
<circle cx="113" cy="268" r="3" transform="rotate(-90 113 268)" fill="#F3F0EA"/>
<circle cx="113" cy="158" r="3" transform="rotate(-90 113 158)" fill="#F3F0EA"/>
<circle cx="113" cy="356" r="3" transform="rotate(-90 113 356)" fill="#F3F0EA"/>
<circle cx="113" cy="246" r="3" transform="rotate(-90 113 246)" fill="#F3F0EA"/>
<circle cx="113" cy="136" r="3" transform="rotate(-90 113 136)" fill="#F3F0EA"/>
<circle cx="113" cy="334" r="3" transform="rotate(-90 113 334)" fill="#F3F0EA"/>
<circle cx="113" cy="224" r="3" transform="rotate(-90 113 224)" fill="#F3F0EA"/>
<circle cx="113" cy="114" r="3" transform="rotate(-90 113 114)" fill="#F3F0EA"/>
<circle cx="113" cy="312" r="3" transform="rotate(-90 113 312)" fill="#F3F0EA"/>
<circle cx="113" cy="202" r="3" transform="rotate(-90 113 202)" fill="#F3F0EA"/>
<circle cx="113" cy="92" r="3" transform="rotate(-90 113 92)" fill="#F3F0EA"/>
<circle cx="157" cy="290" r="3" transform="rotate(-90 157 290)" fill="#F3F0EA"/>
<circle cx="157" cy="180" r="3" transform="rotate(-90 157 180)" fill="#F3F0EA"/>
<circle cx="157" cy="378" r="3" transform="rotate(-90 157 378)" fill="#F3F0EA"/>
<circle cx="157" cy="268" r="3" transform="rotate(-90 157 268)" fill="#F3F0EA"/>
<circle cx="157" cy="158" r="3" transform="rotate(-90 157 158)" fill="#F3F0EA"/>
<circle cx="157" cy="356" r="3" transform="rotate(-90 157 356)" fill="#F3F0EA"/>
<circle cx="157" cy="246" r="3" transform="rotate(-90 157 246)" fill="#F3F0EA"/>
<circle cx="157" cy="136" r="3" transform="rotate(-90 157 136)" fill="#F3F0EA"/>
<circle cx="157" cy="334" r="3" transform="rotate(-90 157 334)" fill="#F3F0EA"/>
<circle cx="157" cy="224" r="3" transform="rotate(-90 157 224)" fill="#F3F0EA"/>
<circle cx="157" cy="114" r="3" transform="rotate(-90 157 114)" fill="#F3F0EA"/>
<circle cx="157" cy="312" r="3" transform="rotate(-90 157 312)" fill="#F3F0EA"/>
<circle cx="157" cy="202" r="3" transform="rotate(-90 157 202)" fill="#F3F0EA"/>
<circle cx="157" cy="92" r="3" transform="rotate(-90 157 92)" fill="#F3F0EA"/>
<circle cx="414" cy="662" r="3" transform="rotate(-90 414 662)" fill="#F3F0EA"/>
<circle cx="414" cy="552" r="3" transform="rotate(-90 414 552)" fill="#F3F0EA"/>
<circle cx="414" cy="750" r="3" transform="rotate(-90 414 750)" fill="#F3F0EA"/>
<circle cx="414" cy="640" r="3" transform="rotate(-90 414 640)" fill="#F3F0EA"/>
<circle cx="414" cy="530" r="3" transform="rotate(-90 414 530)" fill="#F3F0EA"/>
<circle cx="414" cy="728" r="3" transform="rotate(-90 414 728)" fill="#F3F0EA"/>
<circle cx="414" cy="618" r="3" transform="rotate(-90 414 618)" fill="#F3F0EA"/>
<circle cx="414" cy="508" r="3" transform="rotate(-90 414 508)" fill="#F3F0EA"/>
<circle cx="414" cy="706" r="3" transform="rotate(-90 414 706)" fill="#F3F0EA"/>
<circle cx="414" cy="596" r="3" transform="rotate(-90 414 596)" fill="#F3F0EA"/>
<circle cx="414" cy="486" r="3" transform="rotate(-90 414 486)" fill="#F3F0EA"/>
<circle cx="414" cy="684" r="3" transform="rotate(-90 414 684)" fill="#F3F0EA"/>
<circle cx="414" cy="574" r="3" transform="rotate(-90 414 574)" fill="#F3F0EA"/>
<circle cx="414" cy="464" r="3" transform="rotate(-90 414 464)" fill="#F3F0EA"/>
<circle cx="3" cy="290" r="3" transform="rotate(-90 3 290)" fill="#F3F0EA"/>
<circle cx="3" cy="180" r="3" transform="rotate(-90 3 180)" fill="#F3F0EA"/>
<circle cx="3" cy="378" r="3" transform="rotate(-90 3 378)" fill="#F3F0EA"/>
<circle cx="3" cy="268" r="3" transform="rotate(-90 3 268)" fill="#F3F0EA"/>
<circle cx="3" cy="158" r="3" transform="rotate(-90 3 158)" fill="#F3F0EA"/>
<circle cx="3" cy="356" r="3" transform="rotate(-90 3 356)" fill="#F3F0EA"/>
<circle cx="3" cy="246" r="3" transform="rotate(-90 3 246)" fill="#F3F0EA"/>
<circle cx="3" cy="136" r="3" transform="rotate(-90 3 136)" fill="#F3F0EA"/>
<circle cx="3" cy="334" r="3" transform="rotate(-90 3 334)" fill="#F3F0EA"/>
<circle cx="3" cy="224" r="3" transform="rotate(-90 3 224)" fill="#F3F0EA"/>
<circle cx="3" cy="114" r="3" transform="rotate(-90 3 114)" fill="#F3F0EA"/>
<circle cx="3" cy="312" r="3" transform="rotate(-90 3 312)" fill="#F3F0EA"/>
<circle cx="3" cy="202" r="3" transform="rotate(-90 3 202)" fill="#F3F0EA"/>
<circle cx="3" cy="92" r="3" transform="rotate(-90 3 92)" fill="#F3F0EA"/>
<circle cx="458" cy="662" r="3" transform="rotate(-90 458 662)" fill="#F3F0EA"/>
<circle cx="458" cy="552" r="3" transform="rotate(-90 458 552)" fill="#F3F0EA"/>
<circle cx="458" cy="750" r="3" transform="rotate(-90 458 750)" fill="#F3F0EA"/>
<circle cx="458" cy="640" r="3" transform="rotate(-90 458 640)" fill="#F3F0EA"/>
<circle cx="458" cy="530" r="3" transform="rotate(-90 458 530)" fill="#F3F0EA"/>
<circle cx="458" cy="728" r="3" transform="rotate(-90 458 728)" fill="#F3F0EA"/>
<circle cx="458" cy="618" r="3" transform="rotate(-90 458 618)" fill="#F3F0EA"/>
<circle cx="458" cy="508" r="3" transform="rotate(-90 458 508)" fill="#F3F0EA"/>
<circle cx="458" cy="706" r="3" transform="rotate(-90 458 706)" fill="#F3F0EA"/>
<circle cx="458" cy="596" r="3" transform="rotate(-90 458 596)" fill="#F3F0EA"/>
<circle cx="458" cy="486" r="3" transform="rotate(-90 458 486)" fill="#F3F0EA"/>
<circle cx="458" cy="684" r="3" transform="rotate(-90 458 684)" fill="#F3F0EA"/>
<circle cx="458" cy="574" r="3" transform="rotate(-90 458 574)" fill="#F3F0EA"/>
<circle cx="458" cy="464" r="3" transform="rotate(-90 458 464)" fill="#F3F0EA"/>
<circle cx="47" cy="290" r="3" transform="rotate(-90 47 290)" fill="#F3F0EA"/>
<circle cx="47" cy="180" r="3" transform="rotate(-90 47 180)" fill="#F3F0EA"/>
<circle cx="47" cy="378" r="3" transform="rotate(-90 47 378)" fill="#F3F0EA"/>
<circle cx="47" cy="268" r="3" transform="rotate(-90 47 268)" fill="#F3F0EA"/>
<circle cx="47" cy="158" r="3" transform="rotate(-90 47 158)" fill="#F3F0EA"/>
<circle cx="47" cy="356" r="3" transform="rotate(-90 47 356)" fill="#F3F0EA"/>
<circle cx="47" cy="246" r="3" transform="rotate(-90 47 246)" fill="#F3F0EA"/>
<circle cx="47" cy="136" r="3" transform="rotate(-90 47 136)" fill="#F3F0EA"/>
<circle cx="47" cy="334" r="3" transform="rotate(-90 47 334)" fill="#F3F0EA"/>
<circle cx="47" cy="224" r="3" transform="rotate(-90 47 224)" fill="#F3F0EA"/>
<circle cx="47" cy="114" r="3" transform="rotate(-90 47 114)" fill="#F3F0EA"/>
<circle cx="47" cy="312" r="3" transform="rotate(-90 47 312)" fill="#F3F0EA"/>
<circle cx="47" cy="202" r="3" transform="rotate(-90 47 202)" fill="#F3F0EA"/>
<circle cx="47" cy="92" r="3" transform="rotate(-90 47 92)" fill="#F3F0EA"/>
<circle cx="436" cy="662" r="3" transform="rotate(-90 436 662)" fill="#F3F0EA"/>
<circle cx="436" cy="552" r="3" transform="rotate(-90 436 552)" fill="#F3F0EA"/>
<circle cx="436" cy="750" r="3" transform="rotate(-90 436 750)" fill="#F3F0EA"/>
<circle cx="436" cy="640" r="3" transform="rotate(-90 436 640)" fill="#F3F0EA"/>
<circle cx="436" cy="530" r="3" transform="rotate(-90 436 530)" fill="#F3F0EA"/>
<circle cx="436" cy="728" r="3" transform="rotate(-90 436 728)" fill="#F3F0EA"/>
<circle cx="436" cy="618" r="3" transform="rotate(-90 436 618)" fill="#F3F0EA"/>
<circle cx="436" cy="508" r="3" transform="rotate(-90 436 508)" fill="#F3F0EA"/>
<circle cx="436" cy="706" r="3" transform="rotate(-90 436 706)" fill="#F3F0EA"/>
<circle cx="436" cy="596" r="3" transform="rotate(-90 436 596)" fill="#F3F0EA"/>
<circle cx="436" cy="486" r="3" transform="rotate(-90 436 486)" fill="#F3F0EA"/>
<circle cx="436" cy="684" r="3" transform="rotate(-90 436 684)" fill="#F3F0EA"/>
<circle cx="436" cy="574" r="3" transform="rotate(-90 436 574)" fill="#F3F0EA"/>
<circle cx="436" cy="464" r="3" transform="rotate(-90 436 464)" fill="#F3F0EA"/>
<circle cx="25" cy="290" r="3" transform="rotate(-90 25 290)" fill="#F3F0EA"/>
<circle cx="25" cy="180" r="3" transform="rotate(-90 25 180)" fill="#F3F0EA"/>
<circle cx="25" cy="378" r="3" transform="rotate(-90 25 378)" fill="#F3F0EA"/>
<circle cx="25" cy="268" r="3" transform="rotate(-90 25 268)" fill="#F3F0EA"/>
<circle cx="25" cy="158" r="3" transform="rotate(-90 25 158)" fill="#F3F0EA"/>
<circle cx="25" cy="356" r="3" transform="rotate(-90 25 356)" fill="#F3F0EA"/>
<circle cx="25" cy="246" r="3" transform="rotate(-90 25 246)" fill="#F3F0EA"/>
<circle cx="25" cy="136" r="3" transform="rotate(-90 25 136)" fill="#F3F0EA"/>
<circle cx="25" cy="334" r="3" transform="rotate(-90 25 334)" fill="#F3F0EA"/>
<circle cx="25" cy="224" r="3" transform="rotate(-90 25 224)" fill="#F3F0EA"/>
<circle cx="25" cy="114" r="3" transform="rotate(-90 25 114)" fill="#F3F0EA"/>
<circle cx="25" cy="312" r="3" transform="rotate(-90 25 312)" fill="#F3F0EA"/>
<circle cx="25" cy="202" r="3" transform="rotate(-90 25 202)" fill="#F3F0EA"/>
<circle cx="25" cy="92" r="3" transform="rotate(-90 25 92)" fill="#F3F0EA"/>
<circle cx="480" cy="662" r="3" transform="rotate(-90 480 662)" fill="#F3F0EA"/>
<circle cx="480" cy="552" r="3" transform="rotate(-90 480 552)" fill="#F3F0EA"/>
<circle cx="480" cy="750" r="3" transform="rotate(-90 480 750)" fill="#F3F0EA"/>
<circle cx="480" cy="640" r="3" transform="rotate(-90 480 640)" fill="#F3F0EA"/>
<circle cx="480" cy="530" r="3" transform="rotate(-90 480 530)" fill="#F3F0EA"/>
<circle cx="480" cy="728" r="3" transform="rotate(-90 480 728)" fill="#F3F0EA"/>
<circle cx="480" cy="618" r="3" transform="rotate(-90 480 618)" fill="#F3F0EA"/>
<circle cx="480" cy="508" r="3" transform="rotate(-90 480 508)" fill="#F3F0EA"/>
<circle cx="480" cy="706" r="3" transform="rotate(-90 480 706)" fill="#F3F0EA"/>
<circle cx="480" cy="596" r="3" transform="rotate(-90 480 596)" fill="#F3F0EA"/>
<circle cx="480" cy="486" r="3" transform="rotate(-90 480 486)" fill="#F3F0EA"/>
<circle cx="480" cy="684" r="3" transform="rotate(-90 480 684)" fill="#F3F0EA"/>
<circle cx="480" cy="574" r="3" transform="rotate(-90 480 574)" fill="#F3F0EA"/>
<circle cx="480" cy="464" r="3" transform="rotate(-90 480 464)" fill="#F3F0EA"/>
<circle cx="69" cy="290" r="3" transform="rotate(-90 69 290)" fill="#F3F0EA"/>
<circle cx="69" cy="180" r="3" transform="rotate(-90 69 180)" fill="#F3F0EA"/>
<circle cx="69" cy="378" r="3" transform="rotate(-90 69 378)" fill="#F3F0EA"/>
<circle cx="69" cy="268" r="3" transform="rotate(-90 69 268)" fill="#F3F0EA"/>
<circle cx="69" cy="158" r="3" transform="rotate(-90 69 158)" fill="#F3F0EA"/>
<circle cx="69" cy="356" r="3" transform="rotate(-90 69 356)" fill="#F3F0EA"/>
<circle cx="69" cy="246" r="3" transform="rotate(-90 69 246)" fill="#F3F0EA"/>
<circle cx="69" cy="136" r="3" transform="rotate(-90 69 136)" fill="#F3F0EA"/>
<circle cx="69" cy="334" r="3" transform="rotate(-90 69 334)" fill="#F3F0EA"/>
<circle cx="69" cy="224" r="3" transform="rotate(-90 69 224)" fill="#F3F0EA"/>
<circle cx="69" cy="114" r="3" transform="rotate(-90 69 114)" fill="#F3F0EA"/>
<circle cx="69" cy="312" r="3" transform="rotate(-90 69 312)" fill="#F3F0EA"/>
<circle cx="69" cy="202" r="3" transform="rotate(-90 69 202)" fill="#F3F0EA"/>
<circle cx="69" cy="92" r="3" transform="rotate(-90 69 92)" fill="#F3F0EA"/>
<path d="M299.5 536.861C459.386 536.861 589 416.813 589 268.725C589 120.638 459.386 0.589722 299.5 0.589722C139.614 0.589722 10 120.638 10 268.725C10 416.813 139.614 536.861 299.5 536.861Z" fill="#D1E9E4"/>
<g clip-path="url(#clip0)">
<path d="M588.166 571.802H12.8338C12.6127 571.802 12.4006 571.714 12.2442 571.558C12.0878 571.401 12 571.189 12 570.968C12 570.747 12.0878 570.534 12.2442 570.378C12.4006 570.221 12.6127 570.134 12.8338 570.134H588.166C588.387 570.134 588.599 570.221 588.756 570.378C588.912 570.534 589 570.747 589 570.968C589 571.189 588.912 571.401 588.756 571.558C588.599 571.714 588.387 571.802 588.166 571.802Z" fill="#CCCCCC"/>
<path d="M531.22 426.315H192.691C191.254 426.315 189.875 426.886 188.859 427.903C187.842 428.92 187.271 430.299 187.271 431.737C187.271 433.175 187.842 434.555 188.859 435.572C189.875 436.588 191.254 437.16 192.691 437.16H202.28V566.879C202.28 568.317 202.851 569.696 203.868 570.713C204.884 571.73 206.263 572.301 207.7 572.301C209.137 572.301 210.516 571.73 211.532 570.713C212.549 569.696 213.12 568.317 213.12 566.879L213.202 437.16H509.958V566.879C509.958 568.317 510.529 569.696 511.545 570.713C512.562 571.73 513.94 572.301 515.378 572.301C516.815 572.301 518.194 571.73 519.21 570.713C520.226 569.696 520.797 568.317 520.797 566.879V440.019L522.374 437.16H531.22C532.658 437.16 534.036 436.588 535.053 435.572C536.069 434.555 536.64 433.175 536.64 431.737C536.64 430.299 536.069 428.92 535.053 427.903C534.036 426.886 532.658 426.315 531.22 426.315V426.315Z" fill="#CCCCCC"/>
<path d="M380.375 429.153H277.83C275.845 429.15 273.941 428.36 272.537 426.956C271.133 425.551 270.344 423.647 270.341 421.66V365.177C270.344 363.19 271.133 361.286 272.537 359.881C273.941 358.476 275.845 357.686 277.83 357.684H380.375C382.36 357.686 384.264 358.476 385.668 359.881C387.072 361.286 387.861 363.19 387.864 365.177V421.66C387.861 423.647 387.072 425.551 385.668 426.956C384.264 428.36 382.36 429.15 380.375 429.153V429.153Z" fill="#3F3D56"/>
<path d="M380.374 363.451H277.831C277.373 363.452 276.935 363.634 276.611 363.958C276.288 364.281 276.106 364.72 276.105 365.177V421.662C276.106 422.119 276.288 422.558 276.612 422.881C276.935 423.205 277.373 423.387 277.831 423.388H380.374C380.831 423.387 381.27 423.205 381.593 422.881C381.917 422.558 382.099 422.119 382.1 421.662V365.177C382.099 364.72 381.917 364.281 381.593 363.958C381.27 363.634 380.831 363.452 380.374 363.451V363.451Z" fill="white"/>
<path d="M337.848 403.441C337.848 403.441 325.573 400.611 318.821 405.799C312.069 410.988 327.414 422.779 327.414 422.779L337.848 403.441Z" fill="#2F2E41"/>
<path d="M329.704 398.094C336.099 398.094 341.283 392.907 341.283 386.509C341.283 380.111 336.099 374.925 329.704 374.925C323.309 374.925 318.125 380.111 318.125 386.509C318.125 392.907 323.309 398.094 329.704 398.094Z" fill="#A0616A"/>
<path d="M320.75 370.247C321.522 368.936 322.641 367.864 323.984 367.149C325.327 366.434 326.841 366.104 328.36 366.196C329.948 366.396 331.498 366.83 332.959 367.484L340.528 370.438C342.487 371.203 344.632 372.139 345.482 374.063C346.271 375.849 345.682 377.911 345.087 379.77L342.255 388.607C341.941 386.607 341.402 384.649 340.65 382.769C339.885 380.878 338.502 379.301 336.727 378.295C334.761 377.286 332.443 377.307 330.236 377.413C327.11 377.563 323.711 377.961 321.49 380.167C320.311 381.42 319.512 382.982 319.185 384.671C318.863 386.352 318.701 388.059 318.701 389.77C317.419 387.565 316.34 385.249 315.475 382.85C314.764 381.063 314.359 379.169 314.276 377.248C314.202 375.31 314.845 373.413 316.081 371.92C316.709 371.19 317.528 370.651 318.446 370.362C319.364 370.073 320.344 370.046 321.276 370.284L320.75 370.247Z" fill="#2F2E41"/>
<path d="M357.352 413.486C357.243 413.095 357.021 412.745 356.714 412.479C356.407 412.213 356.029 412.044 355.626 411.993C355.599 411.975 355.571 411.958 355.543 411.943L338.256 402.251C337.763 401.974 337.182 401.899 336.634 402.04C336.086 402.181 335.613 402.528 335.314 403.009L330.587 410.667L323.466 403.543L323.353 403.429C322.987 403.064 322.505 402.839 321.99 402.794C321.475 402.749 320.961 402.887 320.537 403.183L306.331 413.136C306.306 413.136 306.281 413.144 306.256 413.144C305.576 413.258 304.955 413.6 304.496 414.114C304.036 414.628 303.766 415.284 303.729 415.972L303.362 423.389H360.095L357.352 413.486Z" fill="#161616"/>
<path d="M389.016 422.236H378.07C378.07 421.931 377.949 421.638 377.733 421.421C377.516 421.205 377.223 421.084 376.918 421.084H373.461C373.156 421.084 372.863 421.205 372.647 421.421C372.431 421.638 372.309 421.931 372.309 422.236H368.853C368.853 421.931 368.731 421.638 368.515 421.421C368.299 421.205 368.006 421.084 367.7 421.084H364.244C363.938 421.084 363.645 421.205 363.429 421.421C363.213 421.638 363.092 421.931 363.092 422.236H359.635C359.635 421.931 359.514 421.638 359.298 421.421C359.082 421.205 358.789 421.084 358.483 421.084H355.026C354.721 421.084 354.428 421.205 354.212 421.421C353.996 421.638 353.874 421.931 353.874 422.236H350.418C350.418 421.931 350.296 421.638 350.08 421.421C349.864 421.205 349.571 421.084 349.266 421.084H345.809C345.503 421.084 345.21 421.205 344.994 421.421C344.778 421.638 344.657 421.931 344.657 422.236H341.2C341.2 421.931 341.079 421.638 340.863 421.421C340.647 421.205 340.354 421.084 340.048 421.084H336.592C336.286 421.084 335.993 421.205 335.777 421.421C335.561 421.638 335.439 421.931 335.439 422.236H331.983C331.983 421.931 331.861 421.638 331.645 421.421C331.429 421.205 331.136 421.084 330.831 421.084H327.374C327.069 421.084 326.775 421.205 326.559 421.421C326.343 421.638 326.222 421.931 326.222 422.236H322.765C322.765 421.931 322.644 421.638 322.428 421.421C322.212 421.205 321.919 421.084 321.613 421.084H318.157C317.851 421.084 317.558 421.205 317.342 421.421C317.126 421.638 317.004 421.931 317.004 422.236H313.548C313.548 421.931 313.427 421.638 313.21 421.421C312.994 421.205 312.701 421.084 312.396 421.084H308.939C308.634 421.084 308.341 421.205 308.124 421.421C307.908 421.638 307.787 421.931 307.787 422.236H304.33C304.33 421.931 304.209 421.638 303.993 421.421C303.777 421.205 303.484 421.084 303.178 421.084H299.722C299.416 421.084 299.123 421.205 298.907 421.421C298.691 421.638 298.57 421.931 298.57 422.236H295.113C295.113 421.931 294.992 421.638 294.776 421.421C294.559 421.205 294.266 421.084 293.961 421.084H290.504C290.199 421.084 289.906 421.205 289.69 421.421C289.474 421.638 289.352 421.931 289.352 422.236H285.896C285.896 421.931 285.774 421.638 285.558 421.421C285.342 421.205 285.049 421.084 284.743 421.084H281.287C280.981 421.084 280.688 421.205 280.472 421.421C280.256 421.638 280.135 421.931 280.135 422.236H269.189C268.273 422.238 267.395 422.603 266.748 423.251C266.101 423.9 265.738 424.778 265.738 425.695C265.738 426.611 266.101 427.49 266.748 428.138C267.395 428.786 268.273 429.151 269.189 429.153H389.016C389.933 429.153 390.812 428.788 391.46 428.14C392.108 427.491 392.472 426.612 392.472 425.695C392.472 424.777 392.108 423.898 391.46 423.249C390.812 422.601 389.933 422.236 389.016 422.236V422.236Z" fill="#3F3D56"/>
<path d="M251.371 402.154V425.116H193.869C192.328 425.17 190.793 424.912 189.354 424.36C187.915 423.807 186.602 422.97 185.493 421.898C184.384 420.827 183.502 419.543 182.9 418.123C182.297 416.704 181.987 415.177 181.987 413.635C181.987 412.093 182.297 410.566 182.9 409.147C183.502 407.727 184.384 406.443 185.493 405.372C186.602 404.3 187.915 403.463 189.354 402.91C190.793 402.358 192.328 402.1 193.869 402.154H251.371Z" fill="#F2F2F2"/>
<path d="M252.783 424.939C252.783 425.174 252.69 425.398 252.525 425.564C252.359 425.729 252.135 425.822 251.901 425.823H192.845C189.638 425.823 186.562 424.548 184.294 422.279C182.026 420.01 180.751 416.932 180.751 413.723C180.751 410.514 182.026 407.437 184.294 405.168C186.562 402.899 189.638 401.624 192.845 401.624H251.901C252.135 401.624 252.359 401.717 252.525 401.883C252.69 402.048 252.783 402.273 252.783 402.507C252.783 402.741 252.69 402.966 252.525 403.132C252.359 403.297 252.135 403.39 251.901 403.39H192.845C190.107 403.393 187.483 404.483 185.548 406.42C183.613 408.358 182.526 410.984 182.526 413.723C182.526 416.462 183.613 419.089 185.548 421.026C187.483 422.964 190.107 424.054 192.845 424.056H251.901C252.135 424.056 252.359 424.149 252.525 424.315C252.69 424.481 252.783 424.705 252.783 424.939V424.939Z" fill="#161616"/>
<path d="M251.371 407.453H189.579C189.555 407.453 189.532 407.448 189.511 407.44C189.489 407.431 189.47 407.418 189.453 407.401C189.436 407.385 189.423 407.366 189.414 407.344C189.405 407.323 189.401 407.299 189.401 407.276C189.401 407.253 189.405 407.23 189.414 407.208C189.423 407.187 189.436 407.167 189.453 407.151C189.47 407.134 189.489 407.121 189.511 407.113C189.532 407.104 189.555 407.099 189.579 407.099H251.371C251.417 407.1 251.462 407.119 251.495 407.152C251.528 407.185 251.546 407.23 251.546 407.276C251.546 407.323 251.528 407.368 251.495 407.401C251.462 407.434 251.417 407.452 251.371 407.453V407.453Z" fill="#CCCCCC"/>
<path d="M251.371 411.692H189.579C189.555 411.692 189.532 411.688 189.511 411.679C189.489 411.67 189.47 411.657 189.453 411.641C189.436 411.624 189.423 411.605 189.414 411.583C189.405 411.562 189.401 411.539 189.401 411.515C189.401 411.492 189.405 411.469 189.414 411.447C189.423 411.426 189.436 411.406 189.453 411.39C189.47 411.374 189.489 411.361 189.511 411.352C189.532 411.343 189.555 411.339 189.579 411.339H251.371C251.417 411.339 251.462 411.358 251.495 411.391C251.528 411.424 251.546 411.469 251.546 411.515C251.546 411.562 251.528 411.607 251.495 411.64C251.462 411.673 251.417 411.692 251.371 411.692V411.692Z" fill="#CCCCCC"/>
<path d="M251.371 415.931H189.579C189.555 415.931 189.532 415.927 189.511 415.918C189.489 415.909 189.47 415.896 189.453 415.88C189.436 415.863 189.423 415.844 189.414 415.822C189.405 415.801 189.401 415.778 189.401 415.755C189.401 415.731 189.405 415.708 189.414 415.687C189.423 415.665 189.436 415.646 189.453 415.629C189.47 415.613 189.489 415.6 189.511 415.591C189.532 415.582 189.555 415.578 189.579 415.578H251.371C251.417 415.578 251.462 415.597 251.495 415.63C251.528 415.663 251.546 415.708 251.546 415.755C251.546 415.801 251.528 415.846 251.495 415.879C251.462 415.912 251.417 415.931 251.371 415.931V415.931Z" fill="#CCCCCC"/>
<path d="M251.371 420.17H189.579C189.555 420.17 189.532 420.166 189.511 420.157C189.489 420.148 189.47 420.135 189.453 420.119C189.436 420.103 189.423 420.083 189.414 420.062C189.405 420.04 189.401 420.017 189.401 419.994C189.401 419.97 189.405 419.947 189.414 419.926C189.423 419.904 189.436 419.885 189.453 419.868C189.47 419.852 189.489 419.839 189.511 419.83C189.532 419.821 189.555 419.817 189.579 419.817H251.371C251.417 419.817 251.462 419.836 251.495 419.869C251.528 419.902 251.546 419.947 251.546 419.994C251.546 420.04 251.528 420.085 251.495 420.118C251.462 420.151 251.417 420.17 251.371 420.17Z" fill="#CCCCCC"/>
<path d="M240.531 377.962V400.924H183.029C181.489 400.978 179.953 400.721 178.514 400.168C177.075 399.615 175.762 398.778 174.653 397.706C173.544 396.635 172.662 395.351 172.06 393.931C171.458 392.512 171.147 390.985 171.147 389.443C171.147 387.901 171.458 386.374 172.06 384.955C172.662 383.535 173.544 382.251 174.653 381.18C175.762 380.108 177.075 379.271 178.514 378.718C179.953 378.166 181.489 377.908 183.029 377.962H240.531Z" fill="#F2F2F2"/>
<path d="M241.944 400.747C241.944 400.982 241.851 401.206 241.685 401.372C241.52 401.537 241.295 401.63 241.061 401.631H182.005C180.417 401.631 178.845 401.318 177.377 400.71C175.91 400.101 174.577 399.21 173.454 398.087C172.331 396.963 171.44 395.629 170.832 394.161C170.225 392.694 169.912 391.12 169.912 389.531C169.912 387.942 170.225 386.369 170.832 384.901C171.44 383.433 172.331 382.099 173.454 380.976C174.577 379.852 175.91 378.961 177.377 378.353C178.845 377.745 180.417 377.432 182.005 377.432H241.061C241.295 377.432 241.52 377.525 241.685 377.691C241.851 377.856 241.944 378.081 241.944 378.315C241.944 378.549 241.851 378.774 241.685 378.94C241.52 379.105 241.295 379.198 241.061 379.198H182.005C179.268 379.201 176.643 380.291 174.708 382.228C172.773 384.166 171.687 386.792 171.687 389.531C171.687 392.27 172.773 394.897 174.708 396.835C176.643 398.772 179.268 399.862 182.005 399.864H241.061C241.295 399.864 241.52 399.957 241.685 400.123C241.851 400.289 241.944 400.513 241.944 400.747V400.747Z" fill="#3F3D56"/>
<path d="M240.531 383.261H178.739C178.716 383.261 178.693 383.256 178.671 383.248C178.65 383.239 178.63 383.226 178.613 383.209C178.597 383.193 178.584 383.173 178.575 383.152C178.566 383.13 178.561 383.107 178.561 383.084C178.561 383.061 178.566 383.038 178.575 383.016C178.584 382.995 178.597 382.975 178.613 382.959C178.63 382.942 178.65 382.929 178.671 382.921C178.693 382.912 178.716 382.907 178.739 382.907H240.531C240.578 382.908 240.622 382.927 240.655 382.96C240.688 382.993 240.707 383.037 240.707 383.084C240.707 383.131 240.688 383.175 240.655 383.209C240.622 383.242 240.578 383.26 240.531 383.261V383.261Z" fill="#CCCCCC"/>
<path d="M240.531 387.5H178.739C178.716 387.5 178.693 387.496 178.671 387.487C178.65 387.478 178.63 387.465 178.613 387.449C178.597 387.432 178.584 387.413 178.575 387.391C178.566 387.37 178.561 387.347 178.561 387.323C178.561 387.3 178.566 387.277 178.575 387.255C178.584 387.234 178.597 387.214 178.613 387.198C178.63 387.182 178.65 387.169 178.671 387.16C178.693 387.151 178.716 387.147 178.739 387.147H240.531C240.578 387.147 240.622 387.166 240.655 387.199C240.688 387.232 240.707 387.277 240.707 387.323C240.707 387.37 240.688 387.415 240.655 387.448C240.622 387.481 240.578 387.5 240.531 387.5V387.5Z" fill="#CCCCCC"/>
<path d="M240.531 391.739H178.739C178.716 391.739 178.693 391.735 178.671 391.726C178.65 391.717 178.63 391.704 178.613 391.688C178.597 391.671 178.584 391.652 178.575 391.63C178.566 391.609 178.561 391.586 178.561 391.563C178.561 391.539 178.566 391.516 178.575 391.495C178.584 391.473 178.597 391.454 178.613 391.437C178.63 391.421 178.65 391.408 178.671 391.399C178.693 391.39 178.716 391.386 178.739 391.386H240.531C240.578 391.386 240.622 391.405 240.655 391.438C240.688 391.471 240.707 391.516 240.707 391.563C240.707 391.609 240.688 391.654 240.655 391.687C240.622 391.72 240.578 391.739 240.531 391.739V391.739Z" fill="#CCCCCC"/>
<path d="M240.531 395.978H178.739C178.716 395.979 178.693 395.974 178.671 395.965C178.65 395.956 178.63 395.944 178.613 395.927C178.597 395.911 178.584 395.891 178.575 395.87C178.566 395.848 178.561 395.825 178.561 395.802C178.561 395.778 178.566 395.755 178.575 395.734C178.584 395.712 178.597 395.693 178.613 395.676C178.63 395.66 178.65 395.647 178.671 395.638C178.693 395.629 178.716 395.625 178.739 395.625H240.531C240.578 395.625 240.622 395.644 240.655 395.677C240.688 395.71 240.707 395.755 240.707 395.802C240.707 395.848 240.688 395.893 240.655 395.926C240.622 395.959 240.578 395.978 240.531 395.978Z" fill="#CCCCCC"/>
<path d="M307.423 506.734V486.713C307.423 485.828 307.072 484.979 306.446 484.354C305.821 483.728 304.972 483.376 304.088 483.376H228.211C227.326 483.376 226.478 483.728 225.852 484.354C225.227 484.979 224.876 485.828 224.875 486.713V506.734H307.423Z" fill="#CCCCCC"/>
<path d="M307.423 514.242H224.876V540.102H307.423V514.242Z" fill="#CCCCCC"/>
<path d="M224.875 547.61V567.631C224.876 568.516 225.227 569.365 225.852 569.99C226.478 570.616 227.326 570.968 228.211 570.968H304.088C304.972 570.968 305.821 570.616 306.446 569.99C307.072 569.365 307.423 568.516 307.423 567.631V547.61H224.875Z" fill="#CCCCCC"/>
<path d="M265.732 498.392C267.114 498.392 268.234 497.271 268.234 495.889C268.234 494.507 267.114 493.387 265.732 493.387C264.351 493.387 263.231 494.507 263.231 495.889C263.231 497.271 264.351 498.392 265.732 498.392Z" fill="white"/>
<path d="M265.732 531.76C267.114 531.76 268.234 530.64 268.234 529.257C268.234 527.875 267.114 526.755 265.732 526.755C264.351 526.755 263.231 527.875 263.231 529.257C263.231 530.64 264.351 531.76 265.732 531.76Z" fill="white"/>
<path d="M265.867 564.422C267.248 564.422 268.368 563.301 268.368 561.919C268.368 560.537 267.248 559.417 265.867 559.417C264.485 559.417 263.365 560.537 263.365 561.919C263.365 563.301 264.485 564.422 265.867 564.422Z" fill="white"/>
<path d="M298.064 460.548V483.511H240.563C239.022 483.564 237.486 483.307 236.047 482.754C234.608 482.201 233.295 481.364 232.186 480.293C231.077 479.221 230.196 477.937 229.593 476.518C228.991 475.098 228.681 473.572 228.681 472.029C228.681 470.487 228.991 468.961 229.593 467.541C230.196 466.121 231.077 464.838 232.186 463.766C233.295 462.695 234.608 461.858 236.047 461.305C237.486 460.752 239.022 460.495 240.563 460.548H298.064Z" fill="#F2F2F2"/>
<path d="M299.477 483.334C299.477 483.568 299.384 483.793 299.218 483.958C299.053 484.124 298.828 484.217 298.594 484.217H239.538C237.949 484.218 236.376 483.906 234.907 483.299C233.439 482.691 232.105 481.8 230.98 480.677C229.856 479.553 228.965 478.219 228.356 476.75C227.748 475.282 227.435 473.707 227.435 472.118C227.435 470.528 227.748 468.954 228.356 467.485C228.965 466.017 229.856 464.682 230.98 463.559C232.105 462.435 233.439 461.544 234.907 460.937C236.376 460.329 237.949 460.017 239.538 460.018H298.594C298.828 460.018 299.053 460.111 299.218 460.277C299.384 460.443 299.477 460.667 299.477 460.902C299.477 461.136 299.384 461.36 299.218 461.526C299.053 461.692 298.828 461.785 298.594 461.785H239.538C236.801 461.787 234.176 462.877 232.241 464.814C230.306 466.752 229.22 469.379 229.22 472.118C229.22 474.857 230.306 477.483 232.241 479.421C234.176 481.358 236.801 482.448 239.538 482.451H298.594C298.828 482.451 299.053 482.544 299.218 482.709C299.384 482.875 299.477 483.1 299.477 483.334V483.334Z" fill="#3F3D56"/>
<path d="M298.065 465.847H236.272C236.249 465.847 236.226 465.843 236.205 465.834C236.183 465.825 236.163 465.812 236.147 465.796C236.13 465.779 236.117 465.76 236.108 465.738C236.099 465.717 236.095 465.694 236.095 465.671C236.095 465.647 236.099 465.624 236.108 465.603C236.117 465.581 236.13 465.562 236.147 465.545C236.163 465.529 236.183 465.516 236.205 465.507C236.226 465.498 236.249 465.494 236.272 465.494H298.065C298.111 465.494 298.156 465.513 298.189 465.546C298.222 465.579 298.24 465.624 298.24 465.671C298.24 465.717 298.222 465.762 298.189 465.795C298.156 465.828 298.111 465.847 298.065 465.847V465.847Z" fill="#CCCCCC"/>
<path d="M298.065 470.086H236.272C236.249 470.087 236.226 470.082 236.205 470.073C236.183 470.065 236.163 470.052 236.147 470.035C236.13 470.019 236.117 469.999 236.108 469.978C236.099 469.956 236.095 469.933 236.095 469.91C236.095 469.886 236.099 469.863 236.108 469.842C236.117 469.82 236.13 469.801 236.147 469.784C236.163 469.768 236.183 469.755 236.205 469.746C236.226 469.737 236.249 469.733 236.272 469.733H298.065C298.111 469.733 298.156 469.752 298.189 469.785C298.222 469.818 298.24 469.863 298.24 469.91C298.24 469.956 298.222 470.001 298.189 470.034C298.156 470.067 298.111 470.086 298.065 470.086V470.086Z" fill="#CCCCCC"/>
<path d="M298.065 474.326H236.272C236.249 474.326 236.226 474.321 236.205 474.312C236.183 474.304 236.163 474.291 236.147 474.274C236.13 474.258 236.117 474.238 236.108 474.217C236.099 474.195 236.095 474.172 236.095 474.149C236.095 474.126 236.099 474.103 236.108 474.081C236.117 474.06 236.13 474.04 236.147 474.024C236.163 474.007 236.183 473.994 236.205 473.985C236.226 473.977 236.249 473.972 236.272 473.972H298.065C298.111 473.973 298.156 473.991 298.189 474.024C298.222 474.058 298.24 474.102 298.24 474.149C298.24 474.196 298.222 474.24 298.189 474.273C298.156 474.306 298.111 474.325 298.065 474.326V474.326Z" fill="#CCCCCC"/>
<path d="M298.065 478.565H236.272C236.249 478.565 236.226 478.56 236.205 478.552C236.183 478.543 236.163 478.53 236.147 478.513C236.13 478.497 236.117 478.477 236.108 478.456C236.099 478.434 236.095 478.411 236.095 478.388C236.095 478.365 236.099 478.342 236.108 478.32C236.117 478.299 236.13 478.279 236.147 478.263C236.163 478.246 236.183 478.233 236.205 478.225C236.226 478.216 236.249 478.211 236.272 478.211H298.065C298.111 478.212 298.156 478.231 298.189 478.264C298.222 478.297 298.24 478.341 298.24 478.388C298.24 478.435 298.222 478.48 298.189 478.513C298.156 478.546 298.111 478.564 298.065 478.565V478.565Z" fill="#CCCCCC"/>
<path d="M220.546 310.678V164.274C220.548 162.611 221.209 161.016 222.385 159.84C223.561 158.664 225.155 158.002 226.817 158H342.491C344.154 158.002 345.748 158.664 346.924 159.84C348.099 161.016 348.761 162.611 348.763 164.274V310.678C348.761 312.341 348.099 313.936 346.924 315.112C345.748 316.288 344.154 316.95 342.491 316.952H226.817C225.155 316.95 223.561 316.288 222.385 315.112C221.209 313.936 220.548 312.341 220.546 310.678V310.678ZM226.817 159.394C225.524 159.396 224.284 159.91 223.37 160.825C222.455 161.74 221.941 162.981 221.94 164.274V310.678C221.941 311.971 222.455 313.212 223.37 314.127C224.284 315.042 225.524 315.556 226.817 315.558H342.491C343.785 315.556 345.024 315.042 345.939 314.127C346.853 313.212 347.368 311.971 347.369 310.678V164.274C347.368 162.981 346.853 161.74 345.939 160.825C345.024 159.91 343.785 159.396 342.491 159.394H226.817Z" fill="#E6E6E6"/>
<path d="M291.141 225.235V195.174C291.142 194.342 291.472 193.545 292.06 192.957C292.648 192.368 293.445 192.038 294.277 192.037H319.739C320.57 192.038 321.367 192.368 321.955 192.957C322.543 193.545 322.874 194.342 322.875 195.174V225.235C322.874 226.067 322.543 226.864 321.955 227.452C321.367 228.04 320.57 228.371 319.739 228.372H294.277C293.445 228.371 292.648 228.04 292.06 227.452C291.472 226.864 291.142 226.067 291.141 225.235V225.235Z" fill="#161616"/>
<path d="M241.666 239.178V209.117C241.667 208.285 241.997 207.488 242.585 206.9C243.173 206.312 243.97 205.981 244.802 205.98H270.264C271.095 205.981 271.892 206.312 272.48 206.9C273.068 207.488 273.399 208.285 273.399 209.117V239.178C273.399 240.01 273.068 240.808 272.48 241.396C271.892 241.984 271.095 242.315 270.264 242.316H244.802C243.97 242.315 243.173 241.984 242.585 241.396C241.997 240.808 241.667 240.01 241.666 239.178V239.178Z" fill="#CCCCCC"/>
<path d="M281.385 281.705V251.644C281.386 250.812 281.717 250.014 282.305 249.426C282.893 248.838 283.69 248.507 284.521 248.506H309.983C310.815 248.507 311.612 248.838 312.199 249.426C312.787 250.014 313.118 250.812 313.119 251.644V281.705C313.118 282.537 312.787 283.334 312.199 283.922C311.612 284.51 310.815 284.841 309.983 284.842H284.521C283.69 284.841 282.893 284.51 282.305 283.922C281.717 283.334 281.386 282.537 281.385 281.705V281.705Z" fill="#FF6584"/>
<path d="M433.546 419.142H407.348C407.099 419.142 406.854 419.199 406.631 419.309L400.018 422.621C399.801 422.714 399.615 422.868 399.485 423.065C399.354 423.263 399.285 423.494 399.285 423.731C399.285 423.967 399.354 424.198 399.485 424.396C399.615 424.593 399.801 424.748 400.018 424.84L406.631 428.152C406.854 428.262 407.099 428.319 407.348 428.319H433.546C433.907 428.34 434.262 428.217 434.533 427.978C434.805 427.74 434.971 427.403 434.997 427.042V420.419C434.971 420.058 434.805 419.722 434.533 419.483C434.262 419.244 433.907 419.122 433.546 419.142Z" fill="#3F3D56"/>
<path d="M434.997 420.419V427.042C434.971 427.403 434.805 427.739 434.533 427.978C434.262 428.217 433.907 428.339 433.546 428.319H428.326V419.142H433.546C433.907 419.121 434.262 419.244 434.533 419.483C434.805 419.721 434.971 420.058 434.997 420.419V420.419Z" fill="#161616"/>
<path d="M433.349 369.59C434.536 369.078 435.817 368.822 437.109 368.84C438.402 368.858 439.676 369.148 440.848 369.693C442.02 370.237 443.064 371.024 443.911 372C444.759 372.976 445.39 374.121 445.765 375.359C445.881 375.751 445.971 376.151 446.032 376.556L482.668 394.731L491.146 389.11L501.696 401.261L488.75 411.78C487.193 413.035 485.273 413.754 483.275 413.831C481.277 413.909 479.308 413.339 477.659 412.208L440.488 386.491C440.212 386.608 439.929 386.711 439.642 386.799C438.405 387.174 437.103 387.282 435.82 387.118C434.538 386.954 433.305 386.52 432.203 385.846C431.1 385.172 430.151 384.272 429.42 383.206C428.689 382.139 428.191 380.93 427.96 379.658C427.891 379.289 427.846 378.915 427.824 378.541C427.721 376.663 428.195 374.798 429.183 373.198C430.171 371.598 431.625 370.339 433.349 369.59V369.59Z" fill="#FFB8B8"/>
<path d="M509.655 481.498H469.624C469.624 482.649 428.367 483.584 428.367 483.584C427.719 484.071 427.129 484.631 426.607 485.252C425.04 487.122 424.184 489.485 424.189 491.926V493.594C424.19 496.359 425.288 499.011 427.243 500.966C429.197 502.922 431.848 504.021 434.612 504.022H509.655C512.418 504.019 515.068 502.92 517.022 500.965C518.976 499.01 520.075 496.359 520.078 493.594V491.926C520.074 489.161 518.974 486.511 517.021 484.556C515.067 482.602 512.418 481.502 509.655 481.498V481.498Z" fill="#3F3D56"/>
<path d="M466.11 573.681H476.95V503.607H466.11V573.681Z" fill="#3F3D56"/>
<path d="M435.259 573.3C435.259 574.471 451.685 573.753 471.947 573.753C492.209 573.753 508.635 574.471 508.635 573.3C508.635 572.128 492.209 562.836 471.947 562.836C451.685 562.836 435.259 572.128 435.259 573.3Z" fill="#3F3D56"/>
<path d="M445.044 565.086L434.823 565.086L429.959 538.56L445.046 538.561L445.044 565.086Z" fill="#FFB8B8"/>
<path d="M447.652 575L414.69 574.999V574.582C414.69 572.896 415.022 571.227 415.667 569.67C416.312 568.112 417.257 566.697 418.448 565.506C419.639 564.314 421.054 563.368 422.61 562.723C424.167 562.078 425.835 561.746 427.52 561.746H427.521L447.652 561.747L447.652 575Z" fill="#2F2E41"/>
<path d="M429.755 548.638L409.376 502.917C407.674 499.063 407.486 494.71 408.849 490.724C410.212 486.738 413.025 483.411 416.729 481.408L460.932 457.693L481.103 455.976L499.71 454.284L499.844 454.512C500.015 454.802 504.016 461.715 501.312 469.295C499.261 475.045 493.925 479.536 485.454 482.644C465.68 489.898 442.838 496.097 433.935 498.426C433.542 498.526 433.174 498.709 432.856 498.962C432.538 499.215 432.278 499.533 432.091 499.894C431.905 500.251 431.794 500.642 431.765 501.044C431.737 501.446 431.793 501.849 431.928 502.229L450.861 544.785C451.059 545.325 451.13 545.903 451.069 546.475C451.008 547.046 450.817 547.596 450.51 548.082C450.203 548.568 449.789 548.977 449.299 549.277C448.809 549.578 448.257 549.762 447.685 549.815L433.538 550.845C433.417 550.857 433.298 550.863 433.179 550.863C432.454 550.862 431.745 550.652 431.138 550.257C430.53 549.862 430.05 549.3 429.755 548.638V548.638Z" fill="#2F2E41"/>
<path d="M450.047 565.086L439.826 565.086L434.962 538.56L450.049 538.561L450.047 565.086Z" fill="#FFB8B8"/>
<path d="M452.655 575L419.693 574.999V574.582C419.693 572.896 420.025 571.227 420.67 569.67C421.315 568.112 422.26 566.697 423.451 565.506C424.642 564.314 426.057 563.368 427.613 562.723C429.17 562.078 430.838 561.746 432.523 561.746H432.524L452.655 561.747L452.655 575Z" fill="#2F2E41"/>
<path d="M435.592 551.14L415.213 505.419C413.511 501.566 413.323 497.213 414.686 493.227C416.049 489.24 418.862 485.914 422.566 483.91L466.769 460.196L486.94 458.479L505.547 456.787L505.681 457.014C505.852 457.304 509.853 464.218 507.149 471.798C505.097 477.548 499.762 482.039 491.29 485.147C471.517 492.401 448.675 498.6 439.772 500.928C439.379 501.029 439.011 501.212 438.693 501.465C438.375 501.718 438.115 502.035 437.928 502.396C437.742 502.753 437.631 503.145 437.602 503.547C437.574 503.948 437.629 504.352 437.765 504.731L456.698 547.288C456.895 547.828 456.967 548.406 456.906 548.977C456.845 549.549 456.654 550.099 456.347 550.585C456.04 551.071 455.626 551.48 455.136 551.78C454.646 552.081 454.094 552.264 453.521 552.318L439.375 553.348C439.254 553.359 439.135 553.365 439.016 553.365C438.291 553.365 437.582 553.155 436.975 552.76C436.367 552.365 435.887 551.802 435.592 551.14V551.14Z" fill="#2F2E41"/>
<path d="M425.434 411.469C416.871 400.072 410.101 387.432 405.36 373.986C405.085 373.182 405.105 372.306 405.415 371.515C405.725 370.724 406.306 370.069 407.054 369.666L436.359 353.956C436.833 353.7 437.359 353.556 437.897 353.534C438.436 353.512 438.972 353.613 439.465 353.83C439.968 354.048 440.414 354.379 440.769 354.796C441.125 355.213 441.381 355.705 441.517 356.236C444.928 369.192 451.34 381.164 460.233 391.181C460.599 391.589 460.867 392.075 461.017 392.602C461.167 393.129 461.195 393.684 461.099 394.223C461.006 394.754 460.793 395.257 460.477 395.693C460.16 396.13 459.749 396.488 459.273 396.741L429.968 412.451C429.219 412.85 428.352 412.971 427.521 412.791C426.691 412.612 425.952 412.143 425.434 411.469V411.469Z" fill="#CCCCCC"/>
<path d="M427.434 409.965C427.592 410.162 427.813 410.298 428.06 410.349C428.307 410.4 428.564 410.363 428.786 410.245L458.091 394.535C458.234 394.461 458.357 394.355 458.451 394.225C458.546 394.095 458.609 393.945 458.635 393.787C458.666 393.62 458.657 393.448 458.61 393.284C458.563 393.121 458.479 392.971 458.364 392.846C449.209 382.533 442.609 370.209 439.098 356.871C439.057 356.706 438.979 356.553 438.869 356.423C438.759 356.294 438.621 356.191 438.465 356.124C438.319 356.058 438.159 356.028 437.998 356.034C437.837 356.041 437.68 356.085 437.54 356.162L408.235 371.872C408.013 371.992 407.84 372.186 407.746 372.42C407.652 372.654 407.642 372.914 407.719 373.154C412.375 386.359 419.024 398.773 427.434 409.965V409.965Z" fill="white"/>
<path d="M522.789 407.278L499.838 416.003L494.235 400.432C493.491 398.364 493.502 396.1 494.265 394.039C495.028 391.978 496.495 390.254 498.406 389.17V389.17C500.339 388.074 502.6 387.706 504.781 388.132C506.962 388.558 508.919 389.75 510.298 391.493L522.789 407.278Z" fill="#161616"/>
<path d="M464.414 468.976C463.931 468.634 463.526 468.193 463.226 467.683C462.927 467.172 462.739 466.604 462.676 466.016C459.737 438.562 461.784 417.078 468.935 400.334C470.194 397.447 472.092 394.882 474.484 392.833C476.877 390.784 479.702 389.305 482.749 388.506L501.301 387.569L501.397 387.615C505.583 389.667 508.997 393.013 511.133 397.159C513.268 401.304 514.012 406.028 513.253 410.63C507.286 426.366 502.29 442.749 506.1 455.966C506.26 456.518 506.306 457.097 506.237 457.668C506.168 458.239 505.984 458.79 505.697 459.289C505.418 459.77 505.044 460.189 504.597 460.521C504.15 460.852 503.64 461.088 503.099 461.215L467.763 469.624C467.191 469.761 466.596 469.773 466.018 469.661C465.441 469.55 464.894 469.316 464.414 468.976Z" fill="#161616"/>
<path d="M495.109 380.636C506.42 380.636 515.589 371.463 515.589 360.147C515.589 348.832 506.42 339.658 495.109 339.658C483.799 339.658 474.63 348.832 474.63 360.147C474.63 371.463 483.799 380.636 495.109 380.636Z" fill="#FFB8B8"/>
<path d="M438.282 376.375L422.322 383.424C421.715 383.691 421.027 383.707 420.408 383.467C419.79 383.227 419.292 382.752 419.023 382.145L418.628 381.25C418.361 380.643 418.346 379.955 418.585 379.336C418.825 378.717 419.3 378.219 419.907 377.95L435.867 370.902C436.474 370.634 437.162 370.619 437.781 370.859C438.399 371.098 438.897 371.574 439.166 372.18L439.561 373.075C439.828 373.682 439.843 374.371 439.604 374.99C439.364 375.608 438.889 376.107 438.282 376.375V376.375Z" fill="#CCCCCC"/>
<path d="M444.119 387.22L428.158 394.269C427.551 394.536 426.863 394.551 426.245 394.312C425.626 394.072 425.128 393.596 424.86 392.99L424.465 392.095C424.198 391.488 424.182 390.799 424.422 390.181C424.662 389.562 425.137 389.064 425.743 388.795L441.704 381.746C442.311 381.479 442.999 381.464 443.618 381.703C444.236 381.943 444.734 382.418 445.003 383.025L445.397 383.92C445.664 384.527 445.68 385.216 445.44 385.834C445.201 386.453 444.725 386.951 444.119 387.22V387.22Z" fill="#CCCCCC"/>
<path d="M456.428 429.578L420.845 401.494C420.562 401.594 420.273 401.679 419.981 401.749C418.725 402.043 417.422 402.069 416.155 401.826C414.888 401.583 413.687 401.076 412.629 400.338C411.564 399.6 410.669 398.642 410.003 397.529C409.338 396.417 408.918 395.175 408.771 393.887C408.533 391.828 408.996 389.748 410.088 387.986C411.179 386.223 412.833 384.882 414.782 384.178C415.999 383.742 417.294 383.567 418.582 383.666C419.871 383.765 421.124 384.135 422.26 384.753C423.395 385.37 424.388 386.22 425.172 387.248C425.957 388.276 426.515 389.458 426.811 390.716C426.903 391.115 426.966 391.52 427.002 391.928L462.424 412.372L471.238 407.294L481.003 420.084L467.317 429.844C465.715 430.977 463.79 431.563 461.828 431.515C459.867 431.468 457.973 430.788 456.428 429.578V429.578Z" fill="#FFB8B8"/>
<path d="M485.345 424.068L465.043 410.255L474.584 396.735C475.851 394.94 477.711 393.651 479.837 393.095C481.962 392.54 484.215 392.753 486.198 393.699V393.699C488.204 394.655 489.802 396.298 490.703 398.33C491.604 400.362 491.75 402.65 491.113 404.779L485.345 424.068Z" fill="#161616"/>
<path d="M487.601 357.096C482.337 360.7 475.426 364.405 470.05 360.567C466.52 358.046 465.408 353.38 466.839 349.284C469.413 341.919 476.486 338.677 483.249 336.192C492.041 332.961 501.614 330.39 510.691 332.704C519.767 335.018 527.789 343.81 526.15 353.036C524.833 360.456 517.837 366.63 518.83 374.1C519.83 381.618 528.28 385.575 535.741 386.918C543.202 388.262 551.551 388.694 556.912 394.055C563.752 400.895 562.044 413.12 555.608 420.341C549.172 427.562 539.46 430.835 530.049 433.06C517.579 436.009 504.093 437.558 492.25 432.665C480.407 427.772 471.192 414.601 474.622 402.25C476.071 397.033 479.485 392.624 482.784 388.332C486.083 384.039 489.424 379.551 490.682 374.285C491.731 369.896 490.955 364.801 488.046 361.509C487.517 360.933 487.184 360.204 487.095 359.426C487.006 358.649 487.165 357.863 487.55 357.182L487.601 357.096Z" fill="#2F2E41"/>
<path d="M102.946 456.644C97.6689 458.5 92.003 458.965 86.4941 457.994C80.9853 457.023 75.8192 454.649 71.4936 451.101C60.4772 441.851 57.0233 426.61 54.2129 412.498C51.4421 398.585 48.6712 384.672 45.9004 370.758L63.3035 382.747C75.8188 391.369 88.616 400.267 97.2815 412.754C105.947 425.242 109.73 442.29 102.767 455.802" fill="#E6E6E6"/>
<path d="M101.459 507.179C103.22 494.343 105.031 481.342 103.796 468.368C102.698 456.846 99.1847 445.592 92.0314 436.364C88.2345 431.476 83.6143 427.287 78.3787 423.987C77.0134 423.125 75.7568 425.289 77.1161 426.148C86.1753 431.876 93.1823 440.334 97.1268 450.303C101.483 461.39 102.183 473.474 101.432 485.251C100.978 492.373 100.016 499.448 99.0464 506.514C98.9699 506.834 99.0176 507.17 99.1798 507.456C99.3419 507.742 99.6065 507.955 99.9199 508.053C100.24 508.14 100.581 508.096 100.869 507.932C101.157 507.769 101.369 507.498 101.458 507.179H101.459Z" fill="#F2F2F2"/>
<path d="M84.4929 484.465C82.2296 487.907 79.1186 490.707 75.4596 492.596C71.8006 494.486 67.7168 495.401 63.6019 495.253C53.0265 494.75 44.21 487.366 36.2735 480.355L12.7988 459.619L28.3351 458.875C39.5079 458.34 50.969 457.841 61.6107 461.289C72.2524 464.736 82.0667 473.032 84.0126 484.052" fill="#E6E6E6"/>
<path d="M106.436 514.558C97.9582 499.55 88.1244 482.87 70.5532 477.539C65.6675 476.061 60.5446 475.532 55.4602 475.98C53.8578 476.118 54.258 478.589 55.8575 478.451C64.3799 477.743 72.8859 479.995 79.9435 484.826C86.7348 489.451 92.0226 495.881 96.4981 502.699C99.2395 506.876 101.695 511.23 104.151 515.578C104.936 516.967 107.23 515.964 106.436 514.558V514.558Z" fill="#F2F2F2"/>
<path d="M120.021 530.356C119.735 527.044 118.546 523.875 116.585 521.192C114.623 518.51 111.963 516.417 108.895 515.142V506.466H94.3493V515.416C91.4321 516.753 88.9216 518.84 87.0736 521.465C85.2256 524.089 84.1063 527.157 83.8298 530.356L80.4094 570.134H123.441L120.021 530.356Z" fill="#F2F2F2"/>
</g>
<defs>
<clipPath id="clip0">
<rect width="577" height="417" fill="white" transform="translate(12 158)"/>
</clipPath>
</defs>
</svg>
