<svg width="1051" height="312" viewBox="0 0 1051 312" fill="none" xmlns="http://www.w3.org/2000/svg">
<path d="M339.6 236.96L338.32 236.16C338.213 236.267 338.107 236.373 338 236.48C337.467 236.907 337.467 237.387 338 237.92C337.787 237.813 337.52 237.653 337.2 237.44C336.987 237.227 336.773 237.013 336.56 236.8C336.453 236.587 336.24 236.48 335.92 236.48C335.707 236.587 335.44 236.8 335.12 237.12C335.547 237.333 335.92 237.493 336.24 237.6C336.027 237.6 335.813 237.6 335.6 237.6C335.387 237.707 335.227 237.76 335.12 237.76C334.8 237.76 334.32 238.187 333.68 239.04C333.68 239.36 333.52 239.52 333.2 239.52C331.067 239.52 329.733 239.413 329.2 239.2C328.453 238.773 327.6 238.453 326.64 238.24C325.36 238.133 324.613 237.28 324.4 235.68C324.08 233.973 323.547 232.48 322.8 231.2C322.48 230.667 322.427 230.24 322.64 229.92C323.387 227.467 323.867 223.733 324.08 218.72C324.08 218.293 324.08 217.333 324.08 215.84C324.187 214.347 324.293 213.227 324.4 212.48C324.4 212.053 324.453 211.413 324.56 210.56C324.773 209.707 324.88 209.12 324.88 208.8C321.147 209.333 319.067 209.6 318.64 209.6C317.573 209.707 316.4 209.813 315.12 209.92C313.947 209.92 312.613 209.973 311.12 210.08C309.733 210.08 308.667 210.08 307.92 210.08C306 210.187 303.387 210.453 300.08 210.88C299.333 211.093 298.907 211.36 298.8 211.68C297.307 214.24 296.24 216.853 295.6 219.52C295.493 220.267 295.12 221.173 294.48 222.24C293.947 223.413 293.307 225.173 292.56 227.52C291.92 229.867 291.44 231.52 291.12 232.48C290.8 233.547 290.053 234.293 288.88 234.72C287.707 235.147 286.64 235.093 285.68 234.56C285.573 234.453 285.36 234.293 285.04 234.08C283.867 233.653 283.653 233.067 284.4 232.32C284.827 231.893 285.147 231.467 285.36 231.04C285.573 230.507 285.733 229.92 285.84 229.28C286.053 228.64 286.213 228.16 286.32 227.84C287.067 226.24 287.973 223.733 289.04 220.32C289.36 219.36 289.787 217.867 290.32 215.84C290.96 213.813 291.493 212.213 291.92 211.04C285.947 211.04 281.573 209.813 278.8 207.36L277.36 205.6C277.68 205.493 278.267 205.333 279.12 205.12C279.867 204.907 280.453 204.747 280.88 204.64C283.12 204.213 287.173 203.52 293.04 202.56C294.213 202.347 295.013 201.76 295.44 200.8C297.04 196.32 298.427 192.8 299.6 190.24C299.92 189.387 301.68 185.813 304.88 179.52L307.44 174.4C310.427 168.64 314.427 162.56 319.44 156.16C319.76 155.84 320.187 155.413 320.72 154.88C321.36 154.347 321.787 153.973 322 153.76C322.32 153.44 322.853 153.013 323.6 152.48C324.453 151.947 324.987 151.627 325.2 151.52C326.373 150.773 327.813 150.4 329.52 150.4C333.787 150.72 335.973 150.88 336.08 150.88C338.96 151.413 341.467 152.373 343.6 153.76C347.44 156.32 349.84 160.533 350.8 166.4C351.653 172.053 352.08 175.36 352.08 176.32V184.16C352.08 184.693 352.133 185.067 352.24 185.28C352.56 186.667 352.08 189.387 350.8 193.44L349.36 194.88L350.32 195.2C350.213 195.627 350.053 196.267 349.84 197.12C349.733 197.867 349.68 198.4 349.68 198.72C349.68 199.467 349.68 200.693 349.68 202.4C349.787 204.107 349.84 205.333 349.84 206.08C349.947 207.467 349.68 208.853 349.04 210.24C348.613 211.093 348.507 211.893 348.72 212.64C348.827 213.173 348.667 214.24 348.24 215.84C348.24 215.947 348.133 216.32 347.92 216.96C347.813 217.493 347.76 217.867 347.76 218.08C347.76 218.933 347.973 219.573 348.4 220C349.467 220.747 349.573 221.973 348.72 223.68C348.08 224.853 347.973 225.76 348.4 226.4C348.507 226.507 348.507 226.827 348.4 227.36C348.293 227.68 348.24 227.893 348.24 228C348.24 228.853 347.76 230.72 346.8 233.6C346.587 234.133 346.213 234.507 345.68 234.72C345.147 234.933 344.24 235.04 342.96 235.04H341.52C341.413 235.147 341.147 235.307 340.72 235.52C340.4 235.627 340.133 235.787 339.92 236C339.707 236.213 339.6 236.533 339.6 236.96ZM327.76 159.04C326.48 159.573 325.253 160.533 324.08 161.92C323.76 162.347 323.173 162.987 322.32 163.84C321.573 164.693 321.04 165.333 320.72 165.76C319.547 167.147 318.48 168.533 317.52 169.92C316.347 171.733 314.693 174.56 312.56 178.4C310.853 181.6 309.627 184 308.88 185.6C308.24 186.773 307.387 188.427 306.32 190.56C306.107 190.987 305.787 191.573 305.36 192.32C305.04 193.067 304.773 193.653 304.56 194.08C304.453 194.293 304.293 194.667 304.08 195.2C303.867 195.733 303.707 196.107 303.6 196.32C303.493 196.64 303.28 197.12 302.96 197.76C302.747 198.4 302.533 198.987 302.32 199.52C302.213 200.053 302.16 200.587 302.16 201.12C314.853 200.053 322.64 199.627 325.52 199.84L326 198.4C326.213 196.693 326.64 193.707 327.28 189.44C328.773 178.347 329.52 170.027 329.52 164.48C329.52 161.92 328.933 160.107 327.76 159.04ZM427.511 181.12L437.111 185.92L437.751 186.4C440.951 189.493 442.871 193.013 443.511 196.96C444.045 199.307 444.311 200.693 444.311 201.12C444.311 203.787 444.151 205.707 443.831 206.88C443.618 207.733 443.245 208.96 442.711 210.56C442.178 212.053 441.858 213.067 441.751 213.6C440.685 216.8 439.405 219.093 437.911 220.48C437.805 220.587 437.645 220.747 437.431 220.96C437.325 221.067 437.165 221.28 436.951 221.6C436.845 221.92 436.738 222.133 436.631 222.24C436.631 222.56 436.578 222.72 436.471 222.72L431.831 227.2C431.725 227.307 431.245 227.733 430.391 228.48C429.538 229.227 428.951 229.813 428.631 230.24C427.458 231.52 426.125 232.32 424.631 232.64C424.205 232.747 423.405 233.067 422.231 233.6C421.165 234.027 420.258 234.187 419.511 234.08C419.298 234.08 418.978 234.293 418.551 234.72C418.231 235.147 417.911 235.413 417.591 235.52C417.058 235.627 416.365 235.893 415.511 236.32C414.658 236.747 414.178 237.013 414.071 237.12L413.751 237.28C412.258 237.067 410.605 237.493 408.791 238.56C408.578 238.56 408.258 238.453 407.831 238.24H406.391C405.538 238.773 403.618 239.04 400.631 239.04C400.418 238.613 400.365 238.347 400.471 238.24C400.578 238.133 400.738 237.973 400.951 237.76C401.271 237.547 401.431 237.333 401.431 237.12C400.791 236.693 400.205 236.747 399.671 237.28C398.925 237.92 398.391 238.24 398.071 238.24C397.858 238.24 397.378 237.973 396.631 237.44C396.525 237.44 396.365 237.387 396.151 237.28C395.618 237.493 395.298 237.6 395.191 237.6C395.191 237.6 394.925 237.44 394.391 237.12C393.965 236.907 393.645 236.747 393.431 236.64L395.351 236.32C395.031 235.573 394.498 235.307 393.751 235.52C393.005 235.627 392.418 235.573 391.991 235.36V235.04C391.885 234.72 391.831 234.4 391.831 234.08H386.871C387.191 233.867 387.671 233.653 388.311 233.44L387.991 233.12C387.351 233.013 386.605 232.427 385.751 231.36C385.431 231.04 384.151 230.293 381.911 229.12C381.485 229.76 381.165 230.133 380.951 230.24C380.845 230.347 380.631 230.453 380.311 230.56C380.098 230.667 379.938 230.827 379.831 231.04C379.618 231.787 379.085 232.053 378.231 231.84C377.271 231.84 376.738 232.267 376.631 233.12L376.471 233.44C376.365 233.653 376.258 233.76 376.151 233.76C375.831 233.76 375.298 233.867 374.551 234.08C373.805 234.293 373.271 234.4 372.951 234.4C372.738 234.293 372.205 234.133 371.351 233.92C370.925 233.6 369.111 233.067 365.911 232.32C366.231 230.827 365.751 229.707 364.471 228.96C364.045 228.64 363.405 227.68 362.551 226.08C362.445 225.973 362.445 225.76 362.551 225.44C362.658 225.013 362.765 224.747 362.871 224.64C363.298 224.32 363.511 223.947 363.511 223.52C363.405 220.427 364.791 214.613 367.671 206.08C368.951 202.453 370.338 198.347 371.831 193.76C372.578 191.52 373.591 188.267 374.871 184C376.151 179.627 376.898 177.067 377.111 176.32C378.498 172.48 379.298 170.133 379.511 169.28C379.618 168.853 380.418 166.027 381.911 160.8C380.311 159.52 379.405 158.72 379.191 158.4L381.111 156.32C381.751 155.467 382.071 154.667 382.071 153.92C382.071 153.387 382.178 152.853 382.391 152.32C382.605 151.787 382.871 151.2 383.191 150.56C383.618 149.92 383.885 149.44 383.991 149.12C384.205 148.48 384.631 148.16 385.271 148.16C386.125 148.053 386.925 148.053 387.671 148.16L396.951 149.44C397.485 149.547 398.498 150.08 399.991 151.04C401.058 152 401.591 153.013 401.591 154.08L402.231 156.8V159.52L403.351 159.04C403.565 158.933 404.791 157.867 407.031 155.84C409.271 153.813 410.978 152.267 412.151 151.2C415.138 148.96 417.858 147.36 420.311 146.4C425.858 144.16 430.711 144.587 434.871 147.68C438.605 150.453 440.631 154.187 440.951 158.88V159.68C440.205 163.947 439.031 167.413 437.431 170.08C436.685 171.36 435.245 173.067 433.111 175.2C431.298 176.8 430.018 178.133 429.271 179.2C429.058 179.52 428.471 180.16 427.511 181.12ZM396.471 198.4L395.191 201.28C394.125 203.84 393.431 205.707 393.111 206.88C393.005 207.307 392.685 208 392.151 208.96C391.725 209.92 391.405 210.773 391.191 211.52C391.085 212.267 391.031 213.067 391.031 213.92C391.031 214.027 390.978 214.133 390.871 214.24C390.658 214.453 390.551 214.613 390.551 214.72C389.698 215.573 389.698 216.533 390.551 217.6C391.618 218.667 392.578 219.893 393.431 221.28C394.178 222.88 395.298 223.893 396.791 224.32C398.391 224.747 399.938 224.533 401.431 223.68C402.818 222.72 406.445 220.533 412.311 217.12C413.271 216.48 413.911 215.84 414.231 215.2C414.765 214.133 416.205 212.32 418.551 209.76C418.871 209.333 419.405 208.747 420.151 208C420.898 207.253 421.485 206.667 421.911 206.24C422.338 205.707 422.818 205.067 423.351 204.32C423.885 203.467 424.311 202.667 424.631 201.92C425.591 199.36 426.071 196.747 426.071 194.08C426.178 192.267 425.325 191.093 423.511 190.56C420.418 189.92 417.965 189.92 416.151 190.56L414.391 191.2C414.071 191.2 413.378 191.253 412.311 191.36C411.351 191.36 410.658 191.413 410.231 191.52C409.805 191.627 409.111 191.787 408.151 192C407.298 192.213 406.445 192.533 405.591 192.96C404.845 193.28 403.991 193.76 403.031 194.4C401.431 195.573 399.245 196.907 396.471 198.4ZM401.271 178.88C402.551 177.813 403.298 177.227 403.511 177.12C403.725 176.907 404.098 176.693 404.631 176.48C405.165 176.16 405.591 175.947 405.911 175.84L406.871 174.88C406.978 174.88 407.138 174.773 407.351 174.56C407.458 174.453 407.565 174.4 407.671 174.4C408.418 174.4 409.165 173.813 409.911 172.64C410.765 171.36 411.618 170.72 412.471 170.72C412.578 170.72 412.738 170.613 412.951 170.4C413.271 170.08 413.911 169.653 414.871 169.12C415.831 168.587 416.418 168 416.631 167.36C416.631 167.147 416.791 166.88 417.111 166.56C417.218 166.56 417.378 166.613 417.591 166.72C417.911 166.72 418.125 166.667 418.231 166.56C418.338 166.453 418.391 166.24 418.391 165.92C418.391 165.6 418.605 165.387 419.031 165.28C419.458 165.067 419.725 164.853 419.831 164.64V164.32C419.938 164.213 419.991 164.107 419.991 164C419.778 163.253 420.311 162.4 421.591 161.44C422.978 159.733 424.685 157.973 426.711 156.16C427.138 155.733 427.405 155.253 427.511 154.72C428.791 152.053 428.045 150.667 425.271 150.56C421.965 150.347 419.298 150.987 417.271 152.48L410.391 156.8C408.151 158.187 406.125 160 404.311 162.24C403.245 163.52 402.765 164.8 402.871 166.08C402.978 166.933 402.818 168.213 402.391 169.92C402.071 171.627 401.911 172.853 401.911 173.6C401.911 174.027 401.805 174.827 401.591 176C401.485 177.173 401.378 178.133 401.271 178.88ZM399.671 235.04L402.711 235.52C401.965 234.133 400.951 233.973 399.671 235.04ZM395.191 233.12C395.298 233.013 395.351 232.853 395.351 232.64H394.231C394.231 232.747 394.178 232.853 394.071 232.96C394.605 232.96 394.978 233.013 395.191 233.12ZM399.031 234.24L398.871 234.08C398.765 233.973 398.658 233.92 398.551 233.92L398.231 234.56C398.338 234.56 398.391 234.613 398.391 234.72L398.711 234.88L399.031 234.24ZM393.751 234.08L393.111 233.28L392.791 233.6C393.005 233.707 393.218 233.973 393.431 234.4C393.645 234.4 393.751 234.293 393.751 234.08ZM508.038 236.96L506.758 236.16C506.651 236.267 506.544 236.373 506.438 236.48C505.904 236.907 505.904 237.387 506.438 237.92C506.224 237.813 505.958 237.653 505.638 237.44C505.424 237.227 505.211 237.013 504.998 236.8C504.891 236.587 504.678 236.48 504.358 236.48C504.144 236.587 503.878 236.8 503.558 237.12C503.984 237.333 504.358 237.493 504.678 237.6C504.464 237.6 504.251 237.6 504.038 237.6C503.824 237.707 503.664 237.76 503.558 237.76C503.238 237.76 502.758 238.187 502.118 239.04C502.118 239.36 501.958 239.52 501.638 239.52C499.504 239.52 498.171 239.413 497.638 239.2C496.891 238.773 496.038 238.453 495.078 238.24C493.798 238.133 493.051 237.28 492.838 235.68C492.518 233.973 491.984 232.48 491.238 231.2C490.918 230.667 490.864 230.24 491.078 229.92C491.824 227.467 492.304 223.733 492.518 218.72C492.518 218.293 492.518 217.333 492.518 215.84C492.624 214.347 492.731 213.227 492.838 212.48C492.838 212.053 492.891 211.413 492.998 210.56C493.211 209.707 493.318 209.12 493.318 208.8C489.584 209.333 487.504 209.6 487.078 209.6C486.011 209.707 484.838 209.813 483.558 209.92C482.384 209.92 481.051 209.973 479.558 210.08C478.171 210.08 477.104 210.08 476.358 210.08C474.438 210.187 471.824 210.453 468.518 210.88C467.771 211.093 467.344 211.36 467.238 211.68C465.744 214.24 464.678 216.853 464.038 219.52C463.931 220.267 463.558 221.173 462.918 222.24C462.384 223.413 461.744 225.173 460.997 227.52C460.358 229.867 459.878 231.52 459.558 232.48C459.238 233.547 458.491 234.293 457.318 234.72C456.144 235.147 455.078 235.093 454.118 234.56C454.011 234.453 453.798 234.293 453.478 234.08C452.304 233.653 452.091 233.067 452.838 232.32C453.264 231.893 453.584 231.467 453.798 231.04C454.011 230.507 454.171 229.92 454.278 229.28C454.491 228.64 454.651 228.16 454.758 227.84C455.504 226.24 456.411 223.733 457.478 220.32C457.798 219.36 458.224 217.867 458.758 215.84C459.398 213.813 459.931 212.213 460.358 211.04C454.384 211.04 450.011 209.813 447.237 207.36L445.797 205.6C446.117 205.493 446.704 205.333 447.557 205.12C448.304 204.907 448.891 204.747 449.317 204.64C451.558 204.213 455.611 203.52 461.478 202.56C462.651 202.347 463.451 201.76 463.878 200.8C465.478 196.32 466.864 192.8 468.038 190.24C468.358 189.387 470.118 185.813 473.318 179.52L475.878 174.4C478.864 168.64 482.864 162.56 487.878 156.16C488.198 155.84 488.624 155.413 489.158 154.88C489.798 154.347 490.224 153.973 490.438 153.76C490.758 153.44 491.291 153.013 492.038 152.48C492.891 151.947 493.424 151.627 493.638 151.52C494.811 150.773 496.251 150.4 497.958 150.4C502.224 150.72 504.411 150.88 504.518 150.88C507.398 151.413 509.904 152.373 512.038 153.76C515.878 156.32 518.278 160.533 519.238 166.4C520.091 172.053 520.518 175.36 520.518 176.32V184.16C520.518 184.693 520.571 185.067 520.678 185.28C520.998 186.667 520.518 189.387 519.238 193.44L517.798 194.88L518.758 195.2C518.651 195.627 518.491 196.267 518.278 197.12C518.171 197.867 518.118 198.4 518.118 198.72C518.118 199.467 518.118 200.693 518.118 202.4C518.224 204.107 518.278 205.333 518.278 206.08C518.384 207.467 518.118 208.853 517.478 210.24C517.051 211.093 516.944 211.893 517.158 212.64C517.264 213.173 517.104 214.24 516.678 215.84C516.678 215.947 516.571 216.32 516.358 216.96C516.251 217.493 516.198 217.867 516.198 218.08C516.198 218.933 516.411 219.573 516.838 220C517.904 220.747 518.011 221.973 517.158 223.68C516.518 224.853 516.411 225.76 516.838 226.4C516.944 226.507 516.944 226.827 516.838 227.36C516.731 227.68 516.678 227.893 516.678 228C516.678 228.853 516.198 230.72 515.238 233.6C515.024 234.133 514.651 234.507 514.118 234.72C513.584 234.933 512.678 235.04 511.398 235.04H509.958C509.851 235.147 509.584 235.307 509.158 235.52C508.838 235.627 508.571 235.787 508.358 236C508.144 236.213 508.038 236.533 508.038 236.96ZM496.198 159.04C494.918 159.573 493.691 160.533 492.518 161.92C492.198 162.347 491.611 162.987 490.758 163.84C490.011 164.693 489.478 165.333 489.158 165.76C487.984 167.147 486.918 168.533 485.958 169.92C484.784 171.733 483.131 174.56 480.998 178.4C479.291 181.6 478.064 184 477.318 185.6C476.678 186.773 475.824 188.427 474.758 190.56C474.544 190.987 474.224 191.573 473.798 192.32C473.478 193.067 473.211 193.653 472.998 194.08C472.891 194.293 472.731 194.667 472.518 195.2C472.304 195.733 472.144 196.107 472.038 196.32C471.931 196.64 471.718 197.12 471.398 197.76C471.184 198.4 470.971 198.987 470.758 199.52C470.651 200.053 470.598 200.587 470.598 201.12C483.291 200.053 491.078 199.627 493.958 199.84L494.438 198.4C494.651 196.693 495.078 193.707 495.718 189.44C497.211 178.347 497.958 170.027 497.958 164.48C497.958 161.92 497.371 160.107 496.198 159.04ZM624.135 216.16H626.055C626.588 216.587 626.642 217.44 626.215 218.72C625.895 219.893 625.788 220.693 625.895 221.12C626.002 221.44 625.628 223.093 624.775 226.08C624.028 226.08 623.442 226.453 623.015 227.2C622.695 227.2 622.162 227.253 621.415 227.36C620.775 227.36 620.242 227.36 619.815 227.36C621.628 226.4 622.642 225.867 622.855 225.76C622.962 225.76 623.655 224.907 624.935 223.2C623.228 221.387 621.842 221.547 620.775 223.68L621.735 224.96L618.215 227.52L617.575 228.32C617.042 228.747 616.988 229.173 617.415 229.6C618.162 229.387 618.535 229.173 618.535 228.96C618.642 228.747 618.535 228.267 618.215 227.52L622.375 228.32C622.162 228.747 621.628 228.96 620.775 228.96C619.922 228.96 619.548 229.387 619.655 230.24C617.522 230.24 615.975 230.56 615.015 231.2C615.762 231.947 616.455 232.16 617.095 231.84C618.375 231.307 619.602 231.307 620.775 231.84C619.388 232.053 617.682 233.067 615.655 234.88C614.695 235.627 614.055 236 613.735 236C612.882 235.893 612.188 236.267 611.655 237.12L609.575 238.72C609.362 238.827 609.042 239.093 608.615 239.52C607.975 240.267 607.175 240.32 606.215 239.68C605.042 239.147 604.348 239.093 604.135 239.52C604.028 239.733 603.602 239.84 602.855 239.84C601.468 239.733 599.602 240.107 597.255 240.96C597.148 240.96 597.095 241.12 597.095 241.44L598.695 241.92V242.24H595.335C595.228 242.453 595.068 242.613 594.855 242.72C594.748 242.827 594.535 242.88 594.215 242.88C594.002 242.88 593.788 242.88 593.575 242.88C593.362 242.88 593.148 242.933 592.935 243.04C592.828 243.147 592.775 243.36 592.775 243.68L589.895 242.88V243.04L590.375 241.76C590.055 241.76 589.415 241.813 588.455 241.92C587.602 242.133 586.908 242.187 586.375 242.08C585.842 241.973 585.308 241.6 584.775 240.96L588.295 240.48C588.935 240.48 589.362 240.533 589.575 240.64C590.535 241.067 592.402 240.907 595.175 240.16C594.855 239.627 594.322 239.467 593.575 239.68C592.828 239.893 592.295 239.787 591.975 239.36L593.095 238.56C592.882 238.56 592.348 238.507 591.495 238.4C590.748 238.4 590.215 238.4 589.895 238.4C589.575 238.507 589.095 238.667 588.455 238.88C587.922 239.093 587.442 239.467 587.015 240C586.802 239.467 586.535 239.093 586.215 238.88C585.895 238.667 585.468 238.56 584.935 238.56C584.508 238.667 584.188 238.667 583.975 238.56C583.548 238.453 583.015 238.56 582.375 238.88C581.735 239.307 581.202 239.413 580.775 239.2C580.988 239.093 581.255 238.827 581.575 238.4C581.895 237.973 582.215 237.653 582.535 237.44C582.962 237.227 583.388 237.173 583.815 237.28C583.602 237.173 582.908 236.64 581.735 235.68C580.562 234.613 579.495 234.08 578.535 234.08C578.748 233.973 579.068 233.76 579.495 233.44C579.922 233.12 580.242 232.907 580.455 232.8H578.695C577.522 233.013 576.722 233.013 576.295 232.8C576.295 233.013 576.188 233.227 575.975 233.44H576.135C573.575 233.653 572.135 232.533 571.815 230.08C571.388 227.733 571.122 225.973 571.015 224.8C570.908 224.587 570.855 224.32 570.855 224C571.175 223.36 571.175 222.4 570.855 221.12C570.642 219.733 570.642 218.72 570.855 218.08C570.962 217.76 571.122 217.013 571.335 215.84C571.655 214.56 571.922 213.6 572.135 212.96C574.055 209.12 576.722 206.293 580.135 204.48C581.415 203.733 582.375 203.467 583.015 203.68C583.335 204.747 582.802 206.347 581.415 208.48C580.348 209.547 579.655 210.187 579.335 210.4C578.375 211.147 577.682 212.533 577.255 214.56C577.255 214.667 577.095 215.36 576.775 216.64C577.095 217.28 577.255 217.92 577.255 218.56C577.255 220.907 578.162 222.72 579.975 224C580.082 224.107 580.295 224.213 580.615 224.32C580.935 224.533 581.148 224.693 581.255 224.8C581.575 225.76 582.642 226.88 584.455 228.16C585.842 229.12 587.335 229.12 588.935 228.16C590.108 227.413 590.962 227.413 591.495 228.16C591.815 226.987 592.562 226.4 593.735 226.4C594.908 226.293 597.415 225.067 601.255 222.72C601.468 222.507 601.575 222.293 601.575 222.08C601.575 221.867 601.522 221.653 601.415 221.44C601.308 221.227 601.255 221.067 601.255 220.96C601.255 220.747 601.415 220.48 601.735 220.16C602.055 219.733 602.162 219.36 602.055 219.04C601.628 216.907 601.842 215.36 602.695 214.4C602.588 214.187 602.428 213.867 602.215 213.44C602.108 212.907 602.002 212.587 601.895 212.48L601.255 213.6C600.935 213.387 600.775 213.067 600.775 212.64C600.775 212.213 600.935 211.893 601.255 211.68C602.108 211.04 602.428 210.347 602.215 209.6H601.095L600.135 208.96L599.495 206.24C599.175 204.853 598.908 204.053 598.695 203.84C598.375 203.52 598.108 202.987 597.895 202.24C597.682 201.387 597.468 200.853 597.255 200.64L595.655 197.6C595.442 197.067 595.015 196.373 594.375 195.52C593.842 194.667 593.362 193.92 592.935 193.28C592.615 192.533 592.402 191.787 592.295 191.04C592.295 190.933 592.295 190.72 592.295 190.4C592.402 190.08 592.455 189.813 592.455 189.6C592.775 189.813 593.362 190.027 594.215 190.24C594.108 189.6 593.682 189.173 592.935 188.96C592.615 188.853 592.402 188.853 592.295 188.96C592.295 189.067 592.348 189.227 592.455 189.44C592.455 189.547 592.455 189.653 592.455 189.76L590.215 188.48C589.788 187.627 589.522 187.147 589.415 187.04C587.922 184.907 587.335 182.827 587.655 180.8C587.655 180.693 587.708 180.48 587.815 180.16C587.922 179.84 587.975 179.573 587.975 179.36C588.082 179.04 588.028 178.773 587.815 178.56C587.815 178.453 587.762 178.24 587.655 177.92C587.548 177.813 587.548 177.707 587.655 177.6C587.868 176.96 587.868 175.68 587.655 173.76L586.055 171.36L589.575 169.28C589.148 166.4 589.842 164.373 591.655 163.2C591.868 162.987 592.082 162.4 592.295 161.44C592.295 161.333 592.295 161.12 592.295 160.8C592.295 160.48 592.348 160.267 592.455 160.16C592.562 159.947 592.775 159.787 593.095 159.68C593.308 159.68 593.308 159.52 593.095 159.2C592.988 158.88 593.042 158.56 593.255 158.24C593.575 158.027 594.268 157.387 595.335 156.32C597.042 154.507 599.122 153.013 601.575 151.84L606.375 149.76C609.255 148.48 612.348 148 615.655 148.32C615.655 148.533 615.708 148.853 615.815 149.28C616.028 149.707 616.188 150.08 616.295 150.4C618.642 150.613 620.348 150.88 621.415 151.2C622.268 151.413 622.962 151.787 623.495 152.32C624.028 152.853 625.202 153.493 627.015 154.24C627.975 154.667 628.508 155.147 628.615 155.68C628.722 156 629.148 156.427 629.895 156.96C631.282 157.707 632.082 158.933 632.295 160.64L632.935 163.2C632.935 163.413 633.148 163.947 633.575 164.8C634.002 165.653 634.162 166.347 634.055 166.88L633.575 170.72L633.095 173.6L632.295 176.64L629.895 181.28L628.295 181.6C628.508 181.067 628.775 180.213 629.095 179.04C629.522 177.76 629.842 176.8 630.055 176.16C630.268 175.413 630.482 174.4 630.695 173.12C630.908 171.2 630.482 168.533 629.415 165.12C629.202 164.373 628.562 163.36 627.495 162.08C627.388 161.973 626.962 161.653 626.215 161.12C625.575 160.587 625.148 160.107 624.935 159.68C624.722 159.467 624.402 159.04 623.975 158.4C623.655 157.76 623.442 157.333 623.335 157.12C621.948 157.12 621.148 156.853 620.935 156.32C620.722 156.107 620.402 156 619.975 156C618.268 155.467 617.202 155.04 616.775 154.72C616.668 154.72 616.402 154.72 615.975 154.72C615.548 154.72 615.228 154.667 615.015 154.56L615.495 155.68C614.535 156 614.002 156.16 613.895 156.16C610.588 156.373 607.922 158.293 605.895 161.92C605.682 162.347 605.575 162.72 605.575 163.04C605.575 163.253 605.468 163.84 605.255 164.8C605.148 165.76 605.095 166.507 605.095 167.04C605.308 168.853 605.202 170.4 604.775 171.68C604.455 172.64 604.615 173.28 605.255 173.6C605.362 173.707 605.362 173.973 605.255 174.4C605.255 174.72 605.202 174.933 605.095 175.04C604.775 175.467 604.668 175.893 604.775 176.32C604.882 176.64 605.042 176.853 605.255 176.96C605.575 177.28 605.895 177.813 606.215 178.56C606.642 179.2 606.962 179.627 607.175 179.84C607.175 179.947 607.762 180.96 608.935 182.88L610.695 185.92C611.122 186.667 611.548 187.2 611.975 187.52C613.042 188.16 613.415 189.227 613.095 190.72H611.655L611.175 192.8C610.962 193.653 610.962 194.347 611.175 194.88C611.388 194.88 611.655 194.667 611.975 194.24C612.295 193.707 612.668 193.6 613.095 193.92C613.522 194.24 613.415 194.613 612.775 195.04C614.588 196.213 615.495 197.333 615.495 198.4C615.495 198.613 615.548 198.987 615.655 199.52C615.868 199.947 615.975 200.32 615.975 200.64C615.975 200.96 615.868 201.333 615.655 201.76C615.548 202.187 615.228 202.56 614.695 202.88H618.215C617.682 203.2 617.148 203.627 616.615 204.16C617.895 205.013 618.535 205.867 618.535 206.72L619.495 207.36C620.242 204.693 619.388 201.867 616.935 198.88C617.042 198.88 617.202 198.88 617.415 198.88L617.735 198.72C618.588 198.507 619.122 198.453 619.335 198.56C619.548 198.667 619.762 199.147 619.975 200C620.082 200.427 620.295 201.12 620.615 202.08C620.935 203.04 621.148 203.733 621.255 204.16L620.135 205.76L623.335 206.56C624.082 207.093 624.242 207.947 623.815 209.12L622.535 208.8C621.362 208.053 620.508 207.733 619.975 207.84L619.335 209.12C618.695 209.973 618.802 210.453 619.655 210.56C620.082 210.773 620.295 210.88 620.295 210.88L619.335 212.32L621.255 213.28V213.44C621.362 214.507 621.095 215.467 620.455 216.32C620.348 216.427 620.295 216.64 620.295 216.96C620.295 217.173 620.188 217.493 619.975 217.92C619.868 218.347 619.762 218.72 619.655 219.04L620.935 219.68C621.042 219.573 621.148 219.253 621.255 218.72C621.468 218.187 621.842 217.92 622.375 217.92C622.482 218.453 622.535 219.253 622.535 220.32C621.682 220.32 621.042 220.373 620.615 220.48V220.96C621.255 221.173 621.788 221.28 622.215 221.28C622.855 221.387 623.228 221.387 623.335 221.28C623.548 221.067 623.655 220.587 623.655 219.84C623.442 218.773 623.442 218.133 623.655 217.92C623.975 217.813 624.188 217.653 624.295 217.44C624.402 217.227 624.402 216.96 624.295 216.64L624.135 216.16ZM616.775 232.32L614.375 232.96C614.375 233.387 614.428 233.707 614.535 233.92C614.642 234.027 614.855 234.027 615.175 233.92C616.242 233.707 616.775 233.44 616.775 233.12C616.882 232.907 616.882 232.64 616.775 232.32ZM599.335 238.08L600.295 239.36C600.402 239.147 600.668 238.827 601.095 238.4C601.628 237.973 601.788 237.44 601.575 236.8C601.362 236.907 600.615 237.333 599.335 238.08ZM598.375 239.2V238.88L595.815 239.52C596.562 239.947 597.415 239.84 598.375 239.2ZM579.175 229.6C578.855 228.427 578.162 228.053 577.095 228.48C577.948 228.8 578.642 229.173 579.175 229.6ZM584.615 234.72L583.655 236C584.188 236.107 584.508 236.107 584.615 236C584.722 235.893 584.722 235.467 584.615 234.72ZM590.215 233.28L588.935 232.8V233.92L590.215 233.28ZM619.015 219.36C618.908 219.36 618.748 219.253 618.535 219.04L617.895 220L618.215 220.32C618.642 219.893 618.908 219.573 619.015 219.36ZM578.215 229.76L577.575 229.28C577.362 229.493 577.255 229.653 577.255 229.76C577.255 229.973 577.415 230.08 577.735 230.08C577.735 229.973 577.895 229.867 578.215 229.76ZM583.015 232.64L581.735 231.52C581.842 232.053 581.895 232.427 581.895 232.64C582.002 232.747 582.108 232.853 582.215 232.96C582.428 232.96 582.695 232.853 583.015 232.64ZM593.575 241.6H592.455V242.08H593.575V241.6ZM626.855 157.12L627.655 156.64C627.548 156.533 627.495 156.427 627.495 156.32L626.695 156.8C626.695 156.907 626.748 157.013 626.855 157.12ZM604.455 236L603.815 237.28C604.455 237.28 604.668 236.853 604.455 236ZM592.295 236.64H593.415V236.16H592.295V236.64ZM701.945 220.48L704.025 219.84C704.665 220.8 704.505 221.493 703.545 221.92C703.332 222.027 702.798 222.507 701.945 223.36C702.905 223.787 703.865 224.373 704.825 225.12L701.785 225.92L702.905 226.4L699.545 228.32L702.265 230.56C702.052 230.667 701.785 230.827 701.465 231.04C701.145 231.147 700.878 231.253 700.665 231.36C700.452 231.467 700.345 231.573 700.345 231.68C700.452 232.213 700.025 232.8 699.065 233.44C699.278 233.76 699.652 234.187 700.185 234.72C700.185 234.933 700.078 235.68 699.865 236.96L698.105 238.24C698.318 238.24 698.585 238.24 698.905 238.24C699.332 238.347 699.598 238.4 699.705 238.4C699.492 238.827 699.385 239.093 699.385 239.2L697.465 239.52L696.665 238.56C694.638 240.16 693.625 242.027 693.625 244.16L693.305 241.6L691.865 241.12C691.865 241.867 691.598 242.453 691.065 242.88C690.532 243.307 690.052 243.52 689.625 243.52C689.305 243.627 688.612 243.733 687.545 243.84L688.185 241.76C687.225 241.227 686.478 241.387 685.945 242.24C685.412 243.307 684.558 243.68 683.385 243.36L683.705 244.8H682.105C681.998 244.16 681.732 243.627 681.305 243.2C680.878 242.773 680.292 242.4 679.545 242.08C678.798 241.76 678.265 241.493 677.945 241.28C678.158 239.893 678.158 238.72 677.945 237.76C677.838 237.547 677.412 237.067 676.665 236.32L678.105 233.44C678.105 232.907 677.998 232 677.785 230.72C677.678 229.44 677.625 228.693 677.625 228.48C677.732 227.627 678.478 226.613 679.865 225.44C679.865 225.333 680.025 225.067 680.345 224.64C680.665 224.213 680.878 223.787 680.985 223.36C680.878 223.36 680.665 223.413 680.345 223.52C680.132 223.52 679.918 223.52 679.705 223.52C679.705 222.56 679.972 221.76 680.505 221.12C681.038 220.48 681.412 219.253 681.625 217.44C681.625 217.333 681.678 216.96 681.785 216.32C681.892 215.573 682.105 215.04 682.425 214.72C682.958 214.187 683.225 213.547 683.225 212.8C683.225 211.733 683.492 211.04 684.025 210.72C685.092 210.293 685.785 209.44 686.105 208.16C686.318 206.987 686.638 205.813 687.065 204.64C687.598 203.36 688.025 202.347 688.345 201.6C688.772 200.853 689.358 199.787 690.105 198.4C690.852 197.013 691.385 196.053 691.705 195.52C692.558 194.027 693.038 192.907 693.145 192.16C693.465 191.627 693.572 191.307 693.465 191.2C693.145 190.56 693.412 189.92 694.265 189.28C694.372 189.173 694.585 188.64 694.905 187.68C694.905 187.467 694.905 187.253 694.905 187.04C694.905 186.827 694.905 186.667 694.905 186.56C694.905 186.347 694.905 186.133 694.905 185.92C694.905 185.6 694.905 185.333 694.905 185.12C692.345 186.613 690.425 188.267 689.145 190.08L685.145 194.08C680.878 197.813 677.465 201.813 674.905 206.08C674.798 206.293 674.478 206.933 673.945 208C673.412 208.96 673.092 209.76 672.985 210.4C672.985 210.72 672.932 210.88 672.825 210.88C672.078 212.16 671.705 213.493 671.705 214.88C671.812 215.52 671.385 216.32 670.425 217.28C670.212 217.493 669.678 217.44 668.825 217.12C668.398 217.227 668.025 217.6 667.705 218.24C667.492 218.88 667.278 219.307 667.065 219.52C666.532 219.84 665.945 220.533 665.305 221.6C664.665 222.56 664.238 223.147 664.025 223.36L662.585 224.96L660.185 230.4C659.972 230.4 659.758 230.347 659.545 230.24C659.012 232.053 657.358 233.813 654.585 235.52C654.585 235.307 654.478 234.987 654.265 234.56C654.158 234.133 654.105 233.867 654.105 233.76L648.985 237.6L644.825 236.32C644.932 236.213 644.985 236.107 644.985 236C645.092 235.787 645.145 235.627 645.145 235.52L642.105 233.6L643.225 233.12L643.385 232.96C643.385 232.853 643.385 232.747 643.385 232.64C642.958 232.427 642.638 232.32 642.425 232.32L642.265 231.84C642.798 231.52 642.798 230.773 642.265 229.6C641.732 228.32 641.465 227.52 641.465 227.2C641.465 225.067 641.732 223.52 642.265 222.56L642.585 221.76C642.052 221.12 642.212 220.107 643.065 218.72C643.705 217.867 644.025 216.907 644.025 215.84C644.238 214.773 644.612 214.027 645.145 213.6C645.998 212.96 646.105 212 645.465 210.72C645.252 209.547 645.572 208.747 646.425 208.32C646.852 208.107 647.332 206.987 647.865 204.96C647.652 204.427 647.545 204.107 647.545 204L648.505 201.76L649.465 199.84C649.572 199.52 649.625 198.987 649.625 198.24C649.732 197.493 649.785 197.013 649.785 196.8C650.318 196.693 650.585 196.267 650.585 195.52C650.585 194.773 650.692 194.24 650.905 193.92C650.158 193.707 649.038 193.493 647.545 193.28C647.332 193.173 647.172 193.067 647.065 192.96H646.905L647.865 192.48L646.745 191.52C646.745 191.413 646.798 191.307 646.905 191.2C649.465 190.667 651.012 190.24 651.545 189.92L652.665 188.64C654.585 186.293 655.758 184.107 656.185 182.08C656.718 180.587 657.252 179.52 657.785 178.88C657.892 178.773 657.998 178.56 658.105 178.24C658.318 177.92 658.478 177.707 658.585 177.6C658.798 177.173 659.065 176.48 659.385 175.52C659.812 174.453 660.185 173.707 660.505 173.28C660.825 172.853 661.038 172.213 661.145 171.36C661.252 170.4 661.305 169.813 661.305 169.6C661.838 168.64 662.212 168.053 662.425 167.84C662.532 167.84 662.852 167.413 663.385 166.56C663.492 166.133 663.705 165.547 664.025 164.8C664.452 163.947 664.718 163.36 664.825 163.04C665.358 162.507 665.518 162.08 665.305 161.76C664.878 160.907 665.198 159.947 666.265 158.88L666.905 158.24C667.012 157.173 667.438 155.68 668.185 153.76C669.038 151.84 669.572 150.4 669.785 149.44C669.998 148.8 670.532 147.68 671.385 146.08C671.705 145.44 671.865 145.067 671.865 144.96C671.865 143.68 672.292 142.027 673.145 140C674.105 137.867 674.692 136.373 674.905 135.52C675.012 135.307 675.332 134.933 675.865 134.4C677.038 133.653 677.678 132.373 677.785 130.56C678.638 129.707 679.598 129.387 680.665 129.6C681.198 129.707 681.625 129.653 681.945 129.44C682.372 129.227 682.745 128.853 683.065 128.32C683.492 127.68 683.812 127.253 684.025 127.04C684.558 126.187 684.878 125.6 684.985 125.28C684.985 124.32 685.038 123.84 685.145 123.84C686.532 123.627 687.385 123.573 687.705 123.68C688.985 124.107 689.892 124.16 690.425 123.84H690.905C691.758 124.16 693.092 124.427 694.905 124.64C696.825 124.747 698.318 125.013 699.385 125.44C700.985 126.293 701.838 127.413 701.945 128.8C702.478 131.04 702.318 133.013 701.465 134.72C701.038 135.467 700.505 136.587 699.865 138.08C699.225 139.573 698.638 140.693 698.105 141.44C695.758 146.24 694.425 148.8 694.105 149.12C693.998 149.227 693.678 149.973 693.145 151.36L692.025 153.92C690.745 156.053 689.785 157.92 689.145 159.52C688.718 162.08 688.292 163.947 687.865 165.12C687.865 165.333 687.598 166.027 687.065 167.2L686.745 167.52L684.185 172.32C684.718 172.213 685.358 172.16 686.105 172.16C685.678 174.933 684.718 176.693 683.225 177.44C681.838 177.973 681.092 178.987 680.985 180.48C680.558 181.653 680.772 182.347 681.625 182.56C681.625 182.88 681.358 183.2 680.825 183.52C680.398 183.733 680.292 184.107 680.505 184.64L683.545 184.32L682.745 186.08C682.745 186.187 682.638 186.347 682.425 186.56C682.212 186.773 682.105 186.933 682.105 187.04C682.105 188.213 681.465 188.64 680.185 188.32C680.292 188.427 680.878 188.8 681.945 189.44C681.732 189.76 681.412 190.24 680.985 190.88C680.558 191.52 680.238 192.107 680.025 192.64C679.812 193.173 679.705 193.76 679.705 194.4L680.665 192.96L683.065 190.88L683.705 190.56C684.132 189.6 685.038 188.533 686.425 187.36C687.918 186.187 688.878 185.333 689.305 184.8L689.625 184.48C690.158 184.267 690.852 183.787 691.705 183.04C692.558 182.187 693.198 181.653 693.625 181.44C695.545 180.587 697.145 179.253 698.425 177.44C699.492 176.053 700.878 175.36 702.585 175.36C705.785 175.36 707.918 175.573 708.985 176C710.585 176.533 711.598 177.707 712.025 179.52L712.345 182.08C712.985 184.32 712.985 187.147 712.345 190.56C711.918 192.16 711.705 193.973 711.705 196C712.025 197.6 712.132 198.56 712.025 198.88C711.812 199.52 711.598 200.053 711.385 200.48C711.278 200.587 711.172 200.747 711.065 200.96C710.958 201.067 710.852 201.227 710.745 201.44C710.745 201.547 710.692 201.707 710.585 201.92C710.478 202.027 710.425 202.187 710.425 202.4C710.532 203.04 710.318 203.893 709.785 204.96C709.358 205.92 709.145 206.72 709.145 207.36L707.705 208.8C708.132 210.293 707.492 211.787 705.785 213.28C704.612 214.24 704.292 215.307 704.825 216.48C704.825 216.587 704.665 217.12 704.345 218.08L703.865 219.68C703.758 219.68 703.598 219.68 703.385 219.68C703.172 219.573 702.905 219.573 702.585 219.68C702.372 219.787 702.158 220.053 701.945 220.48ZM692.185 145.6L692.505 145.92L693.625 144.64C693.838 144.213 694.052 143.787 694.265 143.36C694.478 142.933 694.692 142.453 694.905 141.92C695.118 141.387 695.278 140.96 695.385 140.64C695.812 140 696.345 138.56 696.985 136.32C697.732 134.613 696.985 133.547 694.745 133.12C693.678 135.68 692.825 139.84 692.185 145.6ZM656.025 219.04L657.945 215.52C656.985 215.093 655.758 215.2 654.265 215.84C654.692 215.947 655.118 216.053 655.545 216.16C656.078 216.267 656.398 216.32 656.505 216.32L655.065 217.6L656.025 219.04ZM669.945 203.2L668.025 204.8L668.345 205.12C670.372 203.84 671.598 202.88 672.025 202.24C672.558 201.6 672.772 200.587 672.665 199.2L671.705 199.84C671.172 201.44 670.585 202.56 669.945 203.2ZM689.625 237.6C688.985 237.813 688.612 237.92 688.505 237.92C688.612 238.453 688.665 238.773 688.665 238.88C688.665 239.093 688.505 239.307 688.185 239.52C687.865 239.84 687.652 240.053 687.545 240.16C688.398 240.267 688.932 240.16 689.145 239.84C689.358 239.627 689.518 238.88 689.625 237.6ZM680.345 186.4C680.345 186.08 680.292 185.813 680.185 185.6L679.065 186.24C679.065 186.347 679.118 186.507 679.225 186.72C679.652 186.507 680.025 186.4 680.345 186.4ZM672.665 197.12C671.812 197.12 671.598 197.44 672.025 198.08C672.025 198.187 672.078 198.293 672.185 198.4C672.398 198.507 672.558 198.507 672.665 198.4C672.878 198.4 672.878 197.973 672.665 197.12ZM681.625 242.72L682.905 241.28C681.945 241.28 681.518 241.76 681.625 242.72ZM671.385 198.08C671.278 198.08 671.065 198.027 670.745 197.92C670.532 197.813 670.318 197.76 670.105 197.76C669.998 197.76 669.892 197.92 669.785 198.24C670.212 198.133 670.745 198.08 671.385 198.08ZM658.745 214.4C658.318 214.187 658.052 214.08 657.945 214.08L657.625 214.4L657.785 214.56C657.998 214.667 658.158 214.72 658.265 214.72C658.372 214.613 658.532 214.507 658.745 214.4ZM685.305 233.76C686.265 233.44 687.332 233.013 688.505 232.48V232.16L685.465 232.48C685.465 232.693 685.412 232.96 685.305 233.28C685.305 233.493 685.305 233.653 685.305 233.76ZM766.828 217.12C766.188 217.227 765.708 217.493 765.388 217.92C765.068 218.347 764.748 218.88 764.428 219.52C764.108 220.053 763.841 220.48 763.628 220.8C763.521 221.013 763.308 221.333 762.988 221.76C762.668 222.187 762.454 222.507 762.348 222.72L761.548 224C761.014 225.28 760.214 226.187 759.148 226.72C758.401 226.827 757.814 227.413 757.388 228.48C757.281 228.907 756.908 229.333 756.268 229.76C756.054 229.973 755.681 230.293 755.148 230.72C754.614 231.147 754.241 231.52 754.028 231.84C753.601 232.373 752.694 233.067 751.308 233.92C748.108 235.413 745.708 236.213 744.108 236.32C743.681 236.32 743.361 236.373 743.148 236.48C740.374 237.76 737.014 238.24 733.068 237.92C730.721 237.707 729.068 237.387 728.108 236.96C727.148 236.64 725.814 235.947 724.108 234.88C724.108 232.427 723.201 230.987 721.388 230.56L721.868 229.76L720.428 228C720.428 228.64 720.374 229.067 720.268 229.28L718.668 228.16L719.628 225.76C719.308 225.547 718.721 225.333 717.868 225.12C718.508 224.053 718.348 222.4 717.388 220.16C716.961 219.093 717.068 217.973 717.708 216.8C718.028 215.947 718.134 215.2 718.028 214.56C717.921 214.347 717.974 214.027 718.188 213.6C718.401 213.387 718.508 213.173 718.508 212.96C718.828 212.32 718.988 211.947 718.988 211.84C718.668 210.667 718.934 209.44 719.788 208.16C719.894 208.053 720.108 207.573 720.428 206.72C720.854 205.76 721.334 205.067 721.868 204.64C722.508 204.107 722.934 203.2 723.148 201.92C723.361 200.427 723.894 199.467 724.747 199.04C724.854 198.933 725.068 198.613 725.388 198.08L726.028 196.8C726.454 195.947 726.988 195.467 727.628 195.36C727.734 194.72 728.268 193.973 729.228 193.12C730.188 192.16 730.721 191.307 730.828 190.56C730.934 190.347 731.148 189.973 731.468 189.44C731.894 188.8 732.161 188.427 732.268 188.32L733.548 186.08C733.654 185.973 733.814 185.653 734.028 185.12C734.348 184.587 734.668 184.107 734.988 183.68C735.414 183.147 735.841 182.933 736.268 183.04C736.481 182.4 736.961 181.707 737.707 180.96C738.454 180.213 739.148 179.627 739.788 179.2C740.428 178.667 741.121 178.187 741.868 177.76L742.988 176.96C743.521 176.64 743.894 176.853 744.108 177.6C744.428 178.24 744.854 178.347 745.388 177.92C745.601 177.707 745.868 177.44 746.188 177.12C746.508 176.693 746.721 176.427 746.828 176.32L747.308 175.84C747.948 175.733 748.428 175.947 748.748 176.48C749.068 176.907 749.548 176.96 750.188 176.64C751.148 175.893 752.001 175.52 752.748 175.52C753.281 175.52 755.094 175.307 758.188 174.88C761.388 174.453 763.841 174.293 765.548 174.4C767.681 174.507 769.921 175.627 772.268 177.76C772.588 177.973 772.748 178.24 772.748 178.56C773.601 183.36 773.654 186.187 772.908 187.04L770.348 190.4C770.988 190.293 771.468 190.56 771.788 191.2C772.214 191.733 772.801 191.893 773.548 191.68L773.708 196.16C773.388 197.12 772.481 197.813 770.988 198.24C770.028 198.56 769.654 199.147 769.868 200C770.081 201.173 770.028 202.133 769.708 202.88V203.52C770.241 204.48 770.454 205.173 770.348 205.6C770.348 206.027 770.134 206.667 769.708 207.52C769.281 208.373 769.014 209.067 768.908 209.6C769.548 210.24 769.388 211.36 768.428 212.96C767.788 213.707 767.254 215.093 766.828 217.12ZM761.068 199.04C759.574 198.72 758.774 198.187 758.668 197.44C758.561 197.12 758.614 196.853 758.828 196.64C759.041 196.32 759.094 196.107 758.988 196C758.561 194.933 758.881 194.24 759.948 193.92C760.801 193.6 761.334 192.747 761.548 191.36C762.294 191.253 763.148 190.987 764.108 190.56C765.174 190.027 766.081 189.707 766.828 189.6L769.548 186.4C769.868 186.08 769.868 185.653 769.548 185.12C768.054 183.093 766.881 182.027 766.028 181.92C764.534 181.493 763.414 181.12 762.668 180.8C761.281 180.267 759.788 180.48 758.188 181.44C755.308 183.253 753.174 185.6 751.788 188.48C751.148 189.653 749.761 192.693 747.628 197.6C747.521 197.813 747.361 198.24 747.148 198.88C746.934 199.52 746.721 200 746.508 200.32C745.974 200.96 745.494 201.76 745.068 202.72C744.641 203.573 744.214 204.64 743.788 205.92C743.468 207.093 743.201 207.947 742.988 208.48C742.668 209.12 741.974 211.253 740.908 214.88C740.054 217.333 739.894 219.36 740.428 220.96C740.428 221.493 740.481 221.92 740.588 222.24C740.801 223.2 741.068 224.107 741.388 224.96H742.348L743.628 224.64C747.788 223.36 751.308 221.28 754.188 218.4C754.614 217.973 755.201 217.333 755.948 216.48C756.801 215.627 757.388 215.04 757.708 214.72C760.801 211.84 761.974 208.48 761.227 204.64C761.121 204.427 761.068 204.107 761.068 203.68C760.854 202.293 760.641 201.44 760.428 201.12C760.001 200.373 760.214 199.68 761.068 199.04ZM829.138 159.36C830.631 160.32 831.804 162.56 832.658 166.08C833.298 168.747 832.924 172.427 831.538 177.12C831.218 178.293 830.524 179.36 829.458 180.32C828.498 181.173 827.591 181.653 826.738 181.76C825.991 181.867 825.458 181.707 825.138 181.28C824.711 180.533 825.031 179.307 826.098 177.6C827.271 175.787 828.124 174.613 828.658 174.08C829.724 172.053 829.938 169.973 829.298 167.84C829.084 167.413 828.498 166.827 827.538 166.08C827.431 165.973 827.218 165.867 826.898 165.76C826.578 165.653 826.364 165.547 826.258 165.44C825.724 164.907 825.138 164.48 824.498 164.16C823.858 163.84 823.324 163.627 822.898 163.52C822.471 163.413 821.778 163.36 820.818 163.36C819.964 163.253 819.378 163.2 819.057 163.2C817.991 163.2 817.458 163.68 817.458 164.64C817.244 166.56 817.618 168.213 818.578 169.6C818.684 169.813 818.844 170.187 819.057 170.72C819.271 171.147 819.431 171.467 819.538 171.68L821.938 177.12C822.791 179.36 823.538 180.907 824.178 181.76C824.391 182.08 824.498 182.613 824.498 183.36C824.604 184 824.711 184.427 824.818 184.64C826.738 189.76 827.858 193.067 828.178 194.56C828.924 196.907 829.724 200.427 830.578 205.12C831.004 208.213 831.164 210.24 831.058 211.2C830.738 212.587 830.791 213.76 831.218 214.72C831.431 215.253 831.431 215.627 831.218 215.84C830.471 216.267 830.098 217.173 830.098 218.56C830.098 219.84 829.938 220.8 829.618 221.44C829.511 221.547 829.031 221.707 828.178 221.92C828.498 222.027 828.818 222.187 829.138 222.4C829.564 222.613 829.831 222.72 829.938 222.72C830.151 223.467 830.151 223.947 829.938 224.16C829.724 224.48 829.404 225.173 828.978 226.24C828.658 227.2 828.284 227.84 827.858 228.16C827.644 228.373 827.431 228.693 827.218 229.12C827.004 229.547 826.844 229.867 826.738 230.08C826.738 230.187 826.684 230.293 826.578 230.4C826.364 231.04 825.938 231.253 825.298 231.04C824.551 230.933 823.911 230.987 823.378 231.2C822.844 231.413 822.311 231.733 821.778 232.16C821.244 232.587 820.818 232.853 820.498 232.96L820.338 233.28C820.338 233.387 820.284 233.44 820.177 233.44C819.431 233.333 818.418 233.547 817.138 234.08C815.858 234.613 814.951 234.88 814.418 234.88C814.311 235.093 814.204 235.36 814.098 235.68L813.938 236L807.538 237.44H806.098C805.671 237.333 805.298 237.44 804.978 237.76C804.764 238.08 804.018 238.56 802.738 239.2C802.631 239.2 801.724 238.933 800.018 238.4C799.484 239.04 798.204 239.947 796.178 241.12C796.071 240.267 796.071 239.733 796.178 239.52C796.284 239.413 796.658 239.253 797.298 239.04L794.738 237.76C794.524 237.44 794.151 237.013 793.618 236.48C793.191 236.053 792.871 235.68 792.658 235.36C792.338 235.787 792.018 236.107 791.698 236.32C791.698 236.427 791.538 236.373 791.218 236.16C790.898 236.053 790.738 236.16 790.738 236.48C790.738 236.587 790.631 236.64 790.418 236.64C790.311 236.64 790.151 236.64 789.938 236.64C789.724 236.747 789.564 236.8 789.458 236.8C788.711 237.013 788.071 237.28 787.538 237.6C786.151 236.213 784.978 235.413 784.018 235.2L782.258 233.44C781.511 232.693 780.924 232.053 780.498 231.52C780.071 231.093 779.858 230.667 779.858 230.24C779.751 229.707 779.538 228.96 779.218 228C779.004 227.04 778.844 226.347 778.738 225.92C778.418 224.427 778.364 222.88 778.578 221.28C778.898 220.213 779.004 219.307 778.898 218.56C778.684 217.707 779.004 216.533 779.858 215.04C781.244 212.48 782.631 210.56 784.018 209.28C784.658 208.64 785.244 208.213 785.778 208C788.551 206.613 790.738 206.027 792.338 206.24C793.191 206.24 793.938 206.293 794.578 206.4L794.258 207.68C794.258 207.893 794.471 208.107 794.898 208.32C795.431 208.533 795.698 208.8 795.698 209.12C795.698 210.613 795.431 211.573 794.898 212L792.338 213.28C789.991 213.493 788.338 214.933 787.378 217.6C786.951 219.2 786.738 221.173 786.738 223.52C786.631 224.053 786.791 224.48 787.218 224.8C787.751 225.12 788.498 225.333 789.458 225.44C790.418 227.36 791.644 228.64 793.138 229.28C793.351 228.853 794.258 228.64 795.858 228.64C797.351 228.747 798.578 228.16 799.538 226.88C799.644 226.347 800.178 225.973 801.138 225.76C801.564 225.653 802.258 225.6 803.218 225.6L803.058 225.12C802.951 225.12 802.738 225.173 802.418 225.28C802.098 225.387 801.884 225.227 801.778 224.8C801.564 224.48 801.671 224.267 802.098 224.16C802.524 223.947 802.738 223.787 802.738 223.68C803.271 222.507 804.071 221.707 805.138 221.28C806.951 220.427 807.964 218.773 808.178 216.32C808.604 214.507 808.818 212.427 808.818 210.08C808.924 209.867 808.924 209.067 808.818 207.68C808.711 206.187 808.658 205.28 808.658 204.96C808.658 203.787 808.604 202.933 808.498 202.4C808.498 202.08 808.444 201.813 808.338 201.6C808.231 201.28 808.071 200.96 807.858 200.64C807.644 200.213 807.484 199.84 807.378 199.52C807.164 199.093 807.004 198.613 806.898 198.08C806.898 197.547 806.898 197.067 806.898 196.64C807.004 196.107 807.004 195.52 806.898 194.88C806.258 194.24 805.884 193.813 805.778 193.6C805.671 193.387 805.671 193.28 805.778 193.28H805.938C806.151 192.64 805.938 192.16 805.298 191.84C805.191 191.733 805.084 191.68 804.978 191.68C805.191 192.32 805.191 192.853 804.978 193.28C804.231 194.347 803.378 195.253 802.418 196C801.564 196.747 800.818 197.173 800.178 197.28C799.644 197.387 799.218 197.227 798.898 196.8C798.791 196.587 798.791 196.32 798.898 196C799.111 195.68 799.378 195.413 799.698 195.2C800.124 194.88 800.498 194.613 800.818 194.4C801.244 194.187 801.618 193.973 801.938 193.76L802.578 193.44L804.658 191.36C804.551 191.04 804.818 190.56 805.458 189.92C806.098 189.28 806.418 188.8 806.418 188.48C806.418 188.16 806.311 188.107 806.098 188.32C805.991 188.427 805.831 188.48 805.618 188.48C805.298 188.373 805.084 188.107 804.978 187.68C804.871 187.147 804.764 186.507 804.658 185.76C804.551 185.013 804.444 184.48 804.338 184.16V183.68C804.551 182.507 804.658 181.76 804.658 181.44C804.658 181.013 804.498 180.213 804.178 179.04C803.964 177.76 803.858 176.96 803.858 176.64C803.324 175.467 803.324 174.293 803.858 173.12C803.964 172.693 804.018 171.893 804.018 170.72C804.018 169.547 804.124 168.8 804.338 168.48C804.764 167.413 805.511 166.24 806.578 164.96C806.791 164.747 807.058 164.533 807.378 164.32C807.804 164 808.124 163.733 808.338 163.52C808.551 163.2 808.711 162.88 808.818 162.56C809.138 161.707 809.724 161.013 810.578 160.48C811.644 159.413 812.658 158.613 813.618 158.08C814.151 157.653 815.004 157.44 816.178 157.44C818.204 157.44 821.031 157.547 824.658 157.76C825.724 157.76 827.218 158.293 829.138 159.36ZM785.938 235.04C786.151 234.4 786.151 233.973 785.938 233.76C785.831 233.44 785.298 232.853 784.338 232C784.871 233.173 785.404 234.187 785.938 235.04ZM789.458 236.8L789.938 235.52C789.511 235.307 789.191 235.093 788.978 234.88C789.191 234.88 789.298 234.827 789.298 234.72C789.404 234.72 789.458 234.667 789.458 234.56V234.4L787.058 233.44L787.378 236.8H789.458ZM807.538 236.32L807.698 236.16V236C807.271 235.893 806.844 235.84 806.418 235.84L806.578 236.32H807.538ZM811.378 235.52L813.618 235.04L812.658 234.08C811.591 234.293 811.164 234.773 811.378 235.52ZM816.658 233.76L818.578 232.48C818.471 232.373 818.418 232.213 818.418 232C817.564 232 817.031 232.107 816.818 232.32C816.711 232.427 816.658 232.907 816.658 233.76ZM799.218 198.88C798.684 200.053 796.978 200.8 794.098 201.12C791.218 201.44 789.511 201.013 788.978 199.84C787.378 196.533 789.031 194.293 793.938 193.12C793.938 193.12 795.271 192.853 797.938 192.32C800.498 191.787 801.778 191.787 801.778 192.32C801.778 192.533 801.724 192.747 801.618 192.96C801.511 193.28 801.244 193.547 800.818 193.76C800.391 193.973 799.911 194.133 799.378 194.24C798.844 194.24 798.311 194.24 797.778 194.24C797.351 194.24 796.978 194.293 796.658 194.4C796.444 194.507 796.391 194.667 796.498 194.88C796.498 195.2 796.764 195.36 797.298 195.36C797.724 195.36 797.831 195.627 797.618 196.16C797.404 196.907 796.604 197.333 795.218 197.44L793.138 197.6C792.818 198.347 793.031 198.72 793.778 198.72C794.311 198.72 794.898 198.667 795.538 198.56C796.178 198.347 796.711 198.187 797.138 198.08C797.671 197.867 797.991 197.76 798.098 197.76C799.164 197.76 799.751 197.867 799.858 198.08C799.858 198.187 799.751 198.347 799.538 198.56L799.218 198.88ZM822.898 233.92C823.858 233.813 824.391 233.227 824.498 232.16C825.564 233.653 824.764 234.56 822.098 234.88C821.884 234.347 822.044 234.027 822.578 233.92C822.684 233.92 822.791 233.92 822.898 233.92ZM820.498 236.64C820.071 236.213 820.018 235.947 820.338 235.84C820.764 235.627 820.978 235.467 820.978 235.36C821.404 236.213 821.244 236.64 820.498 236.64ZM805.298 239.2H807.058L807.218 239.52C806.471 239.52 805.884 239.573 805.458 239.68L805.298 239.2ZM790.418 238.08C789.778 238.293 789.138 238.187 788.497 237.76L790.418 238.08ZM808.818 239.84L809.458 239.36C809.564 239.467 809.618 239.573 809.618 239.68L809.138 240.16C808.924 240.053 808.818 239.947 808.818 239.84ZM901.476 220.48L903.556 219.84C904.196 220.8 904.036 221.493 903.076 221.92C902.863 222.027 902.33 222.507 901.476 223.36C902.436 223.787 903.396 224.373 904.356 225.12L901.316 225.92L902.436 226.4L899.076 228.32L901.796 230.56C901.583 230.667 901.316 230.827 900.996 231.04C900.676 231.147 900.41 231.253 900.196 231.36C899.983 231.467 899.876 231.573 899.876 231.68C899.983 232.213 899.556 232.8 898.596 233.44C898.81 233.76 899.183 234.187 899.716 234.72C899.716 234.933 899.61 235.68 899.396 236.96L897.636 238.24C897.85 238.24 898.116 238.24 898.436 238.24C898.863 238.347 899.13 238.4 899.236 238.4C899.023 238.827 898.916 239.093 898.916 239.2L896.996 239.52L896.196 238.56C894.17 240.16 893.156 242.027 893.156 244.16L892.836 241.6L891.396 241.12C891.396 241.867 891.13 242.453 890.596 242.88C890.063 243.307 889.583 243.52 889.156 243.52C888.836 243.627 888.143 243.733 887.076 243.84L887.716 241.76C886.756 241.227 886.01 241.387 885.476 242.24C884.943 243.307 884.09 243.68 882.916 243.36L883.236 244.8H881.636C881.53 244.16 881.263 243.627 880.836 243.2C880.41 242.773 879.823 242.4 879.076 242.08C878.33 241.76 877.796 241.493 877.476 241.28C877.69 239.893 877.69 238.72 877.476 237.76C877.37 237.547 876.943 237.067 876.196 236.32L877.636 233.44C877.636 232.907 877.53 232 877.316 230.72C877.21 229.44 877.156 228.693 877.156 228.48C877.263 227.627 878.01 226.613 879.396 225.44C879.396 225.333 879.556 225.067 879.876 224.64C880.196 224.213 880.41 223.787 880.516 223.36C880.41 223.36 880.196 223.413 879.876 223.52C879.663 223.52 879.45 223.52 879.236 223.52C879.236 222.56 879.503 221.76 880.036 221.12C880.57 220.48 880.943 219.253 881.156 217.44C881.156 217.333 881.21 216.96 881.316 216.32C881.423 215.573 881.636 215.04 881.956 214.72C882.49 214.187 882.756 213.547 882.756 212.8C882.756 211.733 883.023 211.04 883.556 210.72C884.623 210.293 885.316 209.44 885.636 208.16C885.85 206.987 886.17 205.813 886.596 204.64C887.13 203.36 887.556 202.347 887.876 201.6C888.303 200.853 888.89 199.787 889.636 198.4C890.383 197.013 890.916 196.053 891.236 195.52C892.09 194.027 892.57 192.907 892.676 192.16C892.996 191.627 893.103 191.307 892.996 191.2C892.676 190.56 892.943 189.92 893.796 189.28C893.903 189.173 894.116 188.64 894.436 187.68C894.436 187.467 894.436 187.253 894.436 187.04C894.436 186.827 894.436 186.667 894.436 186.56C894.436 186.347 894.436 186.133 894.436 185.92C894.436 185.6 894.436 185.333 894.436 185.12C891.876 186.613 889.956 188.267 888.676 190.08L884.676 194.08C880.41 197.813 876.996 201.813 874.436 206.08C874.33 206.293 874.01 206.933 873.476 208C872.943 208.96 872.623 209.76 872.516 210.4C872.516 210.72 872.463 210.88 872.356 210.88C871.61 212.16 871.236 213.493 871.236 214.88C871.343 215.52 870.916 216.32 869.956 217.28C869.743 217.493 869.21 217.44 868.356 217.12C867.93 217.227 867.556 217.6 867.236 218.24C867.023 218.88 866.81 219.307 866.596 219.52C866.063 219.84 865.476 220.533 864.836 221.6C864.196 222.56 863.77 223.147 863.556 223.36L862.116 224.96L859.716 230.4C859.503 230.4 859.29 230.347 859.076 230.24C858.543 232.053 856.89 233.813 854.116 235.52C854.116 235.307 854.01 234.987 853.796 234.56C853.69 234.133 853.636 233.867 853.636 233.76L848.516 237.6L844.356 236.32C844.463 236.213 844.516 236.107 844.516 236C844.623 235.787 844.676 235.627 844.676 235.52L841.636 233.6L842.756 233.12L842.916 232.96C842.916 232.853 842.916 232.747 842.916 232.64C842.49 232.427 842.17 232.32 841.956 232.32L841.796 231.84C842.33 231.52 842.33 230.773 841.796 229.6C841.263 228.32 840.996 227.52 840.996 227.2C840.996 225.067 841.263 223.52 841.796 222.56L842.116 221.76C841.583 221.12 841.743 220.107 842.596 218.72C843.236 217.867 843.556 216.907 843.556 215.84C843.77 214.773 844.143 214.027 844.676 213.6C845.53 212.96 845.636 212 844.996 210.72C844.783 209.547 845.103 208.747 845.956 208.32C846.383 208.107 846.863 206.987 847.396 204.96C847.183 204.427 847.076 204.107 847.076 204L848.036 201.76L848.996 199.84C849.103 199.52 849.156 198.987 849.156 198.24C849.263 197.493 849.316 197.013 849.316 196.8C849.85 196.693 850.116 196.267 850.116 195.52C850.116 194.773 850.223 194.24 850.436 193.92C849.69 193.707 848.57 193.493 847.076 193.28C846.863 193.173 846.703 193.067 846.596 192.96H846.436L847.396 192.48L846.276 191.52C846.276 191.413 846.33 191.307 846.436 191.2C848.996 190.667 850.543 190.24 851.076 189.92L852.196 188.64C854.116 186.293 855.29 184.107 855.716 182.08C856.25 180.587 856.783 179.52 857.316 178.88C857.423 178.773 857.53 178.56 857.636 178.24C857.85 177.92 858.01 177.707 858.116 177.6C858.33 177.173 858.596 176.48 858.916 175.52C859.343 174.453 859.716 173.707 860.036 173.28C860.356 172.853 860.57 172.213 860.676 171.36C860.783 170.4 860.836 169.813 860.836 169.6C861.37 168.64 861.743 168.053 861.956 167.84C862.063 167.84 862.383 167.413 862.916 166.56C863.023 166.133 863.236 165.547 863.556 164.8C863.983 163.947 864.25 163.36 864.356 163.04C864.89 162.507 865.05 162.08 864.836 161.76C864.41 160.907 864.73 159.947 865.796 158.88L866.436 158.24C866.543 157.173 866.97 155.68 867.716 153.76C868.57 151.84 869.103 150.4 869.316 149.44C869.53 148.8 870.063 147.68 870.916 146.08C871.236 145.44 871.396 145.067 871.396 144.96C871.396 143.68 871.823 142.027 872.676 140C873.636 137.867 874.223 136.373 874.436 135.52C874.543 135.307 874.863 134.933 875.396 134.4C876.57 133.653 877.21 132.373 877.316 130.56C878.17 129.707 879.13 129.387 880.196 129.6C880.73 129.707 881.156 129.653 881.476 129.44C881.903 129.227 882.276 128.853 882.596 128.32C883.023 127.68 883.343 127.253 883.556 127.04C884.09 126.187 884.41 125.6 884.516 125.28C884.516 124.32 884.57 123.84 884.676 123.84C886.063 123.627 886.916 123.573 887.236 123.68C888.516 124.107 889.423 124.16 889.956 123.84H890.436C891.29 124.16 892.623 124.427 894.436 124.64C896.356 124.747 897.85 125.013 898.916 125.44C900.516 126.293 901.37 127.413 901.476 128.8C902.01 131.04 901.85 133.013 900.996 134.72C900.57 135.467 900.036 136.587 899.396 138.08C898.756 139.573 898.17 140.693 897.636 141.44C895.29 146.24 893.956 148.8 893.636 149.12C893.53 149.227 893.21 149.973 892.676 151.36L891.556 153.92C890.276 156.053 889.316 157.92 888.676 159.52C888.25 162.08 887.823 163.947 887.396 165.12C887.396 165.333 887.13 166.027 886.596 167.2L886.276 167.52L883.716 172.32C884.25 172.213 884.89 172.16 885.636 172.16C885.21 174.933 884.25 176.693 882.756 177.44C881.37 177.973 880.623 178.987 880.516 180.48C880.09 181.653 880.303 182.347 881.156 182.56C881.156 182.88 880.89 183.2 880.356 183.52C879.93 183.733 879.823 184.107 880.036 184.64L883.076 184.32L882.276 186.08C882.276 186.187 882.17 186.347 881.956 186.56C881.743 186.773 881.636 186.933 881.636 187.04C881.636 188.213 880.996 188.64 879.716 188.32C879.823 188.427 880.41 188.8 881.476 189.44C881.263 189.76 880.943 190.24 880.516 190.88C880.09 191.52 879.77 192.107 879.556 192.64C879.343 193.173 879.236 193.76 879.236 194.4L880.196 192.96L882.596 190.88L883.236 190.56C883.663 189.6 884.57 188.533 885.956 187.36C887.45 186.187 888.41 185.333 888.836 184.8L889.156 184.48C889.69 184.267 890.383 183.787 891.236 183.04C892.09 182.187 892.73 181.653 893.156 181.44C895.076 180.587 896.676 179.253 897.956 177.44C899.023 176.053 900.41 175.36 902.116 175.36C905.316 175.36 907.45 175.573 908.516 176C910.116 176.533 911.13 177.707 911.556 179.52L911.876 182.08C912.516 184.32 912.516 187.147 911.876 190.56C911.45 192.16 911.236 193.973 911.236 196C911.556 197.6 911.663 198.56 911.556 198.88C911.343 199.52 911.13 200.053 910.916 200.48C910.81 200.587 910.703 200.747 910.596 200.96C910.49 201.067 910.383 201.227 910.276 201.44C910.276 201.547 910.223 201.707 910.116 201.92C910.01 202.027 909.956 202.187 909.956 202.4C910.063 203.04 909.85 203.893 909.316 204.96C908.89 205.92 908.676 206.72 908.676 207.36L907.236 208.8C907.663 210.293 907.023 211.787 905.316 213.28C904.143 214.24 903.823 215.307 904.356 216.48C904.356 216.587 904.196 217.12 903.876 218.08L903.396 219.68C903.29 219.68 903.13 219.68 902.916 219.68C902.703 219.573 902.436 219.573 902.116 219.68C901.903 219.787 901.69 220.053 901.476 220.48ZM891.716 145.6L892.036 145.92L893.156 144.64C893.37 144.213 893.583 143.787 893.796 143.36C894.01 142.933 894.223 142.453 894.436 141.92C894.65 141.387 894.81 140.96 894.916 140.64C895.343 140 895.876 138.56 896.516 136.32C897.263 134.613 896.516 133.547 894.276 133.12C893.21 135.68 892.356 139.84 891.716 145.6ZM855.556 219.04L857.476 215.52C856.516 215.093 855.29 215.2 853.796 215.84C854.223 215.947 854.65 216.053 855.076 216.16C855.61 216.267 855.93 216.32 856.036 216.32L854.596 217.6L855.556 219.04ZM869.476 203.2L867.556 204.8L867.876 205.12C869.903 203.84 871.13 202.88 871.556 202.24C872.09 201.6 872.303 200.587 872.196 199.2L871.236 199.84C870.703 201.44 870.116 202.56 869.476 203.2ZM889.156 237.6C888.516 237.813 888.143 237.92 888.036 237.92C888.143 238.453 888.196 238.773 888.196 238.88C888.196 239.093 888.036 239.307 887.716 239.52C887.396 239.84 887.183 240.053 887.076 240.16C887.93 240.267 888.463 240.16 888.676 239.84C888.89 239.627 889.05 238.88 889.156 237.6ZM879.876 186.4C879.876 186.08 879.823 185.813 879.716 185.6L878.596 186.24C878.596 186.347 878.65 186.507 878.756 186.72C879.183 186.507 879.556 186.4 879.876 186.4ZM872.196 197.12C871.343 197.12 871.13 197.44 871.556 198.08C871.556 198.187 871.61 198.293 871.716 198.4C871.93 198.507 872.09 198.507 872.196 198.4C872.41 198.4 872.41 197.973 872.196 197.12ZM881.156 242.72L882.436 241.28C881.476 241.28 881.05 241.76 881.156 242.72ZM870.916 198.08C870.81 198.08 870.596 198.027 870.276 197.92C870.063 197.813 869.85 197.76 869.636 197.76C869.53 197.76 869.423 197.92 869.316 198.24C869.743 198.133 870.276 198.08 870.916 198.08ZM858.276 214.4C857.85 214.187 857.583 214.08 857.476 214.08L857.156 214.4L857.316 214.56C857.53 214.667 857.69 214.72 857.796 214.72C857.903 214.613 858.063 214.507 858.276 214.4ZM884.836 233.76C885.796 233.44 886.863 233.013 888.036 232.48V232.16L884.996 232.48C884.996 232.693 884.943 232.96 884.836 233.28C884.836 233.493 884.836 233.653 884.836 233.76ZM922.039 231.84L920.759 229.76C920.439 229.867 920.225 230.08 920.119 230.4L919.639 231.2L918.839 228V226.88C918.945 226.24 918.572 225.76 917.719 225.44L919.799 221.28L918.999 220.8C919.532 218.56 919.745 217.28 919.639 216.96C919.639 216.427 919.905 215.733 920.439 214.88C921.079 214.027 921.292 213.333 921.079 212.8L924.439 200.16C924.865 199.733 925.025 199.2 924.919 198.56C924.705 197.92 924.972 197.333 925.719 196.8C926.145 196.373 926.465 195.68 926.679 194.72C926.679 193.44 927.052 192.64 927.799 192.32C928.439 192 928.599 191.84 928.279 191.84C928.065 191.2 928.385 190.187 929.239 188.8L928.919 188.48L925.719 190.4C923.479 191.573 921.665 191.947 920.279 191.52C919.639 191.413 918.892 191.04 918.039 190.4C917.292 189.867 917.132 189.12 917.559 188.16C917.879 187.307 918.519 186.933 919.479 187.04C921.185 187.573 923.052 186.933 925.079 185.12C928.065 182.987 930.252 181.333 931.639 180.16C932.492 179.52 932.919 178.88 932.919 178.24C932.919 177.28 933.505 176.32 934.679 175.36C936.705 173.973 938.465 173.707 939.959 174.56C940.172 174.667 940.652 174.613 941.399 174.4C942.572 173.76 943.905 173.707 945.399 174.24L950.039 175.52C953.239 176.48 954.305 178.773 953.239 182.4L952.759 184.48C952.759 185.12 952.225 186.773 951.159 189.44C950.839 190.08 950.679 190.453 950.679 190.56C950.679 191.413 950.412 192.64 949.879 194.24C949.452 195.733 949.185 196.587 949.079 196.8C946.412 204.053 944.812 208.8 944.279 211.04C943.745 213.173 943.585 214.933 943.799 216.32C943.905 216.747 943.585 217.387 942.839 218.24C942.199 219.093 941.879 219.733 941.879 220.16C941.879 220.373 941.879 220.853 941.879 221.6C941.985 222.347 941.932 222.827 941.719 223.04C941.505 223.467 941.399 224.32 941.399 225.6C943.319 225.173 944.812 224.747 945.879 224.32C946.199 224.107 946.679 223.627 947.319 222.88C948.065 222.133 948.759 221.653 949.399 221.44C950.039 222.4 950.145 223.787 949.719 225.6C949.399 228.053 948.545 230.187 947.159 232C947.052 232.213 946.519 232.8 945.559 233.76C944.172 235.147 942.679 236.053 941.079 236.48C936.919 237.547 934.572 238.133 934.039 238.24C931.692 238.56 929.345 238.293 926.999 237.44C925.079 236.587 923.959 236 923.639 235.68C922.359 234.4 921.879 233.387 922.199 232.64C922.305 232.533 922.252 232.267 922.039 231.84ZM962.679 153.92V155.04C961.932 155.787 961.559 156.267 961.559 156.48C961.452 157.013 961.239 157.493 960.919 157.92C960.705 158.347 960.439 158.667 960.119 158.88C959.905 159.093 959.532 159.413 958.999 159.84C958.572 160.16 958.252 160.427 958.039 160.64C957.825 160.853 957.505 161.173 957.079 161.6C956.759 162.027 956.545 162.293 956.439 162.4C956.119 162.08 955.799 161.92 955.479 161.92C955.372 161.92 955.212 162.08 954.999 162.4C954.892 162.613 954.785 162.773 954.679 162.88C954.572 163.093 954.519 163.36 954.519 163.68C953.239 163.893 952.492 164 952.279 164L951.959 164.16C951.532 163.84 950.892 163.627 950.039 163.52C949.185 163.413 948.652 163.307 948.439 163.2C947.372 162.773 946.519 162.56 945.879 162.56C945.239 162.667 944.705 162.453 944.279 161.92C943.852 161.28 943.639 160.587 943.639 159.84C943.852 159.307 943.852 158.933 943.639 158.72C943.319 158.293 943.159 157.333 943.159 155.84C943.159 155.627 943.212 155.36 943.319 155.04C943.532 154.613 943.585 154.24 943.479 153.92C943.479 153.6 943.319 153.28 942.999 152.96C942.999 152.747 943.052 152.64 943.159 152.64C943.905 152.107 944.172 150.933 943.959 149.12C943.959 148.373 944.332 147.733 945.079 147.2L947.319 145.12C948.385 145.44 949.025 145.333 949.239 144.8C949.559 144.8 949.825 144.853 950.039 144.96C950.465 145.067 951.052 145.12 951.799 145.12C952.545 145.12 953.132 145.12 953.559 145.12C954.092 145.12 954.892 145.12 955.959 145.12C957.025 145.12 957.825 145.12 958.359 145.12C959.425 145.12 960.385 145.547 961.239 146.4C962.092 147.147 962.465 148.053 962.359 149.12C962.145 150.4 962.252 151.413 962.679 152.16C962.785 152.267 962.839 152.427 962.839 152.64C962.839 152.853 962.785 153.12 962.679 153.44C962.679 153.653 962.679 153.813 962.679 153.92ZM1009.1 236.48C1009.1 236.373 1009.1 236.213 1009.1 236C1009.2 235.893 1009.31 235.787 1009.42 235.68L1004.3 232.8C1003.98 231.733 1003.76 231.04 1003.66 230.72C1003.44 230.293 1003.34 228.8 1003.34 226.24C1003.34 226.027 1003.39 225.92 1003.5 225.92C1003.92 225.813 1004.19 225.653 1004.3 225.44C1004.51 225.227 1004.56 225.067 1004.46 224.96C1004.46 224.747 1004.35 224.48 1004.14 224.16C1004.03 223.733 1003.98 223.467 1003.98 223.36C1003.76 221.12 1003.44 219.787 1003.02 219.36C1003.23 219.147 1003.28 218.667 1003.18 217.92C1003.18 217.173 1003.34 216.693 1003.66 216.48C1004.72 215.413 1005.42 214.08 1005.74 212.48C1005.74 212.16 1005.9 211.733 1006.22 211.2C1006.54 210.667 1006.7 210.347 1006.7 210.24C1007.23 208.533 1007.55 207.627 1007.66 207.52C1007.87 207.093 1008.46 206.24 1009.42 204.96C1010.38 203.68 1011.07 202.453 1011.5 201.28C1011.82 200.64 1011.92 200.267 1011.82 200.16L1012.3 199.04C1013.79 198.08 1014.54 196.747 1014.54 195.04C1014.54 194.4 1014.7 193.973 1015.02 193.76C1016.19 193.333 1016.88 192.107 1017.1 190.08C1017.52 189.76 1018.16 189.387 1019.02 188.96C1018.91 188.853 1018.86 188.693 1018.86 188.48C1018.75 188.587 1018.48 188.693 1018.06 188.8C1017.63 188.907 1017.31 189.067 1017.1 189.28L1014.22 192L1009.1 196.32L1007.02 198.4C1005.74 200.213 1004.67 201.44 1003.82 202.08H1003.66C1003.55 202.72 1003.12 203.467 1002.38 204.32C1001.74 205.067 1001.36 205.653 1001.26 206.08C1001.04 206.613 1000.78 206.933 1000.46 207.04C999.39 207.68 998.59 208.693 998.056 210.08L997.256 211.84C997.256 211.947 997.203 212.107 997.096 212.32C997.096 212.533 997.043 212.693 996.936 212.8C995.763 213.333 994.483 214.88 993.096 217.44C992.883 217.76 992.403 218.507 991.656 219.68C990.91 220.853 990.376 221.76 990.056 222.4C989.736 222.827 989.576 223.36 989.576 224C989.256 225.493 988.723 226.667 987.976 227.52C987.763 227.84 987.55 228.32 987.336 228.96C987.336 229.067 987.283 229.227 987.176 229.44C987.176 229.653 987.123 229.813 987.016 229.92C985.416 230.88 984.296 232.213 983.656 233.92C983.656 234.027 983.176 234.56 982.216 235.52L977.096 239.04C976.67 239.253 976.083 239.253 975.336 239.04C975.23 239.04 974.696 239.413 973.736 240.16C973.096 238.987 972.403 238.773 971.656 239.52C971.123 239.947 970.643 239.947 970.216 239.52C969.79 239.2 969.31 238.933 968.776 238.72C968.243 238.507 967.656 238.293 967.016 238.08C966.376 237.973 965.843 237.867 965.416 237.76L966.856 237.28L964.456 235.84C965.096 235.307 965.416 234.987 965.416 234.88C965.523 234.667 965.363 234.187 964.936 233.44L964.616 232.32C964.403 230.827 963.923 229.813 963.176 229.28C962.963 229.173 962.803 228.96 962.696 228.64C962.696 228.213 962.75 227.893 962.856 227.68C963.176 226.933 963.39 226.133 963.496 225.28C963.71 224.32 963.87 223.307 963.976 222.24C964.083 221.067 964.19 220.213 964.296 219.68C964.51 218.72 964.776 217.92 965.096 217.28C965.31 216.853 965.79 215.52 966.536 213.28C968.563 207.093 970.376 202.933 971.976 200.8C972.083 200.587 972.136 200.267 972.136 199.84C972.243 199.627 972.296 199.413 972.296 199.2C973.043 198.88 973.576 198.24 973.896 197.28C974.11 195.573 974.803 194.72 975.976 194.72C975.976 192.907 976.35 191.68 977.096 191.04L977.256 190.88L978.856 186.72C979.603 184.907 979.976 183.307 979.976 181.92L979.496 179.04C981.096 177.44 982.376 176.48 983.336 176.16C986.856 175.093 989.843 175.573 992.296 177.6C992.51 177.707 992.723 177.973 992.936 178.4C993.79 181.28 994.216 182.827 994.216 183.04C994.323 184.747 994.11 186.933 993.576 189.6C993.363 190.56 992.19 193.6 990.056 198.72C989.203 201.067 988.19 203.147 987.016 204.96L985.096 208.64C984.776 209.173 983.923 211.787 982.536 216.48C982.536 216.693 982.216 217.547 981.576 219.04L981.096 220.8C981.63 220.693 982.003 220.533 982.216 220.32C985.096 217.547 987.923 214.72 990.696 211.84C991.23 211.307 992.083 210.347 993.256 208.96C994.43 207.573 995.336 206.56 995.976 205.92C996.296 205.707 996.83 205.227 997.576 204.48C998.323 203.627 998.91 203.04 999.336 202.72C999.55 202.507 999.71 202.24 999.816 201.92C999.923 201.6 1000.03 201.387 1000.14 201.28L1006.86 194.56C1006.96 194.453 1007.07 194.4 1007.18 194.4H1007.34C1008.4 193.867 1008.94 193.547 1008.94 193.44C1008.94 192.8 1009.84 191.627 1011.66 189.92L1013.42 188.16C1014.7 186.88 1016.03 185.707 1017.42 184.64C1019.55 183.36 1021.31 181.387 1022.7 178.72C1023.23 177.76 1024.19 176.853 1025.58 176C1026.75 175.467 1027.39 174.987 1027.5 174.56L1028.3 174.88C1029.04 175.307 1029.74 175.307 1030.38 174.88C1030.7 174.667 1031.66 174.56 1033.26 174.56C1034.64 174.347 1035.76 174.773 1036.62 175.84C1037.58 176.8 1037.9 177.76 1037.58 178.72C1037.47 179.147 1037.42 179.787 1037.42 180.64C1037.42 181.387 1037.42 181.973 1037.42 182.4C1036.99 184.747 1036.56 186.453 1036.14 187.52C1035.28 189.653 1034.8 191.307 1034.7 192.48C1034.48 194.187 1033.74 196.747 1032.46 200.16L1031.82 201.6C1030.75 205.12 1029.9 207.36 1029.26 208.32C1028.83 208.96 1028.62 209.6 1028.62 210.24C1028.62 210.773 1028.51 211.147 1028.3 211.36C1028.19 211.573 1027.98 211.787 1027.66 212C1027.44 212.107 1027.28 212.267 1027.18 212.48C1026.86 213.013 1026.59 213.76 1026.38 214.72C1026.27 215.573 1026 216.267 1025.58 216.8C1024.51 218.507 1024.24 220.053 1024.78 221.44C1024.78 221.547 1024.72 221.707 1024.62 221.92C1023.55 223.84 1023.55 225.92 1024.62 228.16L1022.7 230.88C1022.59 231.093 1022.54 231.573 1022.54 232.32C1022.54 233.067 1022.22 233.547 1021.58 233.76C1021.47 233.76 1021.1 233.547 1020.46 233.12C1019.92 232.587 1019.39 232.48 1018.86 232.8C1018.86 233.013 1018.96 233.28 1019.18 233.6C1019.39 233.92 1019.5 234.187 1019.5 234.4C1019.5 234.507 1019.28 234.987 1018.86 235.84C1018.64 235.627 1018.32 235.413 1017.9 235.2C1017.79 235.2 1017.1 235.467 1015.82 236V234.88C1015.28 234.773 1014.91 235.04 1014.7 235.68L1014.38 236.48C1014.06 237.013 1013.74 237.333 1013.42 237.44C1011.39 237.44 1009.95 237.12 1009.1 236.48ZM1013.26 220.16C1013.26 220.907 1013.84 221.493 1015.02 221.92C1014.91 221.067 1014.75 220.533 1014.54 220.32C1014.43 220.107 1014 220.053 1013.26 220.16ZM1003.5 228.96L1004.62 230.4C1004.72 230.4 1004.88 230.347 1005.1 230.24L1004.78 228.96H1003.5ZM1017.58 231.84H1017.26C1017.04 232.48 1016.94 232.853 1016.94 232.96C1016.94 233.067 1017.1 233.28 1017.42 233.6C1017.52 233.707 1017.68 233.653 1017.9 233.44V233.12C1017.79 233.013 1017.74 232.907 1017.74 232.8C1017.63 232.587 1017.58 232.267 1017.58 231.84ZM979.176 201.28L979.496 202.4L980.776 201.76C980.776 201.547 980.723 201.44 980.616 201.44C979.976 201.44 979.496 201.387 979.176 201.28Z" fill="white"/>
<path fill-rule="evenodd" clip-rule="evenodd" d="M190.993 235.135H142.298C117.279 235.135 96.9965 214.283 96.9965 188.56C96.9965 178.271 88.8825 169.931 78.877 169.931H200.057V141.986C200.057 116.264 179.775 95.4116 154.756 95.4116H106.056C81.037 95.4116 60.7563 116.264 60.7563 141.986V285.203C60.7563 298.064 70.8961 308.49 83.4063 308.49H177.406C189.915 308.49 200.055 298.065 200.055 285.203V234.202C197.073 234.824 194.038 235.137 190.995 235.135H190.993Z" stroke="white" stroke-opacity="0.8" stroke-width="3"/>
<path fill-rule="evenodd" clip-rule="evenodd" d="M31.6322 184.548C35.3945 155.424 33.28 135.628 41.2757 124.871C42.3585 122.056 43.7066 119.357 45.3009 116.812C21.9784 122.733 27.673 145.068 22.5701 184.548C16.5466 231.171 -15.6741 295.682 25.8089 295.682H34.8676C-6.61436 295.682 25.6052 231.171 31.6322 184.548V184.548Z" stroke="white" stroke-opacity="0.8" stroke-width="3" stroke-linecap="round" stroke-linejoin="round"/>
<path fill-rule="evenodd" clip-rule="evenodd" d="M200.056 234.2C197.073 234.822 194.038 235.136 190.995 235.136H200.056V234.2Z" fill="#CCCCCC"/>
<path fill-rule="evenodd" clip-rule="evenodd" d="M200.055 234.2C197.073 234.822 194.037 235.136 190.994 235.136H142.296C117.278 235.136 96.9951 214.283 96.9951 188.56C96.9951 178.271 88.8833 169.93 78.8755 169.93C68.8678 169.93 60.7549 178.272 60.7549 188.56V285.203C60.7549 298.064 70.8946 308.49 83.4049 308.49H177.405C189.914 308.49 200.055 298.065 200.055 285.203V234.2Z" stroke="white" stroke-opacity="0.8" stroke-width="3" stroke-linecap="round" stroke-linejoin="round"/>
<path fill-rule="evenodd" clip-rule="evenodd" d="M60.7541 285.203V141.986C60.7541 116.264 81.0358 95.4116 106.056 95.4116H83.4052C58.387 95.4116 38.1052 116.264 38.1052 141.986V285.203C38.1052 298.064 48.2461 308.49 60.7552 308.49H83.4052C70.8961 308.49 60.7552 298.064 60.7552 285.203H60.7541Z" stroke="white" stroke-opacity="0.8" stroke-width="3" stroke-linecap="round" stroke-linejoin="round"/>
<path d="M181.935 235.135H133.237C108.217 235.135 87.9357 214.285 87.9357 188.56M60.7542 188.56C60.7542 178.271 68.8682 169.93 78.8748 169.93C88.8825 169.93 96.9955 178.272 96.9955 188.56H60.7542ZM69.8151 188.56C69.8151 186.089 70.7696 183.72 72.4688 181.973C74.1679 180.226 76.4724 179.245 78.8754 179.245C81.2783 179.245 83.5829 180.226 85.282 181.973C86.9812 183.72 87.9357 186.089 87.9357 188.56H69.8151Z" stroke="white" stroke-opacity="0.8" stroke-width="3" stroke-linecap="round" stroke-linejoin="round"/>
<path fill-rule="evenodd" clip-rule="evenodd" d="M78.8761 169.931C88.8827 169.931 96.9956 178.272 96.9956 188.561C96.9956 214.284 117.277 235.134 142.296 235.134H190.994C216.014 235.134 236.296 214.284 236.296 188.561C236.296 178.272 228.183 169.931 218.175 169.931H78.8761Z" stroke="white" stroke-opacity="0.8" stroke-width="3" stroke-linecap="round" stroke-linejoin="round"/>
<path fill-rule="evenodd" clip-rule="evenodd" d="M209.115 169.931H87.9369C97.9435 169.931 106.055 178.272 106.055 188.561C106.055 209.105 122.314 225.821 142.297 225.821H190.994C210.977 225.821 227.235 209.105 227.235 188.561C227.235 178.272 219.123 169.931 209.115 169.931V169.931Z" stroke="white" stroke-opacity="0.8" stroke-width="3" stroke-linecap="round" stroke-linejoin="round"/>
<path d="M70.0796 199.836V216.138M70.0796 225.742V228.071M209.38 169.95H202.585C212.593 169.95 220.705 178.291 220.705 188.58C220.705 209.125 204.448 225.841 184.464 225.841H191.258C211.242 225.841 227.499 209.125 227.499 188.58C227.499 178.291 219.388 169.95 209.38 169.95ZM107.345 95.4307V83.1959C107.347 82.0296 107.798 80.9115 108.6 80.0868C109.402 79.2622 110.49 78.7982 111.624 78.7966H135.812C136.946 78.7979 138.034 79.2617 138.836 80.0865C139.638 80.9113 140.089 82.0295 140.09 83.1959V95.4307H151.091V83.1959C151.091 74.5331 144.236 67.4861 135.812 67.4861H111.624C103.198 67.4861 96.3439 74.5331 96.3439 83.1959V95.4307H107.345Z" stroke="white" stroke-opacity="0.8" stroke-width="3" stroke-linecap="round" stroke-linejoin="round"/>
<path fill-rule="evenodd" clip-rule="evenodd" d="M135.547 78.7773H126.8C127.934 78.7789 129.022 79.2429 129.824 80.0676C130.626 80.8924 131.077 82.0104 131.078 83.1766V95.4115H139.826V83.1766C139.824 82.0103 139.373 80.8923 138.571 80.0676C137.769 79.2429 136.681 78.7789 135.547 78.7773V78.7773Z" stroke="white" stroke-opacity="0.8" stroke-width="3" stroke-linecap="round" stroke-linejoin="round"/>
<path fill-rule="evenodd" clip-rule="evenodd" d="M111.36 67.4668H102.613C94.1868 67.4668 87.3325 74.5126 87.3325 83.1766V95.4114H96.0793V83.1766C96.0793 74.5126 102.934 67.4668 111.36 67.4668Z" stroke="white" stroke-opacity="0.8" stroke-width="3" stroke-linecap="round" stroke-linejoin="round"/>
<path fill-rule="evenodd" clip-rule="evenodd" d="M154.755 104.726H154.673C163.847 111.793 170.335 122.328 172.265 134.451L181.275 141.146L178.404 169.93H190.995V141.986C190.995 121.441 174.738 104.726 154.755 104.726Z" stroke="white" stroke-opacity="0.8" stroke-width="3" stroke-linecap="round" stroke-linejoin="round"/>
<path fill-rule="evenodd" clip-rule="evenodd" d="M190.994 169.931V141.985C190.994 121.44 174.738 104.726 154.755 104.726H106.056C86.0729 104.726 69.8163 121.441 69.8163 141.985V169.93H190.994V169.931Z" stroke="white" stroke-opacity="0.8" stroke-width="3" stroke-linecap="round" stroke-linejoin="round"/>
<path fill-rule="evenodd" clip-rule="evenodd" d="M190.994 169.931V141.985C190.994 121.44 174.738 104.726 154.755 104.726H106.056C86.0729 104.726 69.8163 121.441 69.8163 141.985V169.93H190.994V169.931Z" stroke="white" stroke-opacity="0.8" stroke-width="3" stroke-linecap="round" stroke-linejoin="round"/>
<path fill-rule="evenodd" clip-rule="evenodd" d="M167.817 169.931L166.862 158.736L136.069 143.97L108.239 164.008L108.744 169.931H167.817Z" stroke="white" stroke-opacity="0.8" stroke-width="3" stroke-linecap="round" stroke-linejoin="round"/>
<path fill-rule="evenodd" clip-rule="evenodd" d="M153.737 120.687L122.735 134.975L120.737 155.012L136.071 143.972L166.863 158.736L167.817 169.931H178.405L181.275 141.146L153.737 120.687Z" stroke="white" stroke-opacity="0.8" stroke-width="3" stroke-linecap="round" stroke-linejoin="round"/>
<path fill-rule="evenodd" clip-rule="evenodd" d="M120.735 155.012L122.734 134.975L128.513 132.313L105.849 126.069L81.8254 150.768L86.8191 169.931H108.743L108.239 164.008L120.735 155.012ZM133.237 235.135C121.542 235.135 110.884 230.577 102.847 223.098V252.212C102.847 254.683 103.802 257.052 105.501 258.799C107.2 260.546 109.505 261.528 111.908 261.528H171.554C173.956 261.527 176.26 260.545 177.959 258.799C179.658 257.052 180.612 254.682 180.612 252.212V235.135H133.237Z" stroke="white" stroke-opacity="0.8" stroke-width="3" stroke-linecap="round" stroke-linejoin="round"/>
<path fill-rule="evenodd" clip-rule="evenodd" d="M133.237 235.135C121.542 235.135 110.884 230.578 102.847 223.098V252.212C102.847 254.683 103.802 257.052 105.501 258.799C107.2 260.546 109.505 261.528 111.908 261.528H144.373C146.776 261.527 149.08 260.546 150.779 258.799C152.478 257.052 153.432 254.683 153.432 252.212V235.135H133.238H133.237Z" stroke="white" stroke-opacity="0.8" stroke-width="3" stroke-linecap="round" stroke-linejoin="round"/>
<path fill-rule="evenodd" clip-rule="evenodd" d="M133.237 235.135C126.651 235.141 120.144 233.665 114.173 230.81V252.212C114.173 254.682 115.127 257.052 116.826 258.799C118.524 260.546 120.829 261.527 123.231 261.528H171.554C173.957 261.527 176.261 260.546 177.959 258.799C179.658 257.052 180.612 254.682 180.612 252.212V235.135H133.237ZM83.4052 285.203V273.559H38.1052V285.203C38.1052 298.064 48.2472 308.49 60.7575 308.49H106.057C93.5472 308.49 83.4075 298.064 83.4075 285.203H83.4052Z" stroke="white" stroke-opacity="0.8" stroke-width="3" stroke-linecap="round" stroke-linejoin="round"/>
<g filter="url(#filter0_d)">
<path d="M221.672 0H150.014C149.633 0 149.259 0.188242 149.015 0.552507C148.481 1.34875 148.719 2.48504 149.375 2.92655L166.088 14.1755C166.09 14.1765 166.091 14.1786 166.092 14.1811L169.983 46.6069C170.122 47.7303 171.19 48.3062 171.935 47.6446L188.258 33.1481C188.26 33.1465 188.263 33.1463 188.265 33.1477L199.832 41.0996C200.384 41.4786 201.095 41.2703 201.454 40.6246L213.616 18.7716C214.009 18.066 213.87 17.096 213.305 16.6052C212.741 16.1142 211.965 16.2886 211.572 16.9941L200.053 37.6918C200.051 37.6949 200.048 37.6959 200.045 37.6941L176.977 21.8358C176.972 21.8327 176.973 21.8242 176.978 21.8219L218.501 4.52194C218.506 4.51966 218.511 4.52753 218.507 4.53333L215.065 10.7184C214.673 11.4216 214.764 12.4144 215.317 12.921C215.884 13.4403 216.677 13.2713 217.076 12.5552L222.703 2.44486C222.738 2.38129 222.77 2.31233 222.798 2.24254C223.202 1.21705 222.579 0 221.672 0ZM185.83 31.4736C185.833 31.4763 185.834 31.4834 185.83 31.4865L172.838 43.0247C172.834 43.0284 172.828 43.0241 172.828 43.0174L174.863 23.9462C174.863 23.9411 174.868 23.9382 174.872 23.9406L185.83 31.4736ZM205.766 6.54662L173.477 19.9998C173.031 20.1862 172.698 20.6881 172.636 21.2705L171.147 35.2279C171.146 35.2366 171.136 35.2366 171.135 35.2281L168.643 14.4608C168.643 14.4567 168.645 14.453 168.648 14.4524L205.763 6.53192C205.771 6.53026 205.773 6.54352 205.766 6.54662ZM206.92 3.12742L167.445 11.5515C167.443 11.5517 167.442 11.5515 167.441 11.5507L154.924 3.1268C154.919 3.12307 154.921 3.11251 154.927 3.11251H206.919C206.926 3.11251 206.927 3.12597 206.92 3.12742Z" fill="white" fill-opacity="0.8"/>
</g>
<path d="M150.366 69.4422C150.207 69.4489 150.046 69.4672 149.885 69.4967C149.573 69.5539 149.337 70.3169 149.357 71.2011C149.376 72.0501 149.625 72.7021 149.921 72.7021C149.934 72.7021 149.946 72.701 149.958 72.6987C150.1 72.6728 150.243 72.6566 150.383 72.6506C150.696 72.6374 150.946 71.9084 150.941 71.0226C150.936 70.1369 150.678 69.4241 150.366 69.4422Z" fill="white" fill-opacity="0.8"/>
<path d="M159.19 70.3645C158.955 70.1346 158.709 69.9427 158.457 69.794C158.212 69.6484 157.974 70.1312 157.926 70.8717C157.878 71.6118 158.038 72.3298 158.283 72.4751C158.499 72.6028 158.71 72.7672 158.91 72.9633C159.145 73.1929 159.404 72.7937 159.481 72.0857C159.558 71.3679 159.428 70.5974 159.19 70.3645Z" fill="white" fill-opacity="0.8"/>
<path d="M140.851 87.9814C140.794 87.5618 140.76 87.129 140.752 86.6952C140.743 86.1871 140.404 85.7855 139.997 85.7966C139.59 85.8084 139.267 86.2298 139.277 86.7378C139.286 87.2614 139.327 87.7844 139.396 88.2923C139.464 88.7862 139.852 89.1287 140.248 89.0436C140.65 88.9579 140.92 88.4822 140.851 87.9814Z" fill="white" fill-opacity="0.8"/>
<path d="M148.203 104.707C148.005 104.524 147.814 104.286 147.633 104.001C147.412 103.653 147.126 103.842 146.993 104.423C146.861 105.004 146.933 105.757 147.154 106.105C147.388 106.473 147.636 106.78 147.891 107.018C148.143 107.253 148.426 106.863 148.496 106.185C148.56 105.574 148.429 104.919 148.203 104.707Z" fill="white" fill-opacity="0.8"/>
<path d="M150.326 58.9765C150.155 58.5076 149.841 58.4293 149.625 58.8012C149.413 59.1661 149.205 59.5539 149.008 59.9541C148.806 60.3621 148.795 61.0479 148.983 61.4859C149.168 61.9178 149.489 61.9426 149.688 61.5401C149.866 61.179 150.054 60.8287 150.245 60.4993C150.461 60.127 150.497 59.4455 150.326 58.9765Z" fill="white" fill-opacity="0.8"/>
<path d="M142.78 97.7641C142.624 97.4091 142.484 97.0235 142.363 96.6181C142.218 96.1358 141.88 95.9518 141.607 96.2069C141.334 96.4623 141.23 97.0602 141.374 97.5426C141.526 98.0477 141.701 98.5289 141.895 98.9731C142.096 99.4327 142.49 99.4824 142.727 99.0783C142.929 98.7329 142.952 98.1568 142.78 97.7641Z" fill="white" fill-opacity="0.8"/>
<path d="M141.114 75.4237C140.795 75.2199 140.425 75.4425 140.289 75.9207C140.139 76.4478 140.016 76.9666 139.933 77.4206C139.843 77.9223 140.041 78.4392 140.376 78.5754C140.431 78.5977 140.486 78.6083 140.541 78.6083C140.818 78.6083 141.072 78.3324 141.148 77.9132C141.195 77.6538 141.285 77.2256 141.446 76.6584C141.583 76.1802 141.434 75.6274 141.114 75.4237Z" fill="white" fill-opacity="0.8"/>
<path d="M144.857 66.3735C144.619 66.0336 144.276 66.1115 144.091 66.5473C143.908 66.9765 143.733 67.4233 143.571 67.8751C143.406 68.3368 143.476 68.9572 143.727 69.2607C143.976 69.5605 144.32 69.4298 144.483 68.9745C144.629 68.5675 144.787 68.1648 144.952 67.7778C145.137 67.342 145.094 66.7132 144.857 66.3735Z" fill="white" fill-opacity="0.8"/>
<path d="M166.34 75.431C166.144 74.9882 165.921 74.5754 165.679 74.204C165.454 73.859 165.143 73.9773 164.984 74.4683C164.826 74.9592 164.88 75.6366 165.106 75.9815C165.296 76.2733 165.47 76.5952 165.621 76.9382C165.81 77.3645 166.131 77.3775 166.326 76.9668C166.525 76.5506 166.531 75.863 166.34 75.431Z" fill="white" fill-opacity="0.8"/>
<path d="M156.471 107.065C156.419 106.265 156.181 105.756 155.938 105.927C155.752 106.059 155.556 106.147 155.356 106.187L155.321 106.194C155.074 106.235 154.883 106.93 154.896 107.747C154.908 108.539 155.106 109.154 155.343 109.154C155.35 109.154 155.358 109.154 155.366 109.152L155.411 109.144C155.655 109.095 155.896 108.987 156.126 108.824C156.368 108.652 156.523 107.865 156.471 107.065Z" fill="white" fill-opacity="0.8"/>
<path d="M171.233 83.6229C171.201 83.062 171.124 82.5196 171.005 82.0108C170.891 81.5228 170.502 81.2503 170.137 81.4026C169.772 81.5545 169.568 82.0735 169.682 82.5616C169.77 82.9383 169.827 83.344 169.851 83.7672C169.881 84.27 170.22 84.6571 170.596 84.6178C170.973 84.5784 171.263 84.1258 171.233 83.6229Z" fill="white" fill-opacity="0.8"/>
<path d="M169.335 91.9704C169.008 91.8224 168.664 92.1087 168.567 92.6103C168.486 93.0282 168.382 93.4381 168.257 93.8286C168.106 94.2978 168.232 94.8656 168.538 95.0965C168.841 95.3246 169.217 95.1276 169.366 94.6647C169.522 94.178 169.653 93.6673 169.753 93.1468C169.85 92.6452 169.663 92.1184 169.335 91.9704Z" fill="white" fill-opacity="0.8"/>
<path d="M157.097 53.6315C156.986 53.0304 156.707 52.7723 156.472 53.0546C156.242 53.3316 156.013 53.6335 155.794 53.952C155.618 54.2061 155.524 54.736 155.565 55.2417C155.61 55.7938 155.805 56.2004 156.025 56.2004C156.104 56.2004 156.183 56.1502 156.256 56.0444C156.455 55.7558 156.662 55.4818 156.871 55.2304C157.106 54.9481 157.207 54.2322 157.097 53.6315Z" fill="white" fill-opacity="0.8"/>
<path d="M164.202 101.338C164.014 100.896 163.703 100.878 163.505 101.298C163.342 101.644 163.165 101.957 162.977 102.228C162.749 102.558 162.683 103.241 162.831 103.753C162.976 104.258 163.286 104.408 163.512 104.082C163.751 103.736 163.977 103.338 164.184 102.898C164.381 102.478 164.389 101.78 164.202 101.338Z" fill="white" fill-opacity="0.8"/>
<path d="M164.789 50.9571C164.707 50.1734 164.393 49.708 164.088 49.9169C163.933 50.0228 163.779 50.1363 163.628 50.2538C163.341 50.4782 163.168 51.2608 163.239 52.0083C163.316 52.8172 163.652 53.3074 163.962 53.0649C164.1 52.957 164.242 52.8532 164.383 52.756C164.689 52.5466 164.87 51.7412 164.789 50.9571Z" fill="white" fill-opacity="0.8"/>
<path d="M125.406 128.304C125.328 128.034 125.252 127.759 125.18 127.485C125.023 126.884 124.622 126.624 124.285 126.904C123.947 127.184 123.801 127.898 123.959 128.499C124.038 128.802 124.122 129.107 124.208 129.405C124.377 129.986 124.789 130.221 125.116 129.921C125.447 129.617 125.576 128.893 125.406 128.304Z" fill="white" fill-opacity="0.8"/>
<path d="M122.957 119.046C122.871 118.618 122.796 118.182 122.735 117.749C122.664 117.238 122.31 116.904 121.944 117.004C121.578 117.104 121.339 117.599 121.41 118.111C121.478 118.595 121.562 119.083 121.659 119.562C121.759 120.056 122.139 120.352 122.493 120.211C122.851 120.069 123.059 119.547 122.957 119.046Z" fill="white" fill-opacity="0.8"/>
<path d="M121.673 106.694C121.244 106.662 120.873 107.052 120.846 107.565C120.826 107.931 120.816 108.301 120.816 108.667C120.816 109.002 120.806 109.328 120.991 109.604C121.141 109.827 121.375 109.96 121.615 109.952C121.853 109.946 122.08 109.806 122.222 109.578C122.395 109.302 122.374 108.994 122.374 108.667C122.374 108.341 122.383 108.01 122.4 107.684C122.428 107.17 122.102 106.727 121.673 106.694Z" fill="white" fill-opacity="0.8"/>
<path d="M122.796 96.6055C122.449 96.4445 122.078 96.7182 121.966 97.2159C121.859 97.6897 121.765 98.1743 121.686 98.6563C121.603 99.1654 121.823 99.6752 122.177 99.795C122.528 99.9132 122.889 99.5921 122.971 99.0898C123.042 98.6577 123.126 98.223 123.222 97.798C123.334 97.3 123.143 96.766 122.796 96.6055Z" fill="white" fill-opacity="0.8"/>
<path d="M130.354 79.4756C130.155 79.0523 129.825 79.0365 129.616 79.4403C129.562 79.5436 129.509 79.6488 129.457 79.7555C129.315 80.0418 129.176 80.3444 129.042 80.6552C128.852 81.0956 128.874 81.7649 129.092 82.1499C129.306 82.5298 129.641 82.4842 129.829 82.0497C129.947 81.7744 130.071 81.5066 130.195 81.2537C130.242 81.1589 130.289 81.0653 130.337 80.9734C130.546 80.5692 130.553 79.8989 130.354 79.4756Z" fill="white" fill-opacity="0.8"/>
<path d="M125.742 87.3345C125.469 87.0491 125.112 87.1941 124.944 87.6582C124.785 88.0978 124.635 88.5545 124.496 89.0156C124.351 89.5011 124.464 90.0955 124.749 90.343C125.031 90.5877 125.386 90.3911 125.53 89.9121C125.654 89.4977 125.789 89.087 125.932 88.6921C126.1 88.2278 126.015 87.62 125.742 87.3345Z" fill="white" fill-opacity="0.8"/>
<path d="M136.451 74.5198C136.283 73.882 135.92 73.6738 135.639 74.0548C135.496 74.2485 135.353 74.4528 135.214 74.6621C134.942 75.0732 134.867 75.9081 135.048 76.5272C135.227 77.1379 135.6 77.31 135.869 76.9045C135.993 76.7186 136.119 76.5371 136.246 76.365C136.527 75.9838 136.619 75.1577 136.451 74.5198Z" fill="white" fill-opacity="0.8"/>
<defs>
<filter id="filter0_d" x="144.721" y="0" width="82.2022" height="55.9248" filterUnits="userSpaceOnUse" color-interpolation-filters="sRGB">
<feFlood flood-opacity="0" result="BackgroundImageFix"/>
<feColorMatrix in="SourceAlpha" type="matrix" values="0 0 0 0 0 0 0 0 0 0 0 0 0 0 0 0 0 0 127 0"/>
<feOffset dy="4"/>
<feGaussianBlur stdDeviation="2"/>
<feColorMatrix type="matrix" values="0 0 0 0 0 0 0 0 0 0 0 0 0 0 0 0 0 0 0.25 0"/>
<feBlend mode="normal" in2="BackgroundImageFix" result="effect1_dropShadow"/>
<feBlend mode="normal" in="SourceGraphic" in2="effect1_dropShadow" result="shape"/>
</filter>
</defs>
</svg>
