<svg width="1161" height="407" viewBox="0 0 1161 407" fill="none" xmlns="http://www.w3.org/2000/svg">
<rect width="1161" height="407" fill="#0E1111"/>
<path d="M420.204 276.96L418.924 276.16C418.818 276.267 418.711 276.373 418.604 276.48C418.071 276.907 418.071 277.387 418.604 277.92C418.391 277.813 418.124 277.653 417.804 277.44C417.591 277.227 417.378 277.013 417.164 276.8C417.058 276.587 416.844 276.48 416.524 276.48C416.311 276.587 416.044 276.8 415.724 277.12C416.151 277.333 416.524 277.493 416.844 277.6C416.631 277.6 416.418 277.6 416.204 277.6C415.991 277.707 415.831 277.76 415.724 277.76C415.404 277.76 414.924 278.187 414.284 279.04C414.284 279.36 414.124 279.52 413.804 279.52C411.671 279.52 410.338 279.413 409.804 279.2C409.058 278.773 408.204 278.453 407.244 278.24C405.964 278.133 405.218 277.28 405.004 275.68C404.684 273.973 404.151 272.48 403.404 271.2C403.084 270.667 403.031 270.24 403.244 269.92C403.991 267.467 404.471 263.733 404.684 258.72C404.684 258.293 404.684 257.333 404.684 255.84C404.791 254.347 404.898 253.227 405.004 252.48C405.004 252.053 405.058 251.413 405.164 250.56C405.378 249.707 405.484 249.12 405.484 248.8C401.751 249.333 399.671 249.6 399.244 249.6C398.178 249.707 397.004 249.813 395.724 249.92C394.551 249.92 393.218 249.973 391.724 250.08C390.338 250.08 389.271 250.08 388.524 250.08C386.604 250.187 383.991 250.453 380.684 250.88C379.938 251.093 379.511 251.36 379.404 251.68C377.911 254.24 376.844 256.853 376.204 259.52C376.098 260.267 375.724 261.173 375.084 262.24C374.551 263.413 373.911 265.173 373.164 267.52C372.524 269.867 372.044 271.52 371.724 272.48C371.404 273.547 370.658 274.293 369.484 274.72C368.311 275.147 367.244 275.093 366.284 274.56C366.178 274.453 365.964 274.293 365.644 274.08C364.471 273.653 364.258 273.067 365.004 272.32C365.431 271.893 365.751 271.467 365.964 271.04C366.178 270.507 366.338 269.92 366.444 269.28C366.658 268.64 366.818 268.16 366.924 267.84C367.671 266.24 368.578 263.733 369.644 260.32C369.964 259.36 370.391 257.867 370.924 255.84C371.564 253.813 372.098 252.213 372.524 251.04C366.551 251.04 362.178 249.813 359.404 247.36L357.964 245.6C358.284 245.493 358.871 245.333 359.724 245.12C360.471 244.907 361.058 244.747 361.484 244.64C363.724 244.213 367.778 243.52 373.644 242.56C374.818 242.347 375.618 241.76 376.044 240.8C377.644 236.32 379.031 232.8 380.204 230.24C380.524 229.387 382.284 225.813 385.484 219.52L388.044 214.4C391.031 208.64 395.031 202.56 400.044 196.16C400.364 195.84 400.791 195.413 401.324 194.88C401.964 194.347 402.391 193.973 402.604 193.76C402.924 193.44 403.458 193.013 404.204 192.48C405.058 191.947 405.591 191.627 405.804 191.52C406.978 190.773 408.418 190.4 410.124 190.4C414.391 190.72 416.578 190.88 416.684 190.88C419.564 191.413 422.071 192.373 424.204 193.76C428.044 196.32 430.444 200.533 431.404 206.4C432.258 212.053 432.684 215.36 432.684 216.32V224.16C432.684 224.693 432.738 225.067 432.844 225.28C433.164 226.667 432.684 229.387 431.404 233.44L429.964 234.88L430.924 235.2C430.818 235.627 430.658 236.267 430.444 237.12C430.338 237.867 430.284 238.4 430.284 238.72C430.284 239.467 430.284 240.693 430.284 242.4C430.391 244.107 430.444 245.333 430.444 246.08C430.551 247.467 430.284 248.853 429.644 250.24C429.218 251.093 429.111 251.893 429.324 252.64C429.431 253.173 429.271 254.24 428.844 255.84C428.844 255.947 428.738 256.32 428.524 256.96C428.418 257.493 428.364 257.867 428.364 258.08C428.364 258.933 428.578 259.573 429.004 260C430.071 260.747 430.178 261.973 429.324 263.68C428.684 264.853 428.578 265.76 429.004 266.4C429.111 266.507 429.111 266.827 429.004 267.36C428.898 267.68 428.844 267.893 428.844 268C428.844 268.853 428.364 270.72 427.404 273.6C427.191 274.133 426.818 274.507 426.284 274.72C425.751 274.933 424.844 275.04 423.564 275.04H422.124C422.018 275.147 421.751 275.307 421.324 275.52C421.004 275.627 420.738 275.787 420.524 276C420.311 276.213 420.204 276.533 420.204 276.96ZM408.364 199.04C407.084 199.573 405.858 200.533 404.684 201.92C404.364 202.347 403.778 202.987 402.924 203.84C402.178 204.693 401.644 205.333 401.324 205.76C400.151 207.147 399.084 208.533 398.124 209.92C396.951 211.733 395.298 214.56 393.164 218.4C391.458 221.6 390.231 224 389.484 225.6C388.844 226.773 387.991 228.427 386.924 230.56C386.711 230.987 386.391 231.573 385.964 232.32C385.644 233.067 385.378 233.653 385.164 234.08C385.058 234.293 384.898 234.667 384.684 235.2C384.471 235.733 384.311 236.107 384.204 236.32C384.098 236.64 383.884 237.12 383.564 237.76C383.351 238.4 383.138 238.987 382.924 239.52C382.818 240.053 382.764 240.587 382.764 241.12C395.458 240.053 403.244 239.627 406.124 239.84L406.604 238.4C406.818 236.693 407.244 233.707 407.884 229.44C409.378 218.347 410.124 210.027 410.124 204.48C410.124 201.92 409.538 200.107 408.364 199.04ZM508.116 221.12L517.716 225.92L518.356 226.4C521.556 229.493 523.476 233.013 524.116 236.96C524.649 239.307 524.916 240.693 524.916 241.12C524.916 243.787 524.756 245.707 524.436 246.88C524.222 247.733 523.849 248.96 523.316 250.56C522.782 252.053 522.462 253.067 522.356 253.6C521.289 256.8 520.009 259.093 518.516 260.48C518.409 260.587 518.249 260.747 518.036 260.96C517.929 261.067 517.769 261.28 517.556 261.6C517.449 261.92 517.342 262.133 517.236 262.24C517.236 262.56 517.182 262.72 517.076 262.72L512.436 267.2C512.329 267.307 511.849 267.733 510.996 268.48C510.142 269.227 509.556 269.813 509.236 270.24C508.062 271.52 506.729 272.32 505.236 272.64C504.809 272.747 504.009 273.067 502.836 273.6C501.769 274.027 500.862 274.187 500.116 274.08C499.902 274.08 499.582 274.293 499.156 274.72C498.836 275.147 498.516 275.413 498.196 275.52C497.662 275.627 496.969 275.893 496.116 276.32C495.262 276.747 494.782 277.013 494.676 277.12L494.356 277.28C492.862 277.067 491.209 277.493 489.396 278.56C489.182 278.56 488.862 278.453 488.436 278.24H486.996C486.142 278.773 484.222 279.04 481.236 279.04C481.022 278.613 480.969 278.347 481.076 278.24C481.182 278.133 481.342 277.973 481.556 277.76C481.876 277.547 482.036 277.333 482.036 277.12C481.396 276.693 480.809 276.747 480.276 277.28C479.529 277.92 478.996 278.24 478.676 278.24C478.462 278.24 477.982 277.973 477.236 277.44C477.129 277.44 476.969 277.387 476.756 277.28C476.222 277.493 475.902 277.6 475.796 277.6C475.796 277.6 475.529 277.44 474.996 277.12C474.569 276.907 474.249 276.747 474.036 276.64L475.956 276.32C475.636 275.573 475.102 275.307 474.356 275.52C473.609 275.627 473.022 275.573 472.596 275.36V275.04C472.489 274.72 472.436 274.4 472.436 274.08H467.476C467.796 273.867 468.276 273.653 468.916 273.44L468.596 273.12C467.956 273.013 467.209 272.427 466.356 271.36C466.036 271.04 464.756 270.293 462.516 269.12C462.089 269.76 461.769 270.133 461.556 270.24C461.449 270.347 461.236 270.453 460.916 270.56C460.702 270.667 460.542 270.827 460.436 271.04C460.222 271.787 459.689 272.053 458.836 271.84C457.876 271.84 457.342 272.267 457.236 273.12L457.076 273.44C456.969 273.653 456.862 273.76 456.756 273.76C456.436 273.76 455.902 273.867 455.156 274.08C454.409 274.293 453.876 274.4 453.556 274.4C453.342 274.293 452.809 274.133 451.956 273.92C451.529 273.6 449.716 273.067 446.516 272.32C446.836 270.827 446.356 269.707 445.076 268.96C444.649 268.64 444.009 267.68 443.156 266.08C443.049 265.973 443.049 265.76 443.156 265.44C443.262 265.013 443.369 264.747 443.476 264.64C443.902 264.32 444.116 263.947 444.116 263.52C444.009 260.427 445.396 254.613 448.276 246.08C449.556 242.453 450.942 238.347 452.436 233.76C453.182 231.52 454.196 228.267 455.476 224C456.756 219.627 457.502 217.067 457.716 216.32C459.102 212.48 459.902 210.133 460.116 209.28C460.222 208.853 461.022 206.027 462.516 200.8C460.916 199.52 460.009 198.72 459.796 198.4L461.716 196.32C462.356 195.467 462.676 194.667 462.676 193.92C462.676 193.387 462.782 192.853 462.996 192.32C463.209 191.787 463.476 191.2 463.796 190.56C464.222 189.92 464.489 189.44 464.596 189.12C464.809 188.48 465.236 188.16 465.876 188.16C466.729 188.053 467.529 188.053 468.276 188.16L477.556 189.44C478.089 189.547 479.102 190.08 480.596 191.04C481.662 192 482.196 193.013 482.196 194.08L482.836 196.8V199.52L483.956 199.04C484.169 198.933 485.396 197.867 487.636 195.84C489.876 193.813 491.582 192.267 492.756 191.2C495.742 188.96 498.462 187.36 500.916 186.4C506.462 184.16 511.316 184.587 515.476 187.68C519.209 190.453 521.236 194.187 521.556 198.88V199.68C520.809 203.947 519.636 207.413 518.036 210.08C517.289 211.36 515.849 213.067 513.716 215.2C511.902 216.8 510.622 218.133 509.876 219.2C509.662 219.52 509.076 220.16 508.116 221.12ZM477.076 238.4L475.796 241.28C474.729 243.84 474.036 245.707 473.716 246.88C473.609 247.307 473.289 248 472.756 248.96C472.329 249.92 472.009 250.773 471.796 251.52C471.689 252.267 471.636 253.067 471.636 253.92C471.636 254.027 471.582 254.133 471.476 254.24C471.262 254.453 471.156 254.613 471.156 254.72C470.302 255.573 470.302 256.533 471.156 257.6C472.222 258.667 473.182 259.893 474.036 261.28C474.782 262.88 475.902 263.893 477.396 264.32C478.996 264.747 480.542 264.533 482.036 263.68C483.422 262.72 487.049 260.533 492.916 257.12C493.876 256.48 494.516 255.84 494.836 255.2C495.369 254.133 496.809 252.32 499.156 249.76C499.476 249.333 500.009 248.747 500.756 248C501.502 247.253 502.089 246.667 502.516 246.24C502.942 245.707 503.422 245.067 503.956 244.32C504.489 243.467 504.916 242.667 505.236 241.92C506.196 239.36 506.676 236.747 506.676 234.08C506.782 232.267 505.929 231.093 504.116 230.56C501.022 229.92 498.569 229.92 496.756 230.56L494.996 231.2C494.676 231.2 493.982 231.253 492.916 231.36C491.956 231.36 491.262 231.413 490.836 231.52C490.409 231.627 489.716 231.787 488.756 232C487.902 232.213 487.049 232.533 486.196 232.96C485.449 233.28 484.596 233.76 483.636 234.4C482.036 235.573 479.849 236.907 477.076 238.4ZM481.876 218.88C483.156 217.813 483.902 217.227 484.116 217.12C484.329 216.907 484.702 216.693 485.236 216.48C485.769 216.16 486.196 215.947 486.516 215.84L487.476 214.88C487.582 214.88 487.742 214.773 487.956 214.56C488.062 214.453 488.169 214.4 488.276 214.4C489.022 214.4 489.769 213.813 490.516 212.64C491.369 211.36 492.222 210.72 493.076 210.72C493.182 210.72 493.342 210.613 493.556 210.4C493.876 210.08 494.516 209.653 495.476 209.12C496.436 208.587 497.022 208 497.236 207.36C497.236 207.147 497.396 206.88 497.716 206.56C497.822 206.56 497.982 206.613 498.196 206.72C498.516 206.72 498.729 206.667 498.836 206.56C498.942 206.453 498.996 206.24 498.996 205.92C498.996 205.6 499.209 205.387 499.636 205.28C500.062 205.067 500.329 204.853 500.436 204.64V204.32C500.542 204.213 500.596 204.107 500.596 204C500.382 203.253 500.916 202.4 502.196 201.44C503.582 199.733 505.289 197.973 507.316 196.16C507.742 195.733 508.009 195.253 508.116 194.72C509.396 192.053 508.649 190.667 505.876 190.56C502.569 190.347 499.902 190.987 497.876 192.48L490.996 196.8C488.756 198.187 486.729 200 484.916 202.24C483.849 203.52 483.369 204.8 483.476 206.08C483.582 206.933 483.422 208.213 482.996 209.92C482.676 211.627 482.516 212.853 482.516 213.6C482.516 214.027 482.409 214.827 482.196 216C482.089 217.173 481.982 218.133 481.876 218.88ZM480.276 275.04L483.316 275.52C482.569 274.133 481.556 273.973 480.276 275.04ZM475.796 273.12C475.902 273.013 475.956 272.853 475.956 272.64H474.836C474.836 272.747 474.782 272.853 474.676 272.96C475.209 272.96 475.582 273.013 475.796 273.12ZM479.636 274.24L479.476 274.08C479.369 273.973 479.262 273.92 479.156 273.92L478.836 274.56C478.942 274.56 478.996 274.613 478.996 274.72L479.316 274.88L479.636 274.24ZM474.356 274.08L473.716 273.28L473.396 273.6C473.609 273.707 473.822 273.973 474.036 274.4C474.249 274.4 474.356 274.293 474.356 274.08ZM588.642 276.96L587.362 276.16C587.255 276.267 587.149 276.373 587.042 276.48C586.509 276.907 586.509 277.387 587.042 277.92C586.829 277.813 586.562 277.653 586.242 277.44C586.029 277.227 585.815 277.013 585.602 276.8C585.495 276.587 585.282 276.48 584.962 276.48C584.749 276.587 584.482 276.8 584.162 277.12C584.589 277.333 584.962 277.493 585.282 277.6C585.069 277.6 584.855 277.6 584.642 277.6C584.429 277.707 584.269 277.76 584.162 277.76C583.842 277.76 583.362 278.187 582.722 279.04C582.722 279.36 582.562 279.52 582.242 279.52C580.109 279.52 578.775 279.413 578.242 279.2C577.495 278.773 576.642 278.453 575.682 278.24C574.402 278.133 573.655 277.28 573.442 275.68C573.122 273.973 572.589 272.48 571.842 271.2C571.522 270.667 571.469 270.24 571.682 269.92C572.429 267.467 572.909 263.733 573.122 258.72C573.122 258.293 573.122 257.333 573.122 255.84C573.229 254.347 573.335 253.227 573.442 252.48C573.442 252.053 573.495 251.413 573.602 250.56C573.815 249.707 573.922 249.12 573.922 248.8C570.189 249.333 568.109 249.6 567.682 249.6C566.615 249.707 565.442 249.813 564.162 249.92C562.989 249.92 561.655 249.973 560.162 250.08C558.775 250.08 557.709 250.08 556.962 250.08C555.042 250.187 552.429 250.453 549.122 250.88C548.375 251.093 547.949 251.36 547.842 251.68C546.349 254.24 545.282 256.853 544.642 259.52C544.535 260.267 544.162 261.173 543.522 262.24C542.989 263.413 542.349 265.173 541.602 267.52C540.962 269.867 540.482 271.52 540.162 272.48C539.842 273.547 539.095 274.293 537.922 274.72C536.749 275.147 535.682 275.093 534.722 274.56C534.615 274.453 534.402 274.293 534.082 274.08C532.909 273.653 532.695 273.067 533.442 272.32C533.869 271.893 534.189 271.467 534.402 271.04C534.615 270.507 534.775 269.92 534.882 269.28C535.095 268.64 535.255 268.16 535.362 267.84C536.109 266.24 537.015 263.733 538.082 260.32C538.402 259.36 538.829 257.867 539.362 255.84C540.002 253.813 540.535 252.213 540.962 251.04C534.989 251.04 530.615 249.813 527.842 247.36L526.402 245.6C526.722 245.493 527.309 245.333 528.162 245.12C528.909 244.907 529.495 244.747 529.922 244.64C532.162 244.213 536.215 243.52 542.082 242.56C543.255 242.347 544.055 241.76 544.482 240.8C546.082 236.32 547.469 232.8 548.642 230.24C548.962 229.387 550.722 225.813 553.922 219.52L556.482 214.4C559.469 208.64 563.469 202.56 568.482 196.16C568.802 195.84 569.229 195.413 569.762 194.88C570.402 194.347 570.829 193.973 571.042 193.76C571.362 193.44 571.895 193.013 572.642 192.48C573.495 191.947 574.029 191.627 574.242 191.52C575.415 190.773 576.855 190.4 578.562 190.4C582.829 190.72 585.015 190.88 585.122 190.88C588.002 191.413 590.509 192.373 592.642 193.76C596.482 196.32 598.882 200.533 599.842 206.4C600.695 212.053 601.122 215.36 601.122 216.32V224.16C601.122 224.693 601.175 225.067 601.282 225.28C601.602 226.667 601.122 229.387 599.842 233.44L598.402 234.88L599.362 235.2C599.255 235.627 599.095 236.267 598.882 237.12C598.775 237.867 598.722 238.4 598.722 238.72C598.722 239.467 598.722 240.693 598.722 242.4C598.829 244.107 598.882 245.333 598.882 246.08C598.989 247.467 598.722 248.853 598.082 250.24C597.655 251.093 597.549 251.893 597.762 252.64C597.869 253.173 597.709 254.24 597.282 255.84C597.282 255.947 597.175 256.32 596.962 256.96C596.855 257.493 596.802 257.867 596.802 258.08C596.802 258.933 597.015 259.573 597.442 260C598.509 260.747 598.615 261.973 597.762 263.68C597.122 264.853 597.015 265.76 597.442 266.4C597.549 266.507 597.549 266.827 597.442 267.36C597.335 267.68 597.282 267.893 597.282 268C597.282 268.853 596.802 270.72 595.842 273.6C595.629 274.133 595.255 274.507 594.722 274.72C594.189 274.933 593.282 275.04 592.002 275.04H590.562C590.455 275.147 590.189 275.307 589.762 275.52C589.442 275.627 589.175 275.787 588.962 276C588.749 276.213 588.642 276.533 588.642 276.96ZM576.802 199.04C575.522 199.573 574.295 200.533 573.122 201.92C572.802 202.347 572.215 202.987 571.362 203.84C570.615 204.693 570.082 205.333 569.762 205.76C568.589 207.147 567.522 208.533 566.562 209.92C565.389 211.733 563.735 214.56 561.602 218.4C559.895 221.6 558.669 224 557.922 225.6C557.282 226.773 556.429 228.427 555.362 230.56C555.149 230.987 554.829 231.573 554.402 232.32C554.082 233.067 553.815 233.653 553.602 234.08C553.495 234.293 553.335 234.667 553.122 235.2C552.909 235.733 552.749 236.107 552.642 236.32C552.535 236.64 552.322 237.12 552.002 237.76C551.789 238.4 551.575 238.987 551.362 239.52C551.255 240.053 551.202 240.587 551.202 241.12C563.895 240.053 571.682 239.627 574.562 239.84L575.042 238.4C575.255 236.693 575.682 233.707 576.322 229.44C577.815 218.347 578.562 210.027 578.562 204.48C578.562 201.92 577.975 200.107 576.802 199.04ZM704.739 256.16H706.659C707.193 256.587 707.246 257.44 706.819 258.72C706.499 259.893 706.393 260.693 706.499 261.12C706.606 261.44 706.233 263.093 705.379 266.08C704.633 266.08 704.046 266.453 703.619 267.2C703.299 267.2 702.766 267.253 702.019 267.36C701.379 267.36 700.846 267.36 700.419 267.36C702.233 266.4 703.246 265.867 703.459 265.76C703.566 265.76 704.259 264.907 705.539 263.2C703.833 261.387 702.446 261.547 701.379 263.68L702.339 264.96L698.819 267.52L698.179 268.32C697.646 268.747 697.593 269.173 698.019 269.6C698.766 269.387 699.139 269.173 699.139 268.96C699.246 268.747 699.139 268.267 698.819 267.52L702.979 268.32C702.766 268.747 702.233 268.96 701.379 268.96C700.526 268.96 700.153 269.387 700.259 270.24C698.126 270.24 696.579 270.56 695.619 271.2C696.366 271.947 697.059 272.16 697.699 271.84C698.979 271.307 700.206 271.307 701.379 271.84C699.993 272.053 698.286 273.067 696.259 274.88C695.299 275.627 694.659 276 694.339 276C693.486 275.893 692.793 276.267 692.259 277.12L690.179 278.72C689.966 278.827 689.646 279.093 689.219 279.52C688.579 280.267 687.779 280.32 686.819 279.68C685.646 279.147 684.953 279.093 684.739 279.52C684.633 279.733 684.206 279.84 683.459 279.84C682.073 279.733 680.206 280.107 677.859 280.96C677.753 280.96 677.699 281.12 677.699 281.44L679.299 281.92V282.24H675.939C675.833 282.453 675.673 282.613 675.459 282.72C675.353 282.827 675.139 282.88 674.819 282.88C674.606 282.88 674.393 282.88 674.179 282.88C673.966 282.88 673.753 282.933 673.539 283.04C673.433 283.147 673.379 283.36 673.379 283.68L670.499 282.88V283.04L670.979 281.76C670.659 281.76 670.019 281.813 669.059 281.92C668.206 282.133 667.513 282.187 666.979 282.08C666.446 281.973 665.913 281.6 665.379 280.96L668.899 280.48C669.539 280.48 669.966 280.533 670.179 280.64C671.139 281.067 673.006 280.907 675.779 280.16C675.459 279.627 674.926 279.467 674.179 279.68C673.433 279.893 672.899 279.787 672.579 279.36L673.699 278.56C673.486 278.56 672.953 278.507 672.099 278.4C671.353 278.4 670.819 278.4 670.499 278.4C670.179 278.507 669.699 278.667 669.059 278.88C668.526 279.093 668.046 279.467 667.619 280C667.406 279.467 667.139 279.093 666.819 278.88C666.499 278.667 666.073 278.56 665.539 278.56C665.113 278.667 664.793 278.667 664.579 278.56C664.153 278.453 663.619 278.56 662.979 278.88C662.339 279.307 661.806 279.413 661.379 279.2C661.593 279.093 661.859 278.827 662.179 278.4C662.499 277.973 662.819 277.653 663.139 277.44C663.566 277.227 663.993 277.173 664.419 277.28C664.206 277.173 663.513 276.64 662.339 275.68C661.166 274.613 660.099 274.08 659.139 274.08C659.353 273.973 659.673 273.76 660.099 273.44C660.526 273.12 660.846 272.907 661.059 272.8H659.299C658.126 273.013 657.326 273.013 656.899 272.8C656.899 273.013 656.793 273.227 656.579 273.44H656.739C654.179 273.653 652.739 272.533 652.419 270.08C651.993 267.733 651.726 265.973 651.619 264.8C651.513 264.587 651.459 264.32 651.459 264C651.779 263.36 651.779 262.4 651.459 261.12C651.246 259.733 651.246 258.72 651.459 258.08C651.566 257.76 651.726 257.013 651.939 255.84C652.259 254.56 652.526 253.6 652.739 252.96C654.659 249.12 657.326 246.293 660.739 244.48C662.019 243.733 662.979 243.467 663.619 243.68C663.939 244.747 663.406 246.347 662.019 248.48C660.953 249.547 660.259 250.187 659.939 250.4C658.979 251.147 658.286 252.533 657.859 254.56C657.859 254.667 657.699 255.36 657.379 256.64C657.699 257.28 657.859 257.92 657.859 258.56C657.859 260.907 658.766 262.72 660.579 264C660.686 264.107 660.899 264.213 661.219 264.32C661.539 264.533 661.753 264.693 661.859 264.8C662.179 265.76 663.246 266.88 665.059 268.16C666.446 269.12 667.939 269.12 669.539 268.16C670.713 267.413 671.566 267.413 672.099 268.16C672.419 266.987 673.166 266.4 674.339 266.4C675.513 266.293 678.019 265.067 681.859 262.72C682.073 262.507 682.179 262.293 682.179 262.08C682.179 261.867 682.126 261.653 682.019 261.44C681.913 261.227 681.859 261.067 681.859 260.96C681.859 260.747 682.019 260.48 682.339 260.16C682.659 259.733 682.766 259.36 682.659 259.04C682.233 256.907 682.446 255.36 683.299 254.4C683.193 254.187 683.033 253.867 682.819 253.44C682.713 252.907 682.606 252.587 682.499 252.48L681.859 253.6C681.539 253.387 681.379 253.067 681.379 252.64C681.379 252.213 681.539 251.893 681.859 251.68C682.713 251.04 683.033 250.347 682.819 249.6H681.699L680.739 248.96L680.099 246.24C679.779 244.853 679.513 244.053 679.299 243.84C678.979 243.52 678.713 242.987 678.499 242.24C678.286 241.387 678.073 240.853 677.859 240.64L676.259 237.6C676.046 237.067 675.619 236.373 674.979 235.52C674.446 234.667 673.966 233.92 673.539 233.28C673.219 232.533 673.006 231.787 672.899 231.04C672.899 230.933 672.899 230.72 672.899 230.4C673.006 230.08 673.059 229.813 673.059 229.6C673.379 229.813 673.966 230.027 674.819 230.24C674.713 229.6 674.286 229.173 673.539 228.96C673.219 228.853 673.006 228.853 672.899 228.96C672.899 229.067 672.953 229.227 673.059 229.44C673.059 229.547 673.059 229.653 673.059 229.76L670.819 228.48C670.393 227.627 670.126 227.147 670.019 227.04C668.526 224.907 667.939 222.827 668.259 220.8C668.259 220.693 668.313 220.48 668.419 220.16C668.526 219.84 668.579 219.573 668.579 219.36C668.686 219.04 668.633 218.773 668.419 218.56C668.419 218.453 668.366 218.24 668.259 217.92C668.153 217.813 668.153 217.707 668.259 217.6C668.473 216.96 668.473 215.68 668.259 213.76L666.659 211.36L670.179 209.28C669.753 206.4 670.446 204.373 672.259 203.2C672.473 202.987 672.686 202.4 672.899 201.44C672.899 201.333 672.899 201.12 672.899 200.8C672.899 200.48 672.953 200.267 673.059 200.16C673.166 199.947 673.379 199.787 673.699 199.68C673.913 199.68 673.913 199.52 673.699 199.2C673.593 198.88 673.646 198.56 673.859 198.24C674.179 198.027 674.873 197.387 675.939 196.32C677.646 194.507 679.726 193.013 682.179 191.84L686.979 189.76C689.859 188.48 692.953 188 696.259 188.32C696.259 188.533 696.313 188.853 696.419 189.28C696.633 189.707 696.793 190.08 696.899 190.4C699.246 190.613 700.953 190.88 702.019 191.2C702.873 191.413 703.566 191.787 704.099 192.32C704.633 192.853 705.806 193.493 707.619 194.24C708.579 194.667 709.113 195.147 709.219 195.68C709.326 196 709.753 196.427 710.499 196.96C711.886 197.707 712.686 198.933 712.899 200.64L713.539 203.2C713.539 203.413 713.753 203.947 714.179 204.8C714.606 205.653 714.766 206.347 714.659 206.88L714.179 210.72L713.699 213.6L712.899 216.64L710.499 221.28L708.899 221.6C709.113 221.067 709.379 220.213 709.699 219.04C710.126 217.76 710.446 216.8 710.659 216.16C710.873 215.413 711.086 214.4 711.299 213.12C711.513 211.2 711.086 208.533 710.019 205.12C709.806 204.373 709.166 203.36 708.099 202.08C707.993 201.973 707.566 201.653 706.819 201.12C706.179 200.587 705.753 200.107 705.539 199.68C705.326 199.467 705.006 199.04 704.579 198.4C704.259 197.76 704.046 197.333 703.939 197.12C702.553 197.12 701.753 196.853 701.539 196.32C701.326 196.107 701.006 196 700.579 196C698.873 195.467 697.806 195.04 697.379 194.72C697.273 194.72 697.006 194.72 696.579 194.72C696.153 194.72 695.833 194.667 695.619 194.56L696.099 195.68C695.139 196 694.606 196.16 694.499 196.16C691.193 196.373 688.526 198.293 686.499 201.92C686.286 202.347 686.179 202.72 686.179 203.04C686.179 203.253 686.073 203.84 685.859 204.8C685.753 205.76 685.699 206.507 685.699 207.04C685.913 208.853 685.806 210.4 685.379 211.68C685.059 212.64 685.219 213.28 685.859 213.6C685.966 213.707 685.966 213.973 685.859 214.4C685.859 214.72 685.806 214.933 685.699 215.04C685.379 215.467 685.273 215.893 685.379 216.32C685.486 216.64 685.646 216.853 685.859 216.96C686.179 217.28 686.499 217.813 686.819 218.56C687.246 219.2 687.566 219.627 687.779 219.84C687.779 219.947 688.366 220.96 689.539 222.88L691.299 225.92C691.726 226.667 692.153 227.2 692.579 227.52C693.646 228.16 694.019 229.227 693.699 230.72H692.259L691.779 232.8C691.566 233.653 691.566 234.347 691.779 234.88C691.993 234.88 692.259 234.667 692.579 234.24C692.899 233.707 693.273 233.6 693.699 233.92C694.126 234.24 694.019 234.613 693.379 235.04C695.193 236.213 696.099 237.333 696.099 238.4C696.099 238.613 696.153 238.987 696.259 239.52C696.473 239.947 696.579 240.32 696.579 240.64C696.579 240.96 696.473 241.333 696.259 241.76C696.153 242.187 695.833 242.56 695.299 242.88H698.819C698.286 243.2 697.753 243.627 697.219 244.16C698.499 245.013 699.139 245.867 699.139 246.72L700.099 247.36C700.846 244.693 699.993 241.867 697.539 238.88C697.646 238.88 697.806 238.88 698.019 238.88L698.339 238.72C699.193 238.507 699.726 238.453 699.939 238.56C700.153 238.667 700.366 239.147 700.579 240C700.686 240.427 700.899 241.12 701.219 242.08C701.539 243.04 701.753 243.733 701.859 244.16L700.739 245.76L703.939 246.56C704.686 247.093 704.846 247.947 704.419 249.12L703.139 248.8C701.966 248.053 701.113 247.733 700.579 247.84L699.939 249.12C699.299 249.973 699.406 250.453 700.259 250.56C700.686 250.773 700.899 250.88 700.899 250.88L699.939 252.32L701.859 253.28V253.44C701.966 254.507 701.699 255.467 701.059 256.32C700.953 256.427 700.899 256.64 700.899 256.96C700.899 257.173 700.793 257.493 700.579 257.92C700.473 258.347 700.366 258.72 700.259 259.04L701.539 259.68C701.646 259.573 701.753 259.253 701.859 258.72C702.073 258.187 702.446 257.92 702.979 257.92C703.086 258.453 703.139 259.253 703.139 260.32C702.286 260.32 701.646 260.373 701.219 260.48V260.96C701.859 261.173 702.393 261.28 702.819 261.28C703.459 261.387 703.833 261.387 703.939 261.28C704.153 261.067 704.259 260.587 704.259 259.84C704.046 258.773 704.046 258.133 704.259 257.92C704.579 257.813 704.793 257.653 704.899 257.44C705.006 257.227 705.006 256.96 704.899 256.64L704.739 256.16ZM697.379 272.32L694.979 272.96C694.979 273.387 695.033 273.707 695.139 273.92C695.246 274.027 695.459 274.027 695.779 273.92C696.846 273.707 697.379 273.44 697.379 273.12C697.486 272.907 697.486 272.64 697.379 272.32ZM679.939 278.08L680.899 279.36C681.006 279.147 681.273 278.827 681.699 278.4C682.233 277.973 682.393 277.44 682.179 276.8C681.966 276.907 681.219 277.333 679.939 278.08ZM678.979 279.2V278.88L676.419 279.52C677.166 279.947 678.019 279.84 678.979 279.2ZM659.779 269.6C659.459 268.427 658.766 268.053 657.699 268.48C658.553 268.8 659.246 269.173 659.779 269.6ZM665.219 274.72L664.259 276C664.793 276.107 665.113 276.107 665.219 276C665.326 275.893 665.326 275.467 665.219 274.72ZM670.819 273.28L669.539 272.8V273.92L670.819 273.28ZM699.619 259.36C699.513 259.36 699.353 259.253 699.139 259.04L698.499 260L698.819 260.32C699.246 259.893 699.513 259.573 699.619 259.36ZM658.819 269.76L658.179 269.28C657.966 269.493 657.859 269.653 657.859 269.76C657.859 269.973 658.019 270.08 658.339 270.08C658.339 269.973 658.499 269.867 658.819 269.76ZM663.619 272.64L662.339 271.52C662.446 272.053 662.499 272.427 662.499 272.64C662.606 272.747 662.713 272.853 662.819 272.96C663.033 272.96 663.299 272.853 663.619 272.64ZM674.179 281.6H673.059V282.08H674.179V281.6ZM707.459 197.12L708.259 196.64C708.153 196.533 708.099 196.427 708.099 196.32L707.299 196.8C707.299 196.907 707.353 197.013 707.459 197.12ZM685.059 276L684.419 277.28C685.059 277.28 685.273 276.853 685.059 276ZM672.899 276.64H674.019V276.16H672.899V276.64ZM782.549 260.48L784.629 259.84C785.269 260.8 785.109 261.493 784.149 261.92C783.936 262.027 783.403 262.507 782.549 263.36C783.509 263.787 784.469 264.373 785.429 265.12L782.389 265.92L783.509 266.4L780.149 268.32L782.869 270.56C782.656 270.667 782.389 270.827 782.069 271.04C781.749 271.147 781.483 271.253 781.269 271.36C781.056 271.467 780.949 271.573 780.949 271.68C781.056 272.213 780.629 272.8 779.669 273.44C779.883 273.76 780.256 274.187 780.789 274.72C780.789 274.933 780.683 275.68 780.469 276.96L778.709 278.24C778.923 278.24 779.189 278.24 779.509 278.24C779.936 278.347 780.203 278.4 780.309 278.4C780.096 278.827 779.989 279.093 779.989 279.2L778.069 279.52L777.269 278.56C775.243 280.16 774.229 282.027 774.229 284.16L773.909 281.6L772.469 281.12C772.469 281.867 772.203 282.453 771.669 282.88C771.136 283.307 770.656 283.52 770.229 283.52C769.909 283.627 769.216 283.733 768.149 283.84L768.789 281.76C767.829 281.227 767.083 281.387 766.549 282.24C766.016 283.307 765.163 283.68 763.989 283.36L764.309 284.8H762.709C762.603 284.16 762.336 283.627 761.909 283.2C761.483 282.773 760.896 282.4 760.149 282.08C759.403 281.76 758.869 281.493 758.549 281.28C758.763 279.893 758.763 278.72 758.549 277.76C758.443 277.547 758.016 277.067 757.269 276.32L758.709 273.44C758.709 272.907 758.603 272 758.389 270.72C758.283 269.44 758.229 268.693 758.229 268.48C758.336 267.627 759.083 266.613 760.469 265.44C760.469 265.333 760.629 265.067 760.949 264.64C761.269 264.213 761.483 263.787 761.589 263.36C761.483 263.36 761.269 263.413 760.949 263.52C760.736 263.52 760.523 263.52 760.309 263.52C760.309 262.56 760.576 261.76 761.109 261.12C761.643 260.48 762.016 259.253 762.229 257.44C762.229 257.333 762.283 256.96 762.389 256.32C762.496 255.573 762.709 255.04 763.029 254.72C763.563 254.187 763.829 253.547 763.829 252.8C763.829 251.733 764.096 251.04 764.629 250.72C765.696 250.293 766.389 249.44 766.709 248.16C766.923 246.987 767.243 245.813 767.669 244.64C768.203 243.36 768.629 242.347 768.949 241.6C769.376 240.853 769.963 239.787 770.709 238.4C771.456 237.013 771.989 236.053 772.309 235.52C773.163 234.027 773.643 232.907 773.749 232.16C774.069 231.627 774.176 231.307 774.069 231.2C773.749 230.56 774.016 229.92 774.869 229.28C774.976 229.173 775.189 228.64 775.509 227.68C775.509 227.467 775.509 227.253 775.509 227.04C775.509 226.827 775.509 226.667 775.509 226.56C775.509 226.347 775.509 226.133 775.509 225.92C775.509 225.6 775.509 225.333 775.509 225.12C772.949 226.613 771.029 228.267 769.749 230.08L765.749 234.08C761.483 237.813 758.069 241.813 755.509 246.08C755.403 246.293 755.083 246.933 754.549 248C754.016 248.96 753.696 249.76 753.589 250.4C753.589 250.72 753.536 250.88 753.429 250.88C752.683 252.16 752.309 253.493 752.309 254.88C752.416 255.52 751.989 256.32 751.029 257.28C750.816 257.493 750.283 257.44 749.429 257.12C749.003 257.227 748.629 257.6 748.309 258.24C748.096 258.88 747.883 259.307 747.669 259.52C747.136 259.84 746.549 260.533 745.909 261.6C745.269 262.56 744.843 263.147 744.629 263.36L743.189 264.96L740.789 270.4C740.576 270.4 740.363 270.347 740.149 270.24C739.616 272.053 737.963 273.813 735.189 275.52C735.189 275.307 735.083 274.987 734.869 274.56C734.763 274.133 734.709 273.867 734.709 273.76L729.589 277.6L725.429 276.32C725.536 276.213 725.589 276.107 725.589 276C725.696 275.787 725.749 275.627 725.749 275.52L722.709 273.6L723.829 273.12L723.989 272.96C723.989 272.853 723.989 272.747 723.989 272.64C723.563 272.427 723.243 272.32 723.029 272.32L722.869 271.84C723.403 271.52 723.403 270.773 722.869 269.6C722.336 268.32 722.069 267.52 722.069 267.2C722.069 265.067 722.336 263.52 722.869 262.56L723.189 261.76C722.656 261.12 722.816 260.107 723.669 258.72C724.309 257.867 724.629 256.907 724.629 255.84C724.843 254.773 725.216 254.027 725.749 253.6C726.603 252.96 726.709 252 726.069 250.72C725.856 249.547 726.176 248.747 727.029 248.32C727.456 248.107 727.936 246.987 728.469 244.96C728.256 244.427 728.149 244.107 728.149 244L729.109 241.76L730.069 239.84C730.176 239.52 730.229 238.987 730.229 238.24C730.336 237.493 730.389 237.013 730.389 236.8C730.923 236.693 731.189 236.267 731.189 235.52C731.189 234.773 731.296 234.24 731.509 233.92C730.763 233.707 729.643 233.493 728.149 233.28C727.936 233.173 727.776 233.067 727.669 232.96H727.509L728.469 232.48L727.349 231.52C727.349 231.413 727.403 231.307 727.509 231.2C730.069 230.667 731.616 230.24 732.149 229.92L733.269 228.64C735.189 226.293 736.363 224.107 736.789 222.08C737.323 220.587 737.856 219.52 738.389 218.88C738.496 218.773 738.603 218.56 738.709 218.24C738.923 217.92 739.083 217.707 739.189 217.6C739.403 217.173 739.669 216.48 739.989 215.52C740.416 214.453 740.789 213.707 741.109 213.28C741.429 212.853 741.643 212.213 741.749 211.36C741.856 210.4 741.909 209.813 741.909 209.6C742.443 208.64 742.816 208.053 743.029 207.84C743.136 207.84 743.456 207.413 743.989 206.56C744.096 206.133 744.309 205.547 744.629 204.8C745.056 203.947 745.323 203.36 745.429 203.04C745.963 202.507 746.123 202.08 745.909 201.76C745.483 200.907 745.803 199.947 746.869 198.88L747.509 198.24C747.616 197.173 748.043 195.68 748.789 193.76C749.643 191.84 750.176 190.4 750.389 189.44C750.603 188.8 751.136 187.68 751.989 186.08C752.309 185.44 752.469 185.067 752.469 184.96C752.469 183.68 752.896 182.027 753.749 180C754.709 177.867 755.296 176.373 755.509 175.52C755.616 175.307 755.936 174.933 756.469 174.4C757.643 173.653 758.283 172.373 758.389 170.56C759.243 169.707 760.203 169.387 761.269 169.6C761.803 169.707 762.229 169.653 762.549 169.44C762.976 169.227 763.349 168.853 763.669 168.32C764.096 167.68 764.416 167.253 764.629 167.04C765.163 166.187 765.483 165.6 765.589 165.28C765.589 164.32 765.643 163.84 765.749 163.84C767.136 163.627 767.989 163.573 768.309 163.68C769.589 164.107 770.496 164.16 771.029 163.84H771.509C772.363 164.16 773.696 164.427 775.509 164.64C777.429 164.747 778.923 165.013 779.989 165.44C781.589 166.293 782.443 167.413 782.549 168.8C783.083 171.04 782.923 173.013 782.069 174.72C781.643 175.467 781.109 176.587 780.469 178.08C779.829 179.573 779.243 180.693 778.709 181.44C776.363 186.24 775.029 188.8 774.709 189.12C774.603 189.227 774.283 189.973 773.749 191.36L772.629 193.92C771.349 196.053 770.389 197.92 769.749 199.52C769.323 202.08 768.896 203.947 768.469 205.12C768.469 205.333 768.203 206.027 767.669 207.2L767.349 207.52L764.789 212.32C765.323 212.213 765.963 212.16 766.709 212.16C766.283 214.933 765.323 216.693 763.829 217.44C762.443 217.973 761.696 218.987 761.589 220.48C761.163 221.653 761.376 222.347 762.229 222.56C762.229 222.88 761.963 223.2 761.429 223.52C761.003 223.733 760.896 224.107 761.109 224.64L764.149 224.32L763.349 226.08C763.349 226.187 763.243 226.347 763.029 226.56C762.816 226.773 762.709 226.933 762.709 227.04C762.709 228.213 762.069 228.64 760.789 228.32C760.896 228.427 761.483 228.8 762.549 229.44C762.336 229.76 762.016 230.24 761.589 230.88C761.163 231.52 760.843 232.107 760.629 232.64C760.416 233.173 760.309 233.76 760.309 234.4L761.269 232.96L763.669 230.88L764.309 230.56C764.736 229.6 765.643 228.533 767.029 227.36C768.523 226.187 769.483 225.333 769.909 224.8L770.229 224.48C770.763 224.267 771.456 223.787 772.309 223.04C773.163 222.187 773.803 221.653 774.229 221.44C776.149 220.587 777.749 219.253 779.029 217.44C780.096 216.053 781.483 215.36 783.189 215.36C786.389 215.36 788.523 215.573 789.589 216C791.189 216.533 792.203 217.707 792.629 219.52L792.949 222.08C793.589 224.32 793.589 227.147 792.949 230.56C792.523 232.16 792.309 233.973 792.309 236C792.629 237.6 792.736 238.56 792.629 238.88C792.416 239.52 792.203 240.053 791.989 240.48C791.883 240.587 791.776 240.747 791.669 240.96C791.563 241.067 791.456 241.227 791.349 241.44C791.349 241.547 791.296 241.707 791.189 241.92C791.083 242.027 791.029 242.187 791.029 242.4C791.136 243.04 790.923 243.893 790.389 244.96C789.963 245.92 789.749 246.72 789.749 247.36L788.309 248.8C788.736 250.293 788.096 251.787 786.389 253.28C785.216 254.24 784.896 255.307 785.429 256.48C785.429 256.587 785.269 257.12 784.949 258.08L784.469 259.68C784.363 259.68 784.203 259.68 783.989 259.68C783.776 259.573 783.509 259.573 783.189 259.68C782.976 259.787 782.763 260.053 782.549 260.48ZM772.789 185.6L773.109 185.92L774.229 184.64C774.443 184.213 774.656 183.787 774.869 183.36C775.083 182.933 775.296 182.453 775.509 181.92C775.723 181.387 775.883 180.96 775.989 180.64C776.416 180 776.949 178.56 777.589 176.32C778.336 174.613 777.589 173.547 775.349 173.12C774.283 175.68 773.429 179.84 772.789 185.6ZM736.629 259.04L738.549 255.52C737.589 255.093 736.363 255.2 734.869 255.84C735.296 255.947 735.723 256.053 736.149 256.16C736.683 256.267 737.003 256.32 737.109 256.32L735.669 257.6L736.629 259.04ZM750.549 243.2L748.629 244.8L748.949 245.12C750.976 243.84 752.203 242.88 752.629 242.24C753.163 241.6 753.376 240.587 753.269 239.2L752.309 239.84C751.776 241.44 751.189 242.56 750.549 243.2ZM770.229 277.6C769.589 277.813 769.216 277.92 769.109 277.92C769.216 278.453 769.269 278.773 769.269 278.88C769.269 279.093 769.109 279.307 768.789 279.52C768.469 279.84 768.256 280.053 768.149 280.16C769.003 280.267 769.536 280.16 769.749 279.84C769.963 279.627 770.123 278.88 770.229 277.6ZM760.949 226.4C760.949 226.08 760.896 225.813 760.789 225.6L759.669 226.24C759.669 226.347 759.723 226.507 759.829 226.72C760.256 226.507 760.629 226.4 760.949 226.4ZM753.269 237.12C752.416 237.12 752.203 237.44 752.629 238.08C752.629 238.187 752.683 238.293 752.789 238.4C753.003 238.507 753.163 238.507 753.269 238.4C753.483 238.4 753.483 237.973 753.269 237.12ZM762.229 282.72L763.509 281.28C762.549 281.28 762.123 281.76 762.229 282.72ZM751.989 238.08C751.883 238.08 751.669 238.027 751.349 237.92C751.136 237.813 750.923 237.76 750.709 237.76C750.603 237.76 750.496 237.92 750.389 238.24C750.816 238.133 751.349 238.08 751.989 238.08ZM739.349 254.4C738.923 254.187 738.656 254.08 738.549 254.08L738.229 254.4L738.389 254.56C738.603 254.667 738.763 254.72 738.869 254.72C738.976 254.613 739.136 254.507 739.349 254.4ZM765.909 273.76C766.869 273.44 767.936 273.013 769.109 272.48V272.16L766.069 272.48C766.069 272.693 766.016 272.96 765.909 273.28C765.909 273.493 765.909 273.653 765.909 273.76ZM847.432 257.12C846.792 257.227 846.312 257.493 845.992 257.92C845.672 258.347 845.352 258.88 845.032 259.52C844.712 260.053 844.445 260.48 844.232 260.8C844.125 261.013 843.912 261.333 843.592 261.76C843.272 262.187 843.059 262.507 842.952 262.72L842.152 264C841.619 265.28 840.819 266.187 839.752 266.72C839.005 266.827 838.419 267.413 837.992 268.48C837.885 268.907 837.512 269.333 836.872 269.76C836.659 269.973 836.285 270.293 835.752 270.72C835.219 271.147 834.845 271.52 834.632 271.84C834.205 272.373 833.299 273.067 831.912 273.92C828.712 275.413 826.312 276.213 824.712 276.32C824.285 276.32 823.965 276.373 823.752 276.48C820.979 277.76 817.619 278.24 813.672 277.92C811.325 277.707 809.672 277.387 808.712 276.96C807.752 276.64 806.419 275.947 804.712 274.88C804.712 272.427 803.805 270.987 801.992 270.56L802.472 269.76L801.032 268C801.032 268.64 800.979 269.067 800.872 269.28L799.272 268.16L800.232 265.76C799.912 265.547 799.325 265.333 798.472 265.12C799.112 264.053 798.952 262.4 797.992 260.16C797.565 259.093 797.672 257.973 798.312 256.8C798.632 255.947 798.739 255.2 798.632 254.56C798.525 254.347 798.579 254.027 798.792 253.6C799.005 253.387 799.112 253.173 799.112 252.96C799.432 252.32 799.592 251.947 799.592 251.84C799.272 250.667 799.539 249.44 800.392 248.16C800.499 248.053 800.712 247.573 801.032 246.72C801.459 245.76 801.939 245.067 802.472 244.64C803.112 244.107 803.539 243.2 803.752 241.92C803.965 240.427 804.499 239.467 805.352 239.04C805.459 238.933 805.672 238.613 805.992 238.08L806.632 236.8C807.059 235.947 807.592 235.467 808.232 235.36C808.339 234.72 808.872 233.973 809.832 233.12C810.792 232.16 811.325 231.307 811.432 230.56C811.539 230.347 811.752 229.973 812.072 229.44C812.499 228.8 812.765 228.427 812.872 228.32L814.152 226.08C814.259 225.973 814.419 225.653 814.632 225.12C814.952 224.587 815.272 224.107 815.592 223.68C816.019 223.147 816.445 222.933 816.872 223.04C817.085 222.4 817.565 221.707 818.312 220.96C819.059 220.213 819.752 219.627 820.392 219.2C821.032 218.667 821.725 218.187 822.472 217.76L823.592 216.96C824.125 216.64 824.499 216.853 824.712 217.6C825.032 218.24 825.459 218.347 825.992 217.92C826.205 217.707 826.472 217.44 826.792 217.12C827.112 216.693 827.325 216.427 827.432 216.32L827.912 215.84C828.552 215.733 829.032 215.947 829.352 216.48C829.672 216.907 830.152 216.96 830.792 216.64C831.752 215.893 832.605 215.52 833.352 215.52C833.885 215.52 835.699 215.307 838.792 214.88C841.992 214.453 844.445 214.293 846.152 214.4C848.285 214.507 850.525 215.627 852.872 217.76C853.192 217.973 853.352 218.24 853.352 218.56C854.205 223.36 854.259 226.187 853.512 227.04L850.952 230.4C851.592 230.293 852.072 230.56 852.392 231.2C852.819 231.733 853.405 231.893 854.152 231.68L854.312 236.16C853.992 237.12 853.085 237.813 851.592 238.24C850.632 238.56 850.259 239.147 850.472 240C850.685 241.173 850.632 242.133 850.312 242.88V243.52C850.845 244.48 851.059 245.173 850.952 245.6C850.952 246.027 850.739 246.667 850.312 247.52C849.885 248.373 849.619 249.067 849.512 249.6C850.152 250.24 849.992 251.36 849.032 252.96C848.392 253.707 847.859 255.093 847.432 257.12ZM841.672 239.04C840.179 238.72 839.379 238.187 839.272 237.44C839.165 237.12 839.219 236.853 839.432 236.64C839.645 236.32 839.699 236.107 839.592 236C839.165 234.933 839.485 234.24 840.552 233.92C841.405 233.6 841.939 232.747 842.152 231.36C842.899 231.253 843.752 230.987 844.712 230.56C845.779 230.027 846.685 229.707 847.432 229.6L850.152 226.4C850.472 226.08 850.472 225.653 850.152 225.12C848.659 223.093 847.485 222.027 846.632 221.92C845.139 221.493 844.019 221.12 843.272 220.8C841.885 220.267 840.392 220.48 838.792 221.44C835.912 223.253 833.779 225.6 832.392 228.48C831.752 229.653 830.365 232.693 828.232 237.6C828.125 237.813 827.965 238.24 827.752 238.88C827.539 239.52 827.325 240 827.112 240.32C826.579 240.96 826.099 241.76 825.672 242.72C825.245 243.573 824.819 244.64 824.392 245.92C824.072 247.093 823.805 247.947 823.592 248.48C823.272 249.12 822.579 251.253 821.512 254.88C820.659 257.333 820.499 259.36 821.032 260.96C821.032 261.493 821.085 261.92 821.192 262.24C821.405 263.2 821.672 264.107 821.992 264.96H822.952L824.232 264.64C828.392 263.36 831.912 261.28 834.792 258.4C835.219 257.973 835.805 257.333 836.552 256.48C837.405 255.627 837.992 255.04 838.312 254.72C841.405 251.84 842.579 248.48 841.832 244.64C841.725 244.427 841.672 244.107 841.672 243.68C841.459 242.293 841.245 241.44 841.032 241.12C840.605 240.373 840.819 239.68 841.672 239.04ZM909.742 199.36C911.235 200.32 912.409 202.56 913.262 206.08C913.902 208.747 913.529 212.427 912.142 217.12C911.822 218.293 911.129 219.36 910.062 220.32C909.102 221.173 908.195 221.653 907.342 221.76C906.595 221.867 906.062 221.707 905.742 221.28C905.315 220.533 905.635 219.307 906.702 217.6C907.875 215.787 908.729 214.613 909.262 214.08C910.329 212.053 910.542 209.973 909.902 207.84C909.689 207.413 909.102 206.827 908.142 206.08C908.035 205.973 907.822 205.867 907.502 205.76C907.182 205.653 906.969 205.547 906.862 205.44C906.329 204.907 905.742 204.48 905.102 204.16C904.462 203.84 903.929 203.627 903.502 203.52C903.075 203.413 902.382 203.36 901.422 203.36C900.569 203.253 899.982 203.2 899.662 203.2C898.595 203.2 898.062 203.68 898.062 204.64C897.849 206.56 898.222 208.213 899.182 209.6C899.289 209.813 899.449 210.187 899.662 210.72C899.875 211.147 900.035 211.467 900.142 211.68L902.542 217.12C903.395 219.36 904.142 220.907 904.782 221.76C904.995 222.08 905.102 222.613 905.102 223.36C905.209 224 905.315 224.427 905.422 224.64C907.342 229.76 908.462 233.067 908.782 234.56C909.529 236.907 910.329 240.427 911.182 245.12C911.609 248.213 911.769 250.24 911.662 251.2C911.342 252.587 911.395 253.76 911.822 254.72C912.035 255.253 912.035 255.627 911.822 255.84C911.075 256.267 910.702 257.173 910.702 258.56C910.702 259.84 910.542 260.8 910.222 261.44C910.115 261.547 909.635 261.707 908.782 261.92C909.102 262.027 909.422 262.187 909.742 262.4C910.169 262.613 910.435 262.72 910.542 262.72C910.755 263.467 910.755 263.947 910.542 264.16C910.329 264.48 910.009 265.173 909.582 266.24C909.262 267.2 908.889 267.84 908.462 268.16C908.249 268.373 908.035 268.693 907.822 269.12C907.609 269.547 907.449 269.867 907.342 270.08C907.342 270.187 907.289 270.293 907.182 270.4C906.969 271.04 906.542 271.253 905.902 271.04C905.155 270.933 904.515 270.987 903.982 271.2C903.449 271.413 902.915 271.733 902.382 272.16C901.849 272.587 901.422 272.853 901.102 272.96L900.942 273.28C900.942 273.387 900.889 273.44 900.782 273.44C900.035 273.333 899.022 273.547 897.742 274.08C896.462 274.613 895.555 274.88 895.022 274.88C894.915 275.093 894.809 275.36 894.702 275.68L894.542 276L888.142 277.44H886.702C886.275 277.333 885.902 277.44 885.582 277.76C885.369 278.08 884.622 278.56 883.342 279.2C883.235 279.2 882.329 278.933 880.622 278.4C880.089 279.04 878.809 279.947 876.782 281.12C876.675 280.267 876.675 279.733 876.782 279.52C876.889 279.413 877.262 279.253 877.902 279.04L875.342 277.76C875.129 277.44 874.755 277.013 874.222 276.48C873.795 276.053 873.475 275.68 873.262 275.36C872.942 275.787 872.622 276.107 872.302 276.32C872.302 276.427 872.142 276.373 871.822 276.16C871.502 276.053 871.342 276.16 871.342 276.48C871.342 276.587 871.235 276.64 871.022 276.64C870.915 276.64 870.755 276.64 870.542 276.64C870.329 276.747 870.169 276.8 870.062 276.8C869.315 277.013 868.675 277.28 868.142 277.6C866.755 276.213 865.582 275.413 864.622 275.2L862.862 273.44C862.115 272.693 861.529 272.053 861.102 271.52C860.675 271.093 860.462 270.667 860.462 270.24C860.355 269.707 860.142 268.96 859.822 268C859.609 267.04 859.449 266.347 859.342 265.92C859.022 264.427 858.969 262.88 859.182 261.28C859.502 260.213 859.609 259.307 859.502 258.56C859.289 257.707 859.609 256.533 860.462 255.04C861.849 252.48 863.235 250.56 864.622 249.28C865.262 248.64 865.849 248.213 866.382 248C869.155 246.613 871.342 246.027 872.942 246.24C873.795 246.24 874.542 246.293 875.182 246.4L874.862 247.68C874.862 247.893 875.075 248.107 875.502 248.32C876.035 248.533 876.302 248.8 876.302 249.12C876.302 250.613 876.035 251.573 875.502 252L872.942 253.28C870.595 253.493 868.942 254.933 867.982 257.6C867.555 259.2 867.342 261.173 867.342 263.52C867.235 264.053 867.395 264.48 867.822 264.8C868.355 265.12 869.102 265.333 870.062 265.44C871.022 267.36 872.249 268.64 873.742 269.28C873.955 268.853 874.862 268.64 876.462 268.64C877.955 268.747 879.182 268.16 880.142 266.88C880.249 266.347 880.782 265.973 881.742 265.76C882.169 265.653 882.862 265.6 883.822 265.6L883.662 265.12C883.555 265.12 883.342 265.173 883.022 265.28C882.702 265.387 882.489 265.227 882.382 264.8C882.169 264.48 882.275 264.267 882.702 264.16C883.129 263.947 883.342 263.787 883.342 263.68C883.875 262.507 884.675 261.707 885.742 261.28C887.555 260.427 888.569 258.773 888.782 256.32C889.209 254.507 889.422 252.427 889.422 250.08C889.529 249.867 889.529 249.067 889.422 247.68C889.315 246.187 889.262 245.28 889.262 244.96C889.262 243.787 889.209 242.933 889.102 242.4C889.102 242.08 889.049 241.813 888.942 241.6C888.835 241.28 888.675 240.96 888.462 240.64C888.249 240.213 888.089 239.84 887.982 239.52C887.769 239.093 887.609 238.613 887.502 238.08C887.502 237.547 887.502 237.067 887.502 236.64C887.609 236.107 887.609 235.52 887.502 234.88C886.862 234.24 886.489 233.813 886.382 233.6C886.275 233.387 886.275 233.28 886.382 233.28H886.542C886.755 232.64 886.542 232.16 885.902 231.84C885.795 231.733 885.689 231.68 885.582 231.68C885.795 232.32 885.795 232.853 885.582 233.28C884.835 234.347 883.982 235.253 883.022 236C882.169 236.747 881.422 237.173 880.782 237.28C880.249 237.387 879.822 237.227 879.502 236.8C879.395 236.587 879.395 236.32 879.502 236C879.715 235.68 879.982 235.413 880.302 235.2C880.729 234.88 881.102 234.613 881.422 234.4C881.849 234.187 882.222 233.973 882.542 233.76L883.182 233.44L885.262 231.36C885.155 231.04 885.422 230.56 886.062 229.92C886.702 229.28 887.022 228.8 887.022 228.48C887.022 228.16 886.915 228.107 886.702 228.32C886.595 228.427 886.435 228.48 886.222 228.48C885.902 228.373 885.689 228.107 885.582 227.68C885.475 227.147 885.369 226.507 885.262 225.76C885.155 225.013 885.049 224.48 884.942 224.16V223.68C885.155 222.507 885.262 221.76 885.262 221.44C885.262 221.013 885.102 220.213 884.782 219.04C884.569 217.76 884.462 216.96 884.462 216.64C883.929 215.467 883.929 214.293 884.462 213.12C884.569 212.693 884.622 211.893 884.622 210.72C884.622 209.547 884.729 208.8 884.942 208.48C885.369 207.413 886.115 206.24 887.182 204.96C887.395 204.747 887.662 204.533 887.982 204.32C888.409 204 888.729 203.733 888.942 203.52C889.155 203.2 889.315 202.88 889.422 202.56C889.742 201.707 890.329 201.013 891.182 200.48C892.249 199.413 893.262 198.613 894.222 198.08C894.755 197.653 895.609 197.44 896.782 197.44C898.809 197.44 901.635 197.547 905.262 197.76C906.329 197.76 907.822 198.293 909.742 199.36ZM866.542 275.04C866.755 274.4 866.755 273.973 866.542 273.76C866.435 273.44 865.902 272.853 864.942 272C865.475 273.173 866.009 274.187 866.542 275.04ZM870.062 276.8L870.542 275.52C870.115 275.307 869.795 275.093 869.582 274.88C869.795 274.88 869.902 274.827 869.902 274.72C870.009 274.72 870.062 274.667 870.062 274.56V274.4L867.662 273.44L867.982 276.8H870.062ZM888.142 276.32L888.302 276.16V276C887.875 275.893 887.449 275.84 887.022 275.84L887.182 276.32H888.142ZM891.982 275.52L894.222 275.04L893.262 274.08C892.195 274.293 891.769 274.773 891.982 275.52ZM897.262 273.76L899.182 272.48C899.075 272.373 899.022 272.213 899.022 272C898.169 272 897.635 272.107 897.422 272.32C897.315 272.427 897.262 272.907 897.262 273.76ZM879.822 238.88C879.289 240.053 877.582 240.8 874.702 241.12C871.822 241.44 870.115 241.013 869.582 239.84C867.982 236.533 869.635 234.293 874.542 233.12C874.542 233.12 875.875 232.853 878.542 232.32C881.102 231.787 882.382 231.787 882.382 232.32C882.382 232.533 882.329 232.747 882.222 232.96C882.115 233.28 881.849 233.547 881.422 233.76C880.995 233.973 880.515 234.133 879.982 234.24C879.449 234.24 878.915 234.24 878.382 234.24C877.955 234.24 877.582 234.293 877.262 234.4C877.049 234.507 876.995 234.667 877.102 234.88C877.102 235.2 877.369 235.36 877.902 235.36C878.329 235.36 878.435 235.627 878.222 236.16C878.009 236.907 877.209 237.333 875.822 237.44L873.742 237.6C873.422 238.347 873.635 238.72 874.382 238.72C874.915 238.72 875.502 238.667 876.142 238.56C876.782 238.347 877.315 238.187 877.742 238.08C878.275 237.867 878.595 237.76 878.702 237.76C879.769 237.76 880.355 237.867 880.462 238.08C880.462 238.187 880.355 238.347 880.142 238.56L879.822 238.88ZM903.502 273.92C904.462 273.813 904.995 273.227 905.102 272.16C906.169 273.653 905.369 274.56 902.702 274.88C902.489 274.347 902.649 274.027 903.182 273.92C903.289 273.92 903.395 273.92 903.502 273.92ZM901.102 276.64C900.675 276.213 900.622 275.947 900.942 275.84C901.369 275.627 901.582 275.467 901.582 275.36C902.009 276.213 901.849 276.64 901.102 276.64ZM885.902 279.2H887.662L887.822 279.52C887.075 279.52 886.489 279.573 886.062 279.68L885.902 279.2ZM871.022 278.08C870.382 278.293 869.742 278.187 869.102 277.76L871.022 278.08ZM889.422 279.84L890.062 279.36C890.169 279.467 890.222 279.573 890.222 279.68L889.742 280.16C889.529 280.053 889.422 279.947 889.422 279.84ZM982.081 260.48L984.161 259.84C984.801 260.8 984.641 261.493 983.681 261.92C983.467 262.027 982.934 262.507 982.081 263.36C983.041 263.787 984.001 264.373 984.961 265.12L981.921 265.92L983.041 266.4L979.681 268.32L982.401 270.56C982.187 270.667 981.921 270.827 981.601 271.04C981.281 271.147 981.014 271.253 980.801 271.36C980.587 271.467 980.481 271.573 980.481 271.68C980.587 272.213 980.161 272.8 979.201 273.44C979.414 273.76 979.787 274.187 980.321 274.72C980.321 274.933 980.214 275.68 980.001 276.96L978.241 278.24C978.454 278.24 978.721 278.24 979.041 278.24C979.467 278.347 979.734 278.4 979.841 278.4C979.627 278.827 979.521 279.093 979.521 279.2L977.601 279.52L976.801 278.56C974.774 280.16 973.761 282.027 973.761 284.16L973.441 281.6L972.001 281.12C972.001 281.867 971.734 282.453 971.201 282.88C970.667 283.307 970.187 283.52 969.761 283.52C969.441 283.627 968.747 283.733 967.681 283.84L968.321 281.76C967.361 281.227 966.614 281.387 966.081 282.24C965.547 283.307 964.694 283.68 963.521 283.36L963.841 284.8H962.241C962.134 284.16 961.867 283.627 961.441 283.2C961.014 282.773 960.427 282.4 959.681 282.08C958.934 281.76 958.401 281.493 958.081 281.28C958.294 279.893 958.294 278.72 958.081 277.76C957.974 277.547 957.547 277.067 956.801 276.32L958.241 273.44C958.241 272.907 958.134 272 957.921 270.72C957.814 269.44 957.761 268.693 957.761 268.48C957.867 267.627 958.614 266.613 960.001 265.44C960.001 265.333 960.161 265.067 960.481 264.64C960.801 264.213 961.014 263.787 961.121 263.36C961.014 263.36 960.801 263.413 960.481 263.52C960.267 263.52 960.054 263.52 959.841 263.52C959.841 262.56 960.107 261.76 960.641 261.12C961.174 260.48 961.547 259.253 961.761 257.44C961.761 257.333 961.814 256.96 961.921 256.32C962.027 255.573 962.241 255.04 962.561 254.72C963.094 254.187 963.361 253.547 963.361 252.8C963.361 251.733 963.627 251.04 964.161 250.72C965.227 250.293 965.921 249.44 966.241 248.16C966.454 246.987 966.774 245.813 967.201 244.64C967.734 243.36 968.161 242.347 968.481 241.6C968.907 240.853 969.494 239.787 970.241 238.4C970.987 237.013 971.521 236.053 971.841 235.52C972.694 234.027 973.174 232.907 973.281 232.16C973.601 231.627 973.707 231.307 973.601 231.2C973.281 230.56 973.547 229.92 974.401 229.28C974.507 229.173 974.721 228.64 975.041 227.68C975.041 227.467 975.041 227.253 975.041 227.04C975.041 226.827 975.041 226.667 975.041 226.56C975.041 226.347 975.041 226.133 975.041 225.92C975.041 225.6 975.041 225.333 975.041 225.12C972.481 226.613 970.561 228.267 969.281 230.08L965.281 234.08C961.014 237.813 957.601 241.813 955.041 246.08C954.934 246.293 954.614 246.933 954.081 248C953.547 248.96 953.227 249.76 953.121 250.4C953.121 250.72 953.067 250.88 952.961 250.88C952.214 252.16 951.841 253.493 951.841 254.88C951.947 255.52 951.521 256.32 950.561 257.28C950.347 257.493 949.814 257.44 948.961 257.12C948.534 257.227 948.161 257.6 947.841 258.24C947.627 258.88 947.414 259.307 947.201 259.52C946.667 259.84 946.081 260.533 945.441 261.6C944.801 262.56 944.374 263.147 944.161 263.36L942.721 264.96L940.321 270.4C940.107 270.4 939.894 270.347 939.681 270.24C939.147 272.053 937.494 273.813 934.721 275.52C934.721 275.307 934.614 274.987 934.401 274.56C934.294 274.133 934.241 273.867 934.241 273.76L929.121 277.6L924.961 276.32C925.067 276.213 925.121 276.107 925.121 276C925.227 275.787 925.281 275.627 925.281 275.52L922.241 273.6L923.361 273.12L923.521 272.96C923.521 272.853 923.521 272.747 923.521 272.64C923.094 272.427 922.774 272.32 922.561 272.32L922.401 271.84C922.934 271.52 922.934 270.773 922.401 269.6C921.867 268.32 921.601 267.52 921.601 267.2C921.601 265.067 921.867 263.52 922.401 262.56L922.721 261.76C922.187 261.12 922.347 260.107 923.201 258.72C923.841 257.867 924.161 256.907 924.161 255.84C924.374 254.773 924.747 254.027 925.281 253.6C926.134 252.96 926.241 252 925.601 250.72C925.387 249.547 925.707 248.747 926.561 248.32C926.987 248.107 927.467 246.987 928.001 244.96C927.787 244.427 927.681 244.107 927.681 244L928.641 241.76L929.601 239.84C929.707 239.52 929.761 238.987 929.761 238.24C929.867 237.493 929.921 237.013 929.921 236.8C930.454 236.693 930.721 236.267 930.721 235.52C930.721 234.773 930.827 234.24 931.041 233.92C930.294 233.707 929.174 233.493 927.681 233.28C927.467 233.173 927.307 233.067 927.201 232.96H927.041L928.001 232.48L926.881 231.52C926.881 231.413 926.934 231.307 927.041 231.2C929.601 230.667 931.147 230.24 931.681 229.92L932.801 228.64C934.721 226.293 935.894 224.107 936.321 222.08C936.854 220.587 937.387 219.52 937.921 218.88C938.027 218.773 938.134 218.56 938.241 218.24C938.454 217.92 938.614 217.707 938.721 217.6C938.934 217.173 939.201 216.48 939.521 215.52C939.947 214.453 940.321 213.707 940.641 213.28C940.961 212.853 941.174 212.213 941.281 211.36C941.387 210.4 941.441 209.813 941.441 209.6C941.974 208.64 942.347 208.053 942.561 207.84C942.667 207.84 942.987 207.413 943.521 206.56C943.627 206.133 943.841 205.547 944.161 204.8C944.587 203.947 944.854 203.36 944.961 203.04C945.494 202.507 945.654 202.08 945.441 201.76C945.014 200.907 945.334 199.947 946.401 198.88L947.041 198.24C947.147 197.173 947.574 195.68 948.321 193.76C949.174 191.84 949.707 190.4 949.921 189.44C950.134 188.8 950.667 187.68 951.521 186.08C951.841 185.44 952.001 185.067 952.001 184.96C952.001 183.68 952.427 182.027 953.281 180C954.241 177.867 954.827 176.373 955.041 175.52C955.147 175.307 955.467 174.933 956.001 174.4C957.174 173.653 957.814 172.373 957.921 170.56C958.774 169.707 959.734 169.387 960.801 169.6C961.334 169.707 961.761 169.653 962.081 169.44C962.507 169.227 962.881 168.853 963.201 168.32C963.627 167.68 963.947 167.253 964.161 167.04C964.694 166.187 965.014 165.6 965.121 165.28C965.121 164.32 965.174 163.84 965.281 163.84C966.667 163.627 967.521 163.573 967.841 163.68C969.121 164.107 970.027 164.16 970.561 163.84H971.041C971.894 164.16 973.227 164.427 975.041 164.64C976.961 164.747 978.454 165.013 979.521 165.44C981.121 166.293 981.974 167.413 982.081 168.8C982.614 171.04 982.454 173.013 981.601 174.72C981.174 175.467 980.641 176.587 980.001 178.08C979.361 179.573 978.774 180.693 978.241 181.44C975.894 186.24 974.561 188.8 974.241 189.12C974.134 189.227 973.814 189.973 973.281 191.36L972.161 193.92C970.881 196.053 969.921 197.92 969.281 199.52C968.854 202.08 968.427 203.947 968.001 205.12C968.001 205.333 967.734 206.027 967.201 207.2L966.881 207.52L964.321 212.32C964.854 212.213 965.494 212.16 966.241 212.16C965.814 214.933 964.854 216.693 963.361 217.44C961.974 217.973 961.227 218.987 961.121 220.48C960.694 221.653 960.907 222.347 961.761 222.56C961.761 222.88 961.494 223.2 960.961 223.52C960.534 223.733 960.427 224.107 960.641 224.64L963.681 224.32L962.881 226.08C962.881 226.187 962.774 226.347 962.561 226.56C962.347 226.773 962.241 226.933 962.241 227.04C962.241 228.213 961.601 228.64 960.321 228.32C960.427 228.427 961.014 228.8 962.081 229.44C961.867 229.76 961.547 230.24 961.121 230.88C960.694 231.52 960.374 232.107 960.161 232.64C959.947 233.173 959.841 233.76 959.841 234.4L960.801 232.96L963.201 230.88L963.841 230.56C964.267 229.6 965.174 228.533 966.561 227.36C968.054 226.187 969.014 225.333 969.441 224.8L969.761 224.48C970.294 224.267 970.987 223.787 971.841 223.04C972.694 222.187 973.334 221.653 973.761 221.44C975.681 220.587 977.281 219.253 978.561 217.44C979.627 216.053 981.014 215.36 982.721 215.36C985.921 215.36 988.054 215.573 989.121 216C990.721 216.533 991.734 217.707 992.161 219.52L992.481 222.08C993.121 224.32 993.121 227.147 992.481 230.56C992.054 232.16 991.841 233.973 991.841 236C992.161 237.6 992.267 238.56 992.161 238.88C991.947 239.52 991.734 240.053 991.521 240.48C991.414 240.587 991.307 240.747 991.201 240.96C991.094 241.067 990.987 241.227 990.881 241.44C990.881 241.547 990.827 241.707 990.721 241.92C990.614 242.027 990.561 242.187 990.561 242.4C990.667 243.04 990.454 243.893 989.921 244.96C989.494 245.92 989.281 246.72 989.281 247.36L987.841 248.8C988.267 250.293 987.627 251.787 985.921 253.28C984.747 254.24 984.427 255.307 984.961 256.48C984.961 256.587 984.801 257.12 984.481 258.08L984.001 259.68C983.894 259.68 983.734 259.68 983.521 259.68C983.307 259.573 983.041 259.573 982.721 259.68C982.507 259.787 982.294 260.053 982.081 260.48ZM972.321 185.6L972.641 185.92L973.761 184.64C973.974 184.213 974.187 183.787 974.401 183.36C974.614 182.933 974.827 182.453 975.041 181.92C975.254 181.387 975.414 180.96 975.521 180.64C975.947 180 976.481 178.56 977.121 176.32C977.867 174.613 977.121 173.547 974.881 173.12C973.814 175.68 972.961 179.84 972.321 185.6ZM936.161 259.04L938.081 255.52C937.121 255.093 935.894 255.2 934.401 255.84C934.827 255.947 935.254 256.053 935.681 256.16C936.214 256.267 936.534 256.32 936.641 256.32L935.201 257.6L936.161 259.04ZM950.081 243.2L948.161 244.8L948.481 245.12C950.507 243.84 951.734 242.88 952.161 242.24C952.694 241.6 952.907 240.587 952.801 239.2L951.841 239.84C951.307 241.44 950.721 242.56 950.081 243.2ZM969.761 277.6C969.121 277.813 968.747 277.92 968.641 277.92C968.747 278.453 968.801 278.773 968.801 278.88C968.801 279.093 968.641 279.307 968.321 279.52C968.001 279.84 967.787 280.053 967.681 280.16C968.534 280.267 969.067 280.16 969.281 279.84C969.494 279.627 969.654 278.88 969.761 277.6ZM960.481 226.4C960.481 226.08 960.427 225.813 960.321 225.6L959.201 226.24C959.201 226.347 959.254 226.507 959.361 226.72C959.787 226.507 960.161 226.4 960.481 226.4ZM952.801 237.12C951.947 237.12 951.734 237.44 952.161 238.08C952.161 238.187 952.214 238.293 952.321 238.4C952.534 238.507 952.694 238.507 952.801 238.4C953.014 238.4 953.014 237.973 952.801 237.12ZM961.761 282.72L963.041 281.28C962.081 281.28 961.654 281.76 961.761 282.72ZM951.521 238.08C951.414 238.08 951.201 238.027 950.881 237.92C950.667 237.813 950.454 237.76 950.241 237.76C950.134 237.76 950.027 237.92 949.921 238.24C950.347 238.133 950.881 238.08 951.521 238.08ZM938.881 254.4C938.454 254.187 938.187 254.08 938.081 254.08L937.761 254.4L937.921 254.56C938.134 254.667 938.294 254.72 938.401 254.72C938.507 254.613 938.667 254.507 938.881 254.4ZM965.441 273.76C966.401 273.44 967.467 273.013 968.641 272.48V272.16L965.601 272.48C965.601 272.693 965.547 272.96 965.441 273.28C965.441 273.493 965.441 273.653 965.441 273.76ZM1002.64 271.84L1001.36 269.76C1001.04 269.867 1000.83 270.08 1000.72 270.4L1000.24 271.2L999.443 268V266.88C999.55 266.24 999.176 265.76 998.323 265.44L1000.4 261.28L999.603 260.8C1000.14 258.56 1000.35 257.28 1000.24 256.96C1000.24 256.427 1000.51 255.733 1001.04 254.88C1001.68 254.027 1001.9 253.333 1001.68 252.8L1005.04 240.16C1005.47 239.733 1005.63 239.2 1005.52 238.56C1005.31 237.92 1005.58 237.333 1006.32 236.8C1006.75 236.373 1007.07 235.68 1007.28 234.72C1007.28 233.44 1007.66 232.64 1008.4 232.32C1009.04 232 1009.2 231.84 1008.88 231.84C1008.67 231.2 1008.99 230.187 1009.84 228.8L1009.52 228.48L1006.32 230.4C1004.08 231.573 1002.27 231.947 1000.88 231.52C1000.24 231.413 999.496 231.04 998.643 230.4C997.896 229.867 997.736 229.12 998.163 228.16C998.483 227.307 999.123 226.933 1000.08 227.04C1001.79 227.573 1003.66 226.933 1005.68 225.12C1008.67 222.987 1010.86 221.333 1012.24 220.16C1013.1 219.52 1013.52 218.88 1013.52 218.24C1013.52 217.28 1014.11 216.32 1015.28 215.36C1017.31 213.973 1019.07 213.707 1020.56 214.56C1020.78 214.667 1021.26 214.613 1022 214.4C1023.18 213.76 1024.51 213.707 1026 214.24L1030.64 215.52C1033.84 216.48 1034.91 218.773 1033.84 222.4L1033.36 224.48C1033.36 225.12 1032.83 226.773 1031.76 229.44C1031.44 230.08 1031.28 230.453 1031.28 230.56C1031.28 231.413 1031.02 232.64 1030.48 234.24C1030.06 235.733 1029.79 236.587 1029.68 236.8C1027.02 244.053 1025.42 248.8 1024.88 251.04C1024.35 253.173 1024.19 254.933 1024.4 256.32C1024.51 256.747 1024.19 257.387 1023.44 258.24C1022.8 259.093 1022.48 259.733 1022.48 260.16C1022.48 260.373 1022.48 260.853 1022.48 261.6C1022.59 262.347 1022.54 262.827 1022.32 263.04C1022.11 263.467 1022 264.32 1022 265.6C1023.92 265.173 1025.42 264.747 1026.48 264.32C1026.8 264.107 1027.28 263.627 1027.92 262.88C1028.67 262.133 1029.36 261.653 1030 261.44C1030.64 262.4 1030.75 263.787 1030.32 265.6C1030 268.053 1029.15 270.187 1027.76 272C1027.66 272.213 1027.12 272.8 1026.16 273.76C1024.78 275.147 1023.28 276.053 1021.68 276.48C1017.52 277.547 1015.18 278.133 1014.64 278.24C1012.3 278.56 1009.95 278.293 1007.6 277.44C1005.68 276.587 1004.56 276 1004.24 275.68C1002.96 274.4 1002.48 273.387 1002.8 272.64C1002.91 272.533 1002.86 272.267 1002.64 271.84ZM1043.28 193.92V195.04C1042.54 195.787 1042.16 196.267 1042.16 196.48C1042.06 197.013 1041.84 197.493 1041.52 197.92C1041.31 198.347 1041.04 198.667 1040.72 198.88C1040.51 199.093 1040.14 199.413 1039.6 199.84C1039.18 200.16 1038.86 200.427 1038.64 200.64C1038.43 200.853 1038.11 201.173 1037.68 201.6C1037.36 202.027 1037.15 202.293 1037.04 202.4C1036.72 202.08 1036.4 201.92 1036.08 201.92C1035.98 201.92 1035.82 202.08 1035.6 202.4C1035.5 202.613 1035.39 202.773 1035.28 202.88C1035.18 203.093 1035.12 203.36 1035.12 203.68C1033.84 203.893 1033.1 204 1032.88 204L1032.56 204.16C1032.14 203.84 1031.5 203.627 1030.64 203.52C1029.79 203.413 1029.26 203.307 1029.04 203.2C1027.98 202.773 1027.12 202.56 1026.48 202.56C1025.84 202.667 1025.31 202.453 1024.88 201.92C1024.46 201.28 1024.24 200.587 1024.24 199.84C1024.46 199.307 1024.46 198.933 1024.24 198.72C1023.92 198.293 1023.76 197.333 1023.76 195.84C1023.76 195.627 1023.82 195.36 1023.92 195.04C1024.14 194.613 1024.19 194.24 1024.08 193.92C1024.08 193.6 1023.92 193.28 1023.6 192.96C1023.6 192.747 1023.66 192.64 1023.76 192.64C1024.51 192.107 1024.78 190.933 1024.56 189.12C1024.56 188.373 1024.94 187.733 1025.68 187.2L1027.92 185.12C1028.99 185.44 1029.63 185.333 1029.84 184.8C1030.16 184.8 1030.43 184.853 1030.64 184.96C1031.07 185.067 1031.66 185.12 1032.4 185.12C1033.15 185.12 1033.74 185.12 1034.16 185.12C1034.7 185.12 1035.5 185.12 1036.56 185.12C1037.63 185.12 1038.43 185.12 1038.96 185.12C1040.03 185.12 1040.99 185.547 1041.84 186.4C1042.7 187.147 1043.07 188.053 1042.96 189.12C1042.75 190.4 1042.86 191.413 1043.28 192.16C1043.39 192.267 1043.44 192.427 1043.44 192.64C1043.44 192.853 1043.39 193.12 1043.28 193.44C1043.28 193.653 1043.28 193.813 1043.28 193.92ZM1089.7 276.48C1089.7 276.373 1089.7 276.213 1089.7 276C1089.81 275.893 1089.91 275.787 1090.02 275.68L1084.9 272.8C1084.58 271.733 1084.37 271.04 1084.26 270.72C1084.05 270.293 1083.94 268.8 1083.94 266.24C1083.94 266.027 1083.99 265.92 1084.1 265.92C1084.53 265.813 1084.79 265.653 1084.9 265.44C1085.11 265.227 1085.17 265.067 1085.06 264.96C1085.06 264.747 1084.95 264.48 1084.74 264.16C1084.63 263.733 1084.58 263.467 1084.58 263.36C1084.37 261.12 1084.05 259.787 1083.62 259.36C1083.83 259.147 1083.89 258.667 1083.78 257.92C1083.78 257.173 1083.94 256.693 1084.26 256.48C1085.33 255.413 1086.02 254.08 1086.34 252.48C1086.34 252.16 1086.5 251.733 1086.82 251.2C1087.14 250.667 1087.3 250.347 1087.3 250.24C1087.83 248.533 1088.15 247.627 1088.26 247.52C1088.47 247.093 1089.06 246.24 1090.02 244.96C1090.98 243.68 1091.67 242.453 1092.1 241.28C1092.42 240.64 1092.53 240.267 1092.42 240.16L1092.9 239.04C1094.39 238.08 1095.14 236.747 1095.14 235.04C1095.14 234.4 1095.3 233.973 1095.62 233.76C1096.79 233.333 1097.49 232.107 1097.7 230.08C1098.13 229.76 1098.77 229.387 1099.62 228.96C1099.51 228.853 1099.46 228.693 1099.46 228.48C1099.35 228.587 1099.09 228.693 1098.66 228.8C1098.23 228.907 1097.91 229.067 1097.7 229.28L1094.82 232L1089.7 236.32L1087.62 238.4C1086.34 240.213 1085.27 241.44 1084.42 242.08H1084.26C1084.15 242.72 1083.73 243.467 1082.98 244.32C1082.34 245.067 1081.97 245.653 1081.86 246.08C1081.65 246.613 1081.38 246.933 1081.06 247.04C1079.99 247.68 1079.19 248.693 1078.66 250.08L1077.86 251.84C1077.86 251.947 1077.81 252.107 1077.7 252.32C1077.7 252.533 1077.65 252.693 1077.54 252.8C1076.37 253.333 1075.09 254.88 1073.7 257.44C1073.49 257.76 1073.01 258.507 1072.26 259.68C1071.51 260.853 1070.98 261.76 1070.66 262.4C1070.34 262.827 1070.18 263.36 1070.18 264C1069.86 265.493 1069.33 266.667 1068.58 267.52C1068.37 267.84 1068.15 268.32 1067.94 268.96C1067.94 269.067 1067.89 269.227 1067.78 269.44C1067.78 269.653 1067.73 269.813 1067.62 269.92C1066.02 270.88 1064.9 272.213 1064.26 273.92C1064.26 274.027 1063.78 274.56 1062.82 275.52L1057.7 279.04C1057.27 279.253 1056.69 279.253 1055.94 279.04C1055.83 279.04 1055.3 279.413 1054.34 280.16C1053.7 278.987 1053.01 278.773 1052.26 279.52C1051.73 279.947 1051.25 279.947 1050.82 279.52C1050.39 279.2 1049.91 278.933 1049.38 278.72C1048.85 278.507 1048.26 278.293 1047.62 278.08C1046.98 277.973 1046.45 277.867 1046.02 277.76L1047.46 277.28L1045.06 275.84C1045.7 275.307 1046.02 274.987 1046.02 274.88C1046.13 274.667 1045.97 274.187 1045.54 273.44L1045.22 272.32C1045.01 270.827 1044.53 269.813 1043.78 269.28C1043.57 269.173 1043.41 268.96 1043.3 268.64C1043.3 268.213 1043.35 267.893 1043.46 267.68C1043.78 266.933 1043.99 266.133 1044.1 265.28C1044.31 264.32 1044.47 263.307 1044.58 262.24C1044.69 261.067 1044.79 260.213 1044.9 259.68C1045.11 258.72 1045.38 257.92 1045.7 257.28C1045.91 256.853 1046.39 255.52 1047.14 253.28C1049.17 247.093 1050.98 242.933 1052.58 240.8C1052.69 240.587 1052.74 240.267 1052.74 239.84C1052.85 239.627 1052.9 239.413 1052.9 239.2C1053.65 238.88 1054.18 238.24 1054.5 237.28C1054.71 235.573 1055.41 234.72 1056.58 234.72C1056.58 232.907 1056.95 231.68 1057.7 231.04L1057.86 230.88L1059.46 226.72C1060.21 224.907 1060.58 223.307 1060.58 221.92L1060.1 219.04C1061.7 217.44 1062.98 216.48 1063.94 216.16C1067.46 215.093 1070.45 215.573 1072.9 217.6C1073.11 217.707 1073.33 217.973 1073.54 218.4C1074.39 221.28 1074.82 222.827 1074.82 223.04C1074.93 224.747 1074.71 226.933 1074.18 229.6C1073.97 230.56 1072.79 233.6 1070.66 238.72C1069.81 241.067 1068.79 243.147 1067.62 244.96L1065.7 248.64C1065.38 249.173 1064.53 251.787 1063.14 256.48C1063.14 256.693 1062.82 257.547 1062.18 259.04L1061.7 260.8C1062.23 260.693 1062.61 260.533 1062.82 260.32C1065.7 257.547 1068.53 254.72 1071.3 251.84C1071.83 251.307 1072.69 250.347 1073.86 248.96C1075.03 247.573 1075.94 246.56 1076.58 245.92C1076.9 245.707 1077.43 245.227 1078.18 244.48C1078.93 243.627 1079.51 243.04 1079.94 242.72C1080.15 242.507 1080.31 242.24 1080.42 241.92C1080.53 241.6 1080.63 241.387 1080.74 241.28L1087.46 234.56C1087.57 234.453 1087.67 234.4 1087.78 234.4H1087.94C1089.01 233.867 1089.54 233.547 1089.54 233.44C1089.54 232.8 1090.45 231.627 1092.26 229.92L1094.02 228.16C1095.3 226.88 1096.63 225.707 1098.02 224.64C1100.15 223.36 1101.91 221.387 1103.3 218.72C1103.83 217.76 1104.79 216.853 1106.18 216C1107.35 215.467 1107.99 214.987 1108.1 214.56L1108.9 214.88C1109.65 215.307 1110.34 215.307 1110.98 214.88C1111.3 214.667 1112.26 214.56 1113.86 214.56C1115.25 214.347 1116.37 214.773 1117.22 215.84C1118.18 216.8 1118.5 217.76 1118.18 218.72C1118.07 219.147 1118.02 219.787 1118.02 220.64C1118.02 221.387 1118.02 221.973 1118.02 222.4C1117.59 224.747 1117.17 226.453 1116.74 227.52C1115.89 229.653 1115.41 231.307 1115.3 232.48C1115.09 234.187 1114.34 236.747 1113.06 240.16L1112.42 241.6C1111.35 245.12 1110.5 247.36 1109.86 248.32C1109.43 248.96 1109.22 249.6 1109.22 250.24C1109.22 250.773 1109.11 251.147 1108.9 251.36C1108.79 251.573 1108.58 251.787 1108.26 252C1108.05 252.107 1107.89 252.267 1107.78 252.48C1107.46 253.013 1107.19 253.76 1106.98 254.72C1106.87 255.573 1106.61 256.267 1106.18 256.8C1105.11 258.507 1104.85 260.053 1105.38 261.44C1105.38 261.547 1105.33 261.707 1105.22 261.92C1104.15 263.84 1104.15 265.92 1105.22 268.16L1103.3 270.88C1103.19 271.093 1103.14 271.573 1103.14 272.32C1103.14 273.067 1102.82 273.547 1102.18 273.76C1102.07 273.76 1101.7 273.547 1101.06 273.12C1100.53 272.587 1099.99 272.48 1099.46 272.8C1099.46 273.013 1099.57 273.28 1099.78 273.6C1099.99 273.92 1100.1 274.187 1100.1 274.4C1100.1 274.507 1099.89 274.987 1099.46 275.84C1099.25 275.627 1098.93 275.413 1098.5 275.2C1098.39 275.2 1097.7 275.467 1096.42 276V274.88C1095.89 274.773 1095.51 275.04 1095.3 275.68L1094.98 276.48C1094.66 277.013 1094.34 277.333 1094.02 277.44C1091.99 277.44 1090.55 277.12 1089.7 276.48ZM1093.86 260.16C1093.86 260.907 1094.45 261.493 1095.62 261.92C1095.51 261.067 1095.35 260.533 1095.14 260.32C1095.03 260.107 1094.61 260.053 1093.86 260.16ZM1084.1 268.96L1085.22 270.4C1085.33 270.4 1085.49 270.347 1085.7 270.24L1085.38 268.96H1084.1ZM1098.18 271.84H1097.86C1097.65 272.48 1097.54 272.853 1097.54 272.96C1097.54 273.067 1097.7 273.28 1098.02 273.6C1098.13 273.707 1098.29 273.653 1098.5 273.44V273.12C1098.39 273.013 1098.34 272.907 1098.34 272.8C1098.23 272.587 1098.18 272.267 1098.18 271.84ZM1059.78 241.28L1060.1 242.4L1061.38 241.76C1061.38 241.547 1061.33 241.44 1061.22 241.44C1060.58 241.44 1060.1 241.387 1059.78 241.28Z" fill="white"/>
<path fill-rule="evenodd" clip-rule="evenodd" d="M254.993 275.135H206.298C181.279 275.135 160.997 254.283 160.997 228.56C160.997 218.271 152.882 209.931 142.877 209.931H264.057V181.986C264.057 156.264 243.775 135.412 218.756 135.412H170.056C145.037 135.412 124.756 156.264 124.756 181.986V325.203C124.756 338.064 134.896 348.49 147.406 348.49H241.406C253.915 348.49 264.055 338.065 264.055 325.203V274.202C261.073 274.824 258.038 275.137 254.995 275.135H254.993Z" stroke="white" stroke-opacity="0.8" stroke-width="3"/>
<path fill-rule="evenodd" clip-rule="evenodd" d="M95.6322 224.548C99.3945 195.424 97.28 175.628 105.276 164.871C106.358 162.056 107.707 159.357 109.301 156.812C85.9784 162.733 91.673 185.068 86.5701 224.548C80.5466 271.171 48.3259 335.682 89.8089 335.682H98.8676C57.3856 335.682 89.6052 271.171 95.6322 224.548V224.548Z" stroke="white" stroke-opacity="0.8" stroke-width="3" stroke-linecap="round" stroke-linejoin="round"/>
<path fill-rule="evenodd" clip-rule="evenodd" d="M264.056 274.2C261.073 274.822 258.038 275.136 254.995 275.136H264.056V274.2Z" fill="#CCCCCC"/>
<path fill-rule="evenodd" clip-rule="evenodd" d="M264.055 274.2C261.073 274.822 258.037 275.136 254.994 275.136H206.296C181.278 275.136 160.995 254.283 160.995 228.56C160.995 218.271 152.883 209.93 142.876 209.93C132.868 209.93 124.755 218.272 124.755 228.56V325.203C124.755 338.064 134.895 348.49 147.405 348.49H241.405C253.914 348.49 264.055 338.065 264.055 325.203V274.2Z" stroke="white" stroke-opacity="0.8" stroke-width="3" stroke-linecap="round" stroke-linejoin="round"/>
<path fill-rule="evenodd" clip-rule="evenodd" d="M124.754 325.203V181.986C124.754 156.264 145.036 135.412 170.056 135.412H147.405C122.387 135.412 102.105 156.264 102.105 181.986V325.203C102.105 338.064 112.246 348.49 124.755 348.49H147.405C134.896 348.49 124.755 338.064 124.755 325.203H124.754Z" stroke="white" stroke-opacity="0.8" stroke-width="3" stroke-linecap="round" stroke-linejoin="round"/>
<path d="M245.935 275.135H197.237C172.217 275.135 151.936 254.285 151.936 228.56M124.754 228.56C124.754 218.271 132.868 209.93 142.875 209.93C152.883 209.93 160.995 218.272 160.995 228.56H124.754ZM133.815 228.56C133.815 226.089 134.77 223.72 136.469 221.973C138.168 220.226 140.472 219.245 142.875 219.245C145.278 219.245 147.583 220.226 149.282 221.973C150.981 223.72 151.936 226.089 151.936 228.56H133.815Z" stroke="white" stroke-opacity="0.8" stroke-width="3" stroke-linecap="round" stroke-linejoin="round"/>
<path fill-rule="evenodd" clip-rule="evenodd" d="M142.876 209.931C152.883 209.931 160.996 218.272 160.996 228.561C160.996 254.284 181.277 275.134 206.296 275.134H254.994C280.014 275.134 300.296 254.284 300.296 228.561C300.296 218.272 292.183 209.931 282.175 209.931H142.876Z" stroke="white" stroke-opacity="0.8" stroke-width="3" stroke-linecap="round" stroke-linejoin="round"/>
<path fill-rule="evenodd" clip-rule="evenodd" d="M273.115 209.931H151.937C161.943 209.931 170.055 218.272 170.055 228.561C170.055 249.105 186.314 265.821 206.297 265.821H254.994C274.977 265.821 291.235 249.105 291.235 228.561C291.235 218.272 283.123 209.931 273.115 209.931V209.931Z" stroke="white" stroke-opacity="0.8" stroke-width="3" stroke-linecap="round" stroke-linejoin="round"/>
<path d="M134.08 239.836V256.138M134.08 265.742V268.071M273.38 209.95H266.585C276.593 209.95 284.705 218.291 284.705 228.58C284.705 249.125 268.448 265.841 248.464 265.841H255.258C275.242 265.841 291.499 249.125 291.499 228.58C291.499 218.291 283.388 209.95 273.38 209.95ZM171.345 135.431V123.196C171.347 122.03 171.798 120.912 172.6 120.087C173.402 119.262 174.49 118.798 175.624 118.797H199.812C200.946 118.798 202.034 119.262 202.836 120.087C203.638 120.911 204.089 122.03 204.09 123.196V135.431H215.091V123.196C215.091 114.533 208.236 107.486 199.812 107.486H175.624C167.198 107.486 160.344 114.533 160.344 123.196V135.431H171.345Z" stroke="white" stroke-opacity="0.8" stroke-width="3" stroke-linecap="round" stroke-linejoin="round"/>
<path fill-rule="evenodd" clip-rule="evenodd" d="M199.547 118.777H190.8C191.934 118.779 193.022 119.243 193.824 120.068C194.626 120.892 195.077 122.01 195.078 123.177V135.411H203.826V123.177C203.824 122.01 203.373 120.892 202.571 120.068C201.769 119.243 200.681 118.779 199.547 118.777V118.777Z" stroke="white" stroke-opacity="0.8" stroke-width="3" stroke-linecap="round" stroke-linejoin="round"/>
<path fill-rule="evenodd" clip-rule="evenodd" d="M175.36 107.467H166.613C158.187 107.467 151.333 114.513 151.333 123.177V135.411H160.079V123.177C160.079 114.513 166.934 107.467 175.36 107.467Z" stroke="white" stroke-opacity="0.8" stroke-width="3" stroke-linecap="round" stroke-linejoin="round"/>
<path fill-rule="evenodd" clip-rule="evenodd" d="M218.755 144.726H218.673C227.847 151.793 234.335 162.328 236.265 174.451L245.275 181.146L242.404 209.93H254.995V181.986C254.995 161.441 238.738 144.726 218.755 144.726Z" stroke="white" stroke-opacity="0.8" stroke-width="3" stroke-linecap="round" stroke-linejoin="round"/>
<path fill-rule="evenodd" clip-rule="evenodd" d="M254.994 209.931V181.985C254.994 161.44 238.738 144.726 218.755 144.726H170.056C150.073 144.726 133.816 161.441 133.816 181.985V209.93H254.994V209.931Z" stroke="white" stroke-opacity="0.8" stroke-width="3" stroke-linecap="round" stroke-linejoin="round"/>
<path fill-rule="evenodd" clip-rule="evenodd" d="M254.994 209.931V181.985C254.994 161.44 238.738 144.726 218.755 144.726H170.056C150.073 144.726 133.816 161.441 133.816 181.985V209.93H254.994V209.931Z" stroke="white" stroke-opacity="0.8" stroke-width="3" stroke-linecap="round" stroke-linejoin="round"/>
<path fill-rule="evenodd" clip-rule="evenodd" d="M231.817 209.931L230.862 198.736L200.069 183.97L172.239 204.008L172.744 209.931H231.817Z" stroke="white" stroke-opacity="0.8" stroke-width="3" stroke-linecap="round" stroke-linejoin="round"/>
<path fill-rule="evenodd" clip-rule="evenodd" d="M217.737 160.687L186.735 174.975L184.737 195.012L200.071 183.972L230.863 198.736L231.817 209.931H242.405L245.275 181.146L217.737 160.687Z" stroke="white" stroke-opacity="0.8" stroke-width="3" stroke-linecap="round" stroke-linejoin="round"/>
<path fill-rule="evenodd" clip-rule="evenodd" d="M184.735 195.012L186.734 174.975L192.513 172.313L169.849 166.069L145.825 190.768L150.819 209.931H172.743L172.239 204.008L184.735 195.012ZM197.237 275.135C185.542 275.135 174.884 270.577 166.847 263.098V292.212C166.847 294.683 167.802 297.052 169.501 298.799C171.2 300.546 173.505 301.528 175.908 301.528H235.554C237.956 301.527 240.26 300.545 241.959 298.799C243.658 297.052 244.612 294.682 244.612 292.212V275.135H197.237Z" stroke="white" stroke-opacity="0.8" stroke-width="3" stroke-linecap="round" stroke-linejoin="round"/>
<path fill-rule="evenodd" clip-rule="evenodd" d="M197.237 275.135C185.542 275.135 174.884 270.578 166.847 263.098V292.212C166.847 294.683 167.802 297.052 169.501 298.799C171.2 300.546 173.505 301.528 175.908 301.528H208.373C210.776 301.527 213.08 300.546 214.779 298.799C216.478 297.052 217.432 294.683 217.432 292.212V275.135H197.238H197.237Z" stroke="white" stroke-opacity="0.8" stroke-width="3" stroke-linecap="round" stroke-linejoin="round"/>
<path fill-rule="evenodd" clip-rule="evenodd" d="M197.237 275.135C190.651 275.141 184.144 273.665 178.173 270.81V292.212C178.173 294.682 179.127 297.052 180.826 298.799C182.524 300.546 184.829 301.527 187.231 301.528H235.554C237.957 301.527 240.261 300.546 241.959 298.799C243.658 297.052 244.612 294.682 244.612 292.212V275.135H197.237ZM147.405 325.203V313.559H102.105V325.203C102.105 338.064 112.247 348.49 124.757 348.49H170.057C157.547 348.49 147.407 338.064 147.407 325.203H147.405Z" stroke="white" stroke-opacity="0.8" stroke-width="3" stroke-linecap="round" stroke-linejoin="round"/>
<g filter="url(#filter0_d)">
<path d="M285.672 40H214.014C213.633 40 213.259 40.1882 213.015 40.5525C212.481 41.3488 212.719 42.485 213.375 42.9265L230.088 54.1755C230.09 54.1765 230.091 54.1786 230.092 54.1811L233.983 86.6069C234.122 87.7303 235.19 88.3062 235.935 87.6446L252.258 73.1481C252.26 73.1465 252.263 73.1463 252.265 73.1477L263.832 81.0996C264.384 81.4786 265.095 81.2703 265.454 80.6246L277.616 58.7716C278.009 58.066 277.87 57.096 277.305 56.6052C276.741 56.1142 275.965 56.2886 275.572 56.9941L264.053 77.6918C264.051 77.6949 264.048 77.6959 264.045 77.6941L240.977 61.8358C240.972 61.8327 240.973 61.8242 240.978 61.8219L282.501 44.5219C282.506 44.5197 282.511 44.5275 282.507 44.5333L279.065 50.7184C278.673 51.4216 278.764 52.4144 279.317 52.921C279.884 53.4403 280.677 53.2713 281.076 52.5552L286.703 42.4449C286.738 42.3813 286.77 42.3123 286.798 42.2425C287.202 41.217 286.579 40 285.672 40ZM249.83 71.4736C249.833 71.4763 249.834 71.4834 249.83 71.4865L236.838 83.0247C236.834 83.0284 236.828 83.0241 236.828 83.0174L238.863 63.9462C238.863 63.9411 238.868 63.9382 238.872 63.9406L249.83 71.4736ZM269.766 46.5466L237.477 59.9998C237.031 60.1862 236.698 60.6881 236.636 61.2705L235.147 75.2279C235.146 75.2366 235.136 75.2366 235.135 75.2281L232.643 54.4608C232.643 54.4567 232.645 54.453 232.648 54.4524L269.763 46.5319C269.771 46.5303 269.773 46.5435 269.766 46.5466ZM270.92 43.1274L231.445 51.5515C231.443 51.5517 231.442 51.5515 231.441 51.5507L218.924 43.1268C218.919 43.1231 218.921 43.1125 218.927 43.1125H270.919C270.926 43.1125 270.927 43.126 270.92 43.1274Z" fill="white" fill-opacity="0.8"/>
</g>
<path d="M214.366 109.442C214.207 109.449 214.046 109.467 213.885 109.497C213.573 109.554 213.337 110.317 213.357 111.201C213.376 112.05 213.625 112.702 213.921 112.702C213.934 112.702 213.946 112.701 213.958 112.699C214.1 112.673 214.243 112.657 214.383 112.651C214.696 112.637 214.946 111.908 214.941 111.023C214.936 110.137 214.678 109.424 214.366 109.442Z" fill="white" fill-opacity="0.8"/>
<path d="M223.19 110.365C222.955 110.135 222.709 109.943 222.457 109.794C222.212 109.648 221.974 110.131 221.926 110.872C221.878 111.612 222.038 112.33 222.283 112.475C222.499 112.603 222.71 112.767 222.91 112.963C223.145 113.193 223.404 112.794 223.481 112.086C223.558 111.368 223.428 110.597 223.19 110.365Z" fill="white" fill-opacity="0.8"/>
<path d="M204.851 127.981C204.794 127.562 204.76 127.129 204.752 126.695C204.743 126.187 204.404 125.785 203.997 125.797C203.59 125.808 203.267 126.23 203.277 126.738C203.286 127.261 203.327 127.784 203.396 128.292C203.464 128.786 203.852 129.129 204.248 129.044C204.65 128.958 204.92 128.482 204.851 127.981Z" fill="white" fill-opacity="0.8"/>
<path d="M212.203 144.707C212.005 144.524 211.814 144.286 211.633 144.001C211.412 143.653 211.126 143.842 210.993 144.423C210.861 145.004 210.933 145.757 211.154 146.105C211.388 146.473 211.636 146.78 211.891 147.018C212.143 147.253 212.426 146.863 212.496 146.185C212.56 145.574 212.429 144.919 212.203 144.707Z" fill="white" fill-opacity="0.8"/>
<path d="M214.326 98.9765C214.155 98.5076 213.841 98.4293 213.625 98.8012C213.413 99.1661 213.205 99.5539 213.008 99.9541C212.806 100.362 212.795 101.048 212.983 101.486C213.168 101.918 213.489 101.943 213.688 101.54C213.866 101.179 214.054 100.829 214.245 100.499C214.461 100.127 214.497 99.4455 214.326 98.9765Z" fill="white" fill-opacity="0.8"/>
<path d="M206.78 137.764C206.624 137.409 206.484 137.024 206.363 136.618C206.218 136.136 205.88 135.952 205.607 136.207C205.334 136.462 205.23 137.06 205.374 137.543C205.526 138.048 205.701 138.529 205.895 138.973C206.096 139.433 206.49 139.482 206.727 139.078C206.929 138.733 206.952 138.157 206.78 137.764Z" fill="white" fill-opacity="0.8"/>
<path d="M205.114 115.424C204.795 115.22 204.425 115.443 204.289 115.921C204.139 116.448 204.016 116.967 203.933 117.421C203.843 117.922 204.041 118.439 204.376 118.575C204.431 118.598 204.486 118.608 204.541 118.608C204.818 118.608 205.072 118.332 205.148 117.913C205.195 117.654 205.285 117.226 205.446 116.658C205.583 116.18 205.434 115.627 205.114 115.424Z" fill="white" fill-opacity="0.8"/>
<path d="M208.857 106.373C208.619 106.034 208.276 106.111 208.091 106.547C207.908 106.977 207.733 107.423 207.571 107.875C207.406 108.337 207.476 108.957 207.727 109.261C207.976 109.56 208.32 109.43 208.483 108.974C208.629 108.568 208.787 108.165 208.952 107.778C209.137 107.342 209.094 106.713 208.857 106.373Z" fill="white" fill-opacity="0.8"/>
<path d="M230.34 115.431C230.144 114.988 229.921 114.575 229.679 114.204C229.454 113.859 229.143 113.977 228.984 114.468C228.826 114.959 228.88 115.637 229.106 115.982C229.296 116.273 229.47 116.595 229.621 116.938C229.81 117.364 230.131 117.377 230.326 116.967C230.525 116.551 230.531 115.863 230.34 115.431Z" fill="white" fill-opacity="0.8"/>
<path d="M220.471 147.065C220.419 146.265 220.181 145.756 219.938 145.927C219.752 146.059 219.556 146.147 219.356 146.187L219.321 146.194C219.074 146.235 218.883 146.93 218.896 147.747C218.908 148.539 219.106 149.154 219.343 149.154C219.35 149.154 219.358 149.154 219.366 149.152L219.411 149.144C219.655 149.095 219.896 148.987 220.126 148.824C220.368 148.652 220.523 147.865 220.471 147.065Z" fill="white" fill-opacity="0.8"/>
<path d="M235.233 123.623C235.201 123.062 235.124 122.52 235.005 122.011C234.891 121.523 234.502 121.25 234.137 121.403C233.772 121.555 233.568 122.074 233.682 122.562C233.77 122.938 233.827 123.344 233.851 123.767C233.881 124.27 234.22 124.657 234.596 124.618C234.973 124.578 235.263 124.126 235.233 123.623Z" fill="white" fill-opacity="0.8"/>
<path d="M233.335 131.97C233.008 131.822 232.664 132.109 232.567 132.61C232.486 133.028 232.382 133.438 232.257 133.829C232.106 134.298 232.232 134.866 232.538 135.096C232.841 135.325 233.217 135.128 233.366 134.665C233.522 134.178 233.653 133.667 233.753 133.147C233.85 132.645 233.663 132.118 233.335 131.97Z" fill="white" fill-opacity="0.8"/>
<path d="M221.097 93.6315C220.986 93.0304 220.707 92.7723 220.472 93.0546C220.242 93.3316 220.013 93.6335 219.794 93.952C219.618 94.2061 219.524 94.736 219.565 95.2417C219.61 95.7938 219.805 96.2004 220.025 96.2004C220.104 96.2004 220.183 96.1502 220.256 96.0444C220.455 95.7558 220.662 95.4818 220.871 95.2304C221.106 94.9481 221.207 94.2322 221.097 93.6315Z" fill="white" fill-opacity="0.8"/>
<path d="M228.202 141.338C228.014 140.896 227.703 140.878 227.505 141.298C227.342 141.644 227.165 141.957 226.977 142.228C226.749 142.558 226.683 143.241 226.831 143.753C226.976 144.258 227.286 144.408 227.512 144.082C227.751 143.736 227.977 143.338 228.184 142.898C228.381 142.478 228.389 141.78 228.202 141.338Z" fill="white" fill-opacity="0.8"/>
<path d="M228.789 90.9571C228.707 90.1734 228.393 89.708 228.088 89.9169C227.933 90.0228 227.779 90.1363 227.628 90.2538C227.341 90.4782 227.168 91.2608 227.239 92.0083C227.316 92.8172 227.652 93.3074 227.962 93.0649C228.1 92.957 228.242 92.8532 228.383 92.756C228.689 92.5466 228.87 91.7412 228.789 90.9571Z" fill="white" fill-opacity="0.8"/>
<path d="M189.406 168.304C189.328 168.034 189.252 167.759 189.18 167.485C189.023 166.884 188.622 166.624 188.285 166.904C187.947 167.184 187.801 167.898 187.959 168.499C188.038 168.802 188.122 169.107 188.208 169.405C188.377 169.986 188.789 170.221 189.116 169.921C189.447 169.617 189.576 168.893 189.406 168.304Z" fill="white" fill-opacity="0.8"/>
<path d="M186.957 159.046C186.871 158.618 186.796 158.182 186.735 157.749C186.664 157.238 186.31 156.904 185.944 157.004C185.578 157.104 185.339 157.599 185.41 158.111C185.478 158.595 185.562 159.083 185.659 159.562C185.759 160.056 186.139 160.352 186.493 160.211C186.851 160.069 187.059 159.547 186.957 159.046Z" fill="white" fill-opacity="0.8"/>
<path d="M185.673 146.694C185.244 146.662 184.873 147.052 184.846 147.565C184.826 147.931 184.816 148.301 184.816 148.667C184.816 149.002 184.806 149.328 184.991 149.604C185.141 149.827 185.375 149.96 185.615 149.952C185.853 149.946 186.08 149.806 186.222 149.578C186.395 149.302 186.374 148.994 186.374 148.667C186.374 148.341 186.383 148.01 186.4 147.684C186.428 147.17 186.102 146.727 185.673 146.694Z" fill="white" fill-opacity="0.8"/>
<path d="M186.796 136.605C186.449 136.445 186.078 136.718 185.966 137.216C185.859 137.69 185.765 138.174 185.686 138.656C185.603 139.165 185.823 139.675 186.177 139.795C186.528 139.913 186.889 139.592 186.971 139.09C187.042 138.658 187.126 138.223 187.222 137.798C187.334 137.3 187.143 136.766 186.796 136.605Z" fill="white" fill-opacity="0.8"/>
<path d="M194.354 119.476C194.155 119.052 193.825 119.036 193.616 119.44C193.562 119.544 193.509 119.649 193.457 119.755C193.315 120.042 193.176 120.344 193.042 120.655C192.852 121.096 192.874 121.765 193.092 122.15C193.306 122.53 193.641 122.484 193.829 122.05C193.947 121.774 194.071 121.507 194.195 121.254C194.242 121.159 194.289 121.065 194.337 120.973C194.546 120.569 194.553 119.899 194.354 119.476Z" fill="white" fill-opacity="0.8"/>
<path d="M189.742 127.334C189.469 127.049 189.112 127.194 188.944 127.658C188.785 128.098 188.635 128.555 188.496 129.016C188.351 129.501 188.464 130.095 188.749 130.343C189.031 130.588 189.386 130.391 189.53 129.912C189.654 129.498 189.789 129.087 189.932 128.692C190.1 128.228 190.015 127.62 189.742 127.334Z" fill="white" fill-opacity="0.8"/>
<path d="M200.451 114.52C200.283 113.882 199.92 113.674 199.639 114.055C199.496 114.249 199.353 114.453 199.214 114.662C198.942 115.073 198.867 115.908 199.048 116.527C199.227 117.138 199.6 117.31 199.869 116.904C199.993 116.719 200.119 116.537 200.246 116.365C200.527 115.984 200.619 115.158 200.451 114.52Z" fill="white" fill-opacity="0.8"/>
<defs>
<filter id="filter0_d" x="208.721" y="40" width="82.2022" height="55.9248" filterUnits="userSpaceOnUse" color-interpolation-filters="sRGB">
<feFlood flood-opacity="0" result="BackgroundImageFix"/>
<feColorMatrix in="SourceAlpha" type="matrix" values="0 0 0 0 0 0 0 0 0 0 0 0 0 0 0 0 0 0 127 0"/>
<feOffset dy="4"/>
<feGaussianBlur stdDeviation="2"/>
<feColorMatrix type="matrix" values="0 0 0 0 0 0 0 0 0 0 0 0 0 0 0 0 0 0 0.25 0"/>
<feBlend mode="normal" in2="BackgroundImageFix" result="effect1_dropShadow"/>
<feBlend mode="normal" in="SourceGraphic" in2="effect1_dropShadow" result="shape"/>
</filter>
</defs>
</svg>
